<svg width="60" height="60" viewBox="0 0 60 60" fill="none" xmlns="http://www.w3.org/2000/svg">
<rect width="60" height="60" fill="#D0103A"/>
<path fill-rule="evenodd" clip-rule="evenodd" d="M21 23C21 22.4477 21.4477 22 22 22H37.9553C38.5076 22 38.9553 22.4477 38.9553 23C38.9553 23.5523 38.5076 24 37.9553 24H22C21.4477 24 21 23.5523 21 23ZM21 30.1829C21 29.6307 21.4477 29.1829 22 29.1829H37.9553C38.5076 29.1829 38.9553 29.6307 38.9553 30.1829C38.9553 30.7352 38.5076 31.1829 37.9553 31.1829H22C21.4477 31.1829 21 30.7352 21 30.1829ZM22 36.3661C21.4477 36.3661 21 36.8138 21 37.3661C21 37.9184 21.4477 38.3661 22 38.3661H37.9553C38.5076 38.3661 38.9553 37.9184 38.9553 37.3661C38.9553 36.8138 38.5076 36.3661 37.9553 36.3661H22Z" fill="white"/>
</svg>
