<svg width="14" height="14" viewBox="0 0 14 14" fill="none" xmlns="http://www.w3.org/2000/svg">
<path fill-rule="evenodd" clip-rule="evenodd" d="M12.9892 1.70711C13.3797 1.31658 13.3797 0.683418 12.9892 0.292893C12.5987 -0.0976311 11.9655 -0.0976311 11.575 0.292893L6.78211 5.08579L1.98922 0.292893C1.59869 -0.0976311 0.965526 -0.0976311 0.575002 0.292893C0.184478 0.683418 0.184478 1.31658 0.575002 1.70711L5.3679 6.5L0.292894 11.575C-0.0976317 11.9655 -0.0976307 12.5987 0.292894 12.9892C0.683418 13.3797 1.31658 13.3797 1.70711 12.9892L6.78211 7.91421L11.8571 12.9892C12.2476 13.3797 12.8808 13.3797 13.2713 12.9892C13.6618 12.5987 13.6618 11.9655 13.2713 11.575L8.19632 6.5L12.9892 1.70711Z" fill="#1A1A1A"/>
</svg>
