<svg width="13" height="13" viewBox="0 0 13 13" fill="none" xmlns="http://www.w3.org/2000/svg">
<path fill-rule="evenodd" clip-rule="evenodd" d="M11.941 2.04162C12.3316 1.65109 12.3316 1.01793 11.941 0.627405C11.5505 0.23688 10.9173 0.23688 10.5268 0.627405L6.28418 4.87005L2.04154 0.627405C1.65101 0.23688 1.01785 0.23688 0.627326 0.627405C0.236801 1.01793 0.236801 1.65109 0.627326 2.04162L4.86997 6.28426L0.627326 10.5269C0.236801 10.9174 0.236801 11.5506 0.627326 11.9411C1.01785 12.3316 1.65101 12.3316 2.04154 11.9411L6.28418 7.69847L10.5268 11.9411C10.9173 12.3316 11.5505 12.3316 11.941 11.9411C12.3316 11.5506 12.3316 10.9174 11.941 10.5269L7.69839 6.28426L11.941 2.04162Z" fill="white"/>
</svg>
