<svg width="331" height="307" viewBox="0 0 331 307" fill="none" xmlns="http://www.w3.org/2000/svg">
<path d="M249.099 3.47002L245.469 125.864C245.469 125.864 263.618 121.675 272.692 125.864L271.179 3.47002C267.941 1.21115 264.088 0 260.139 0C256.191 0 252.338 1.21115 249.099 3.47002Z" fill="#D9EDEF"/>
<path d="M214.39 114.446L215.464 175.091C215.464 175.091 205.377 175.666 198.465 175.666L199.403 116.684C199.403 116.684 202.942 109.803 214.39 114.446Z" fill="#D9EDEF"/>
<path d="M96.7902 23.5389L93.1152 137.615C93.1152 137.615 111.263 133.426 120.338 137.615L118.825 23.6145C115.597 21.3586 111.757 20.1425 107.82 20.129C103.882 20.1155 100.033 21.3052 96.7902 23.5389Z" fill="#D9EDEF"/>
<path d="M122.485 154.735L142.796 153.54V305.924H76.7969V156.066L90.8012 155.748L90.529 133.124L122.485 132.004V154.735Z" fill="#F8C9CA"/>
<path d="M83.1488 171.931H70.4602V305.925H83.1488V171.931Z" fill="#F6BCBC"/>
<path d="M88.2304 175.106L83.1489 172.565V305.924H88.2304V175.106Z" fill="#EC6A46"/>
<path d="M127.567 134.545L122.485 132.004V305.924H127.567V134.545Z" fill="#EC6A46"/>
<path d="M147.877 156.338L142.796 153.797V305.924H147.877V156.338Z" fill="#EC6A46"/>
<path d="M99.0588 141.23H96.5181V296.306H99.0588V141.23Z" fill="#EC6A46"/>
<path d="M107.997 141.23H105.456V296.306H107.997V141.23Z" fill="#EC6A46"/>
<path d="M116.95 141.23H114.409V296.306H116.95V141.23Z" fill="#EC6A46"/>
<path d="M272.979 143.74L293.108 141.23V305.925H274.143L272.979 143.74Z" fill="#F8C9CA"/>
<path d="M274.143 122.522L269.077 119.981V305.925H274.143V122.522Z" fill="#EC6A46"/>
<path d="M300.549 147.098L293.108 141.23V305.925H300.549V147.098Z" fill="#EC6A46"/>
<path d="M318.107 109.637L319.499 193.406C319.499 193.406 305.766 191.425 300.549 194.041L301.759 110.469C301.759 110.469 306.674 104.994 318.107 109.637Z" fill="#D9EDEF"/>
<path d="M221.846 147.93H237.499V122.22L269.077 119.981V305.925H221.846V147.93Z" fill="#F8C9CA"/>
<path d="M146.486 174.471L147.605 305.925H227.442V162.463H215.147V172.566L146.486 174.471Z" fill="#F8C9CA"/>
<path d="M175.962 222.564H168.975V290.726H175.962V222.564Z" fill="#EC6A46"/>
<path d="M186.442 222.564H179.455V290.726H186.442V222.564Z" fill="#EC6A46"/>
<path d="M196.772 222.564H189.785V290.726H196.772V222.564Z" fill="#EC6A46"/>
<path d="M246.739 129.207H244.199V294.899H246.739V129.207Z" fill="#EC6A46"/>
<path d="M254.982 129.207H252.441V294.899H254.982V129.207Z" fill="#EC6A46"/>
<path d="M263.224 129.207H260.684V294.899H263.224V129.207Z" fill="#EC6A46"/>
<path d="M336.134 188.596H300.549V305.939H336.134V188.596Z" fill="#F8C9CA"/>
<path d="M232.524 165.004L227.442 162.463V305.925H232.524V165.004Z" fill="#EC6A46"/>
<path d="M335.755 306.17H0" stroke="#F4A796" stroke-width="0.42" stroke-miterlimit="10"/>
<path d="M26.4507 296.019H25.6794V306.544H26.4507V296.019Z" fill="#EC6A46"/>
<path d="M25.846 255.896L24.5756 257.605L23.0633 263.654C22.9241 264.21 22.6604 264.728 22.292 265.167C21.9415 265.512 21.6908 265.946 21.566 266.422V273.984C21.5688 274.347 21.5178 274.709 21.4148 275.057L17.5129 288.669V294.446C17.5126 294.982 17.6256 295.513 17.8445 296.003C18.0634 296.493 18.3833 296.931 18.7833 297.289L19.4941 297.939C20.1769 298.553 21.0567 298.901 21.9744 298.922H24.863H30.2469C30.8459 298.925 31.4369 298.785 31.971 298.514C32.6409 298.187 33.1993 297.67 33.576 297.027C33.9527 296.384 34.1309 295.644 34.0883 294.899C33.8463 290.06 33.2111 279.776 32.4398 278.748C31.4265 277.447 35.9938 272.849 34.2244 271.337C32.4549 269.825 30.6704 270.778 30.1562 268.161C29.642 265.545 29.8991 264.985 29.4 262.838C28.4646 260.404 27.2732 258.077 25.846 255.896Z" fill="#F4AA9F"/>
</svg>
