<svg width="1642" height="808" viewBox="0 0 1642 808" fill="none" xmlns="http://www.w3.org/2000/svg">
<mask id="mask0_335_277" style="mask-type:alpha" maskUnits="userSpaceOnUse" x="0" y="0" width="1642" height="808">
<rect width="1642" height="808" fill="#EAF8F4"/>
</mask>
<g mask="url(#mask0_335_277)">
<path d="M1751.85 565.538C1751.85 800.538 1561.33 991.068 1326.31 991.068C1195.46 991.068 1078.46 931.998 1000.4 839.148C935.914 762.573 900.623 665.645 900.775 565.538C900.769 545.831 902.122 526.148 904.825 506.628C913.637 442.858 936.895 381.943 972.825 328.528C1040.54 227.728 1150.22 157.528 1276.83 142.838C1339.15 135.632 1402.31 142.19 1461.83 162.048C1609.55 211.648 1721.07 340.048 1746.39 497.368C1750.02 519.909 1751.84 542.705 1751.85 565.538V565.538Z" fill="#026263"/>
<path d="M1462.52 161.388C1461.79 163.768 1462.52 168.388 1462.52 168.388L1467.22 173.088L1461.74 179.358L1460.95 183.278L1472.71 187.198L1478.98 189.548L1477.46 193.418L1471.97 198.898L1466.46 200.468C1466.46 200.468 1467.24 202.228 1466.07 202.818C1464.99 203.27 1463.88 203.605 1462.74 203.818L1459.99 201.818L1456.66 199.818C1456.66 199.818 1451.37 189.628 1450.79 189.238C1450.21 188.848 1448.63 185.518 1448.63 185.518L1444.91 178.658L1441.97 177.288C1441.97 177.288 1439.03 175.718 1438.64 176.288C1438.25 176.858 1438.64 179.618 1438.64 179.618C1438.64 179.618 1441.58 182.558 1441.38 183.148C1441.18 183.738 1442.75 185.698 1442.75 185.698L1444.32 191.378C1444.89 192.675 1445.76 193.817 1446.87 194.708C1448.28 195.972 1449.53 197.414 1450.59 198.998C1451.86 200.216 1453.24 201.33 1454.7 202.328L1455.1 205.658L1458.03 207.228L1457.64 211.148C1457.64 211.148 1457.05 214.278 1455.1 214.668C1453.15 215.058 1450.98 214.668 1449.81 215.258C1448.64 215.848 1443.34 215.648 1440.21 215.058C1437.08 214.468 1434.52 213.498 1428.84 212.318C1423.16 211.138 1411.01 209.968 1408.84 209.188C1406.67 208.445 1404.44 207.919 1402.18 207.618C1400.38 207.225 1398.61 206.701 1396.89 206.048L1380.23 205.658L1373.38 207.658L1367.89 209.808L1365.54 210.998L1363.97 213.148C1363.97 213.148 1358.29 218.638 1357.7 219.618C1356.53 221.957 1355.15 224.186 1353.59 226.278C1351.59 228.628 1349.67 229.018 1349.08 230.198C1348.49 231.378 1344.97 236.658 1344.19 237.058C1343.41 237.458 1340.66 242.538 1340.66 242.538L1336.94 246.068L1335.37 248.618L1331.28 250.998C1331.28 250.998 1329.91 257.268 1329.33 257.848C1328.75 258.428 1328.54 262.158 1328.93 262.948C1329.32 263.738 1333.24 266.078 1333.24 266.078L1333.05 268.238L1337.95 269.798L1341.28 268.798H1344.46L1345.46 266.798L1346.24 262.878L1348.4 259.938L1349.58 259.348L1353.1 259.738L1354.47 261.738L1354.28 263.108L1354.47 265.458L1353.69 266.458L1356.04 268.618L1353.82 270.998C1353.82 270.998 1355.38 272.998 1355.19 274.128C1355.21 275.128 1355.56 276.093 1356.19 276.878C1356.19 276.878 1360.89 280.398 1360.69 280.988C1360.49 281.578 1363.63 283.728 1363.63 283.728L1369.9 284.318L1371.08 282.758C1371.08 282.758 1374.6 281.188 1374.6 280.398C1374.5 279.656 1374.31 278.932 1374.01 278.248C1374.01 278.248 1376.56 277.658 1376.17 276.678C1375.78 275.698 1374.8 273.738 1375.39 273.348C1375.98 272.958 1377.39 272.348 1377.74 270.998C1378.09 269.648 1377.93 269.238 1378.52 268.448C1379.11 267.658 1379.3 266.888 1380.09 266.448C1380.88 266.008 1384.59 263.708 1384.59 263.118C1384.59 262.528 1384.59 261.118 1383.81 260.578C1383.03 260.038 1381.81 259.578 1379.7 258.228C1377.59 256.878 1375.39 255.678 1375.39 255.678V253.328C1375.39 253.328 1380.87 248.228 1380.87 246.668C1380.87 246.211 1380.97 245.761 1381.18 245.353C1381.38 244.945 1381.68 244.59 1382.05 244.318C1382.19 242.924 1382.45 241.546 1382.83 240.198C1383.22 239.418 1384.83 233.928 1384.83 233.928C1384.83 233.928 1385.22 234.318 1385.03 232.358C1384.84 230.398 1388.94 230.208 1389.14 229.228C1389.34 228.248 1396.19 228.838 1396.19 228.838L1396.39 231.778C1396.39 231.778 1398.39 234.318 1397.17 235.108C1395.95 235.898 1392.67 237.458 1393.25 238.438C1393.83 239.418 1394.04 239.438 1393.45 240.588C1393.01 241.281 1392.62 242.003 1392.28 242.748C1392.11 243.338 1391.49 245.878 1391.28 246.468C1391.07 247.058 1392.45 251.168 1392.45 251.168C1392.45 251.168 1396.37 250.978 1396.37 252.168C1396.57 253.4 1396.97 254.592 1397.55 255.698L1396.17 258.998L1399.7 259.998C1399.7 259.998 1400.7 258.428 1401.27 258.628C1401.84 258.828 1403.42 260.188 1404.79 259.628C1406.16 259.068 1404.99 258.628 1407.54 258.448C1410.09 258.268 1408.54 259.038 1411.65 257.448C1414.76 255.858 1412.04 254.508 1416.55 254.708C1421.06 254.908 1422.04 253.338 1423.21 254.118C1424.38 254.898 1424.58 256.668 1425.21 258.818C1425.84 260.968 1426.39 261.568 1424.43 262.148C1422.47 262.728 1420.51 260.148 1416.98 262.348C1413.45 264.548 1410.91 263.918 1410.52 264.498C1410.13 265.078 1410.71 270.188 1409.34 271.168C1407.97 272.148 1403.66 271.748 1403.07 271.748C1402.48 271.748 1402.48 271.748 1401.07 273.908C1399.66 276.068 1397.35 275.478 1397.15 280.368C1397.15 283.076 1396.1 285.679 1394.21 287.618V289.778C1393.39 290.458 1392.46 290.99 1391.47 291.348C1388.73 291.691 1385.99 291.884 1383.24 291.928C1383.24 291.928 1378.74 293.108 1377.56 292.928C1376.3 292.796 1375.03 292.929 1373.84 293.318C1372.49 293.631 1371.1 293.765 1369.72 293.718C1368.78 293.777 1367.9 294.127 1367.18 294.718L1364.83 295.718C1363.41 296.086 1361.97 296.347 1360.52 296.498L1357.97 295.498C1357.97 295.498 1355.23 293.738 1354.44 293.148C1354.08 292.928 1353.78 292.637 1353.54 292.292C1353.3 291.948 1353.14 291.558 1353.07 291.148C1353.07 290.558 1353.46 288.208 1352.68 287.618C1351.9 287.028 1351.11 287.428 1351.31 286.838C1351.51 286.248 1352.48 283.898 1352.48 283.898L1351.7 280.768C1350.85 280.13 1349.93 279.602 1348.96 279.198C1347.34 278.918 1345.7 278.788 1344.06 278.808L1340.34 281.348C1340.34 281.348 1341.12 285.078 1340.73 285.658C1340.34 286.238 1339.16 286.248 1339.73 287.038C1340.3 287.828 1340.51 290.368 1340.9 291.148C1341.08 291.41 1341.31 291.634 1341.58 291.805C1341.85 291.977 1342.15 292.093 1342.47 292.148L1344.47 295.678L1345.84 297.438C1343.6 299.287 1341.24 300.987 1338.79 302.528C1335.26 304.688 1322.72 309.188 1319.98 310.168C1317.24 311.148 1312.54 312.168 1309.79 313.498C1307.04 314.828 1301.56 318.598 1299.61 317.028C1297.66 315.458 1295.1 313.898 1296.47 312.718C1297.84 311.538 1300.98 307.818 1301.37 306.648C1301.76 305.478 1303.37 303.318 1303.52 302.338C1303.59 301.419 1303.38 300.5 1302.93 299.697C1302.48 298.894 1301.8 298.243 1300.98 297.828C1298.82 296.828 1295.88 296.458 1295.88 295.088C1295.88 293.718 1293.14 291.758 1293.53 290.968C1293.88 289.618 1294.15 288.244 1294.32 286.858C1294.42 285.813 1294.42 284.762 1294.32 283.718C1294.32 283.718 1296.86 278.828 1296.67 277.648C1296.48 276.468 1295.3 272.558 1295.3 272.558C1295.3 272.558 1292.55 273.928 1290.99 272.558C1289.43 271.188 1289.22 270.398 1287.85 270.558C1286.48 270.718 1281.78 270.748 1281.19 271.728C1280.6 272.708 1278.64 274.868 1278.64 275.458C1278.64 276.048 1279.64 277.998 1279.23 278.978C1278.82 279.958 1276.49 281.138 1276.49 281.138C1276.49 281.138 1278.49 283.138 1278.49 283.678C1278.49 284.218 1278.88 284.858 1278.09 285.448C1277.3 286.038 1276.14 287.448 1274.96 287.018C1273.78 286.588 1272.22 285.638 1271.63 286.228C1271.04 286.818 1261.44 287.018 1261.44 287.018C1261.19 288.393 1260.58 289.678 1259.68 290.738C1258.31 292.108 1257.33 292.738 1257.52 293.678C1257.51 294.813 1257.32 295.939 1256.94 297.008C1256.94 297.008 1248.71 304.058 1247.53 305.008C1246.35 305.958 1242.05 306.188 1241.65 307.748C1241.25 309.308 1241.46 309.908 1241.07 311.278C1240.68 312.648 1241.65 312.648 1242.24 314.018C1242.83 315.388 1246.16 315.588 1248.32 316.568C1250.09 317.399 1252.09 317.607 1254 317.158C1255 316.768 1260.66 314.998 1260.27 314.018C1259.88 313.038 1260.85 311.668 1262.03 310.098C1263.21 308.528 1265.16 302.268 1266.93 300.308C1268.7 298.348 1269.47 296.188 1273.39 295.408C1277.31 294.628 1278.09 294.818 1278.88 294.408C1279.67 293.998 1280.88 293.628 1282.4 295.778C1283.92 297.928 1285.74 297.938 1285.93 299.108C1286.12 300.278 1284.76 300.108 1284.17 303.028C1283.58 305.948 1282.6 303.808 1280.84 307.728C1279.08 311.648 1280.05 312.238 1278.09 313.018C1276.13 313.798 1273.59 316.548 1272.41 317.718C1271.23 318.888 1270.06 318.898 1270.26 320.468C1270.4 321.466 1270.81 322.41 1271.43 323.208C1271.43 323.208 1275.94 320.468 1276.72 321.058C1277.5 321.648 1280.45 321.248 1282.99 321.248C1285.53 321.248 1283.78 321.448 1286.13 322.038C1288.44 322.537 1290.82 322.669 1293.18 322.428C1295.18 322.228 1292.98 321.638 1295.18 322.228C1297.38 322.818 1299.88 323.408 1299.88 323.408C1299.88 323.408 1298.71 325.558 1298.12 325.558C1297.53 325.558 1292.44 326.738 1292.44 326.738C1292.44 326.738 1288.91 328.298 1287.73 328.298C1286.55 328.298 1283.23 327.908 1283.23 327.908L1279.7 328.298C1279.7 328.298 1276.76 328.298 1275.98 328.888C1275.2 329.478 1272.65 329.678 1271.87 332.028C1271.09 334.378 1270.87 336.918 1270.49 337.508C1270.11 338.098 1271.28 339.278 1271.49 339.858C1271.7 340.438 1274.04 342.018 1274.82 342.998C1275.6 343.978 1278.55 344.168 1278.55 345.148C1278.55 346.128 1280.7 346.148 1281.49 346.518C1282.28 346.888 1282.86 347.108 1283.64 347.518C1284.42 347.928 1285.8 348.518 1285.8 348.518C1286.25 350.852 1286.59 353.208 1286.8 355.578C1286.8 357.338 1285.23 360.668 1285.8 362.038C1286.37 363.408 1285.01 364.588 1284.62 365.758C1284.23 366.928 1283.84 367.528 1282.07 368.308C1280.3 369.088 1277.96 371.448 1276.59 371.248C1275.22 371.048 1271.3 368.898 1267.97 368.898C1264.64 368.898 1262.29 368.698 1261.5 367.528C1260.99 366.684 1260.23 366.024 1259.32 365.641C1258.42 365.258 1257.41 365.173 1256.46 365.398C1253.71 365.988 1249.6 366.398 1249.6 366.398L1245.09 368.558C1245.09 368.558 1239.61 372.818 1239.61 373.558C1239.61 374.298 1238.29 375.178 1239.17 376.498C1240.05 377.818 1239.76 377.238 1239.76 379.438C1239.76 381.638 1239.61 382.818 1239.61 383.848C1239.61 384.878 1240.34 385.608 1239.46 386.938C1238.45 388.314 1237.32 389.593 1236.08 390.758C1235.38 391.448 1234.87 392.305 1234.61 393.248L1235.2 395.308C1235.2 395.308 1235.05 397.658 1235.05 400.448C1235.05 403.238 1235.35 403.538 1234.17 404.568C1232.99 405.598 1231.38 406.918 1231.09 407.648C1230.8 408.378 1231.09 410.148 1230.79 410.738C1230.49 411.328 1232.11 412.058 1232.85 413.088C1233.59 414.118 1234.47 414.088 1237.11 414.998C1239.75 415.908 1241.81 415.588 1242.84 415.878C1243.98 416.386 1244.91 417.267 1245.49 418.378C1245.74 419.387 1245.79 420.439 1245.63 421.468C1246.03 423.201 1246.17 424.982 1246.07 426.758C1245.78 428.808 1244.6 429.988 1242.55 432.188C1240.5 434.388 1239.46 433.068 1236.23 435.718C1234.25 437.257 1232.19 438.68 1230.06 439.978C1228.88 440.858 1224.77 441.448 1224.06 442.768C1223.35 444.088 1221.42 447.908 1221.42 450.408C1221.42 452.908 1222.74 454.228 1219.95 455.698C1217.16 457.168 1214.07 459.818 1212.9 460.548C1211.73 461.278 1210.69 460.698 1210.84 462.758C1210.99 464.818 1210.25 465.548 1210.1 466.868C1210.02 467.614 1209.88 468.351 1209.66 469.068C1209.62 469.893 1209.38 470.696 1208.94 471.397C1208.5 472.099 1207.89 472.674 1207.17 473.068C1205.1 474.019 1203.1 475.098 1201.17 476.298C1199.55 477.478 1199.7 476.888 1196.91 478.068C1194.12 479.248 1190 483.648 1189.27 483.798C1188.04 483.816 1186.83 484.117 1185.74 484.678C1184.36 485.414 1182.94 486.052 1181.48 486.588C1180.77 488.054 1180.18 489.576 1179.72 491.138C1179.72 491.878 1181.63 493.058 1178.84 497.138C1176.05 501.218 1175.75 500.958 1172.96 503.138C1170.17 505.318 1174.43 503.438 1168.26 508.728C1162.09 514.018 1155.33 520.918 1154.59 522.248C1153.85 523.578 1150.48 529.298 1150.59 529.738C1150.7 530.178 1149.42 534.878 1151.48 536.648C1153.54 538.418 1155.3 537.088 1154.12 539.138C1152.94 541.188 1154.27 541.938 1154.27 541.938C1154.74 543.099 1154.89 544.367 1154.71 545.608C1154.27 547.078 1154.27 546.928 1154.41 547.808C1154.55 548.688 1157.06 551.488 1156.32 551.928C1155.57 552.529 1154.92 553.225 1154.36 553.998L1154.22 563.258L1154.07 566.938L1150.84 571.638L1150.54 576.048L1147.75 577.518C1147.75 577.518 1145.99 583.518 1145.11 586.178C1144.23 588.838 1145.11 591.328 1145.25 592.648C1145.39 593.968 1150.1 596.468 1150.1 596.468L1146.58 599.698C1146.58 599.698 1142.17 603.078 1142.32 603.818C1142.47 604.558 1143.93 611.018 1143.93 611.018C1144.89 612.387 1146.08 613.579 1147.46 614.538C1149.37 615.718 1151.57 614.538 1151.57 616.598C1151.57 618.658 1154.46 624.998 1154.46 624.998C1154.46 624.998 1159.31 628.078 1159.75 628.378C1160.19 628.678 1164.16 632.778 1164.01 633.378C1163.86 633.978 1163.42 637.788 1163.42 637.788C1164.77 638.817 1166.05 639.947 1167.24 641.168C1167.67 642.261 1168.01 643.392 1168.24 644.548L1172.35 646.308L1177.94 655.418C1177.94 655.418 1192.04 669.088 1193.51 671.418C1194.98 673.748 1195.72 675.528 1196.16 675.238C1197.26 674.834 1198.39 674.5 1199.54 674.238C1200.57 675.081 1201.65 675.866 1202.77 676.588C1203.21 676.738 1207.77 675.118 1209.53 676.448C1211.29 677.778 1208.94 677.328 1211.29 677.768C1213.64 678.208 1215.11 677.028 1216.88 677.028C1218.65 677.028 1221.73 676.448 1222.61 676.448C1223.49 676.448 1224.08 675.558 1224.81 675.558C1225.54 675.558 1237.01 677.178 1237.01 677.178L1241.12 679.528C1241.12 679.528 1243.03 680.528 1243.77 680.268C1244.51 680.008 1246.85 679.088 1248.03 679.528C1249.21 679.968 1263.46 677.768 1264.63 675.998C1265.8 674.228 1269.33 671.888 1269.33 671.888L1278.74 674.238C1278.74 674.238 1279.91 671.298 1282.85 671.298H1288.73L1292.26 668.998C1296.37 670.178 1305.19 672.528 1305.19 672.528C1306.36 672.528 1314 677.228 1314 677.228L1318.71 685.458L1319.29 688.198L1321.64 687.198C1322.09 687.24 1322.51 687.45 1322.82 687.788C1323.41 688.378 1325.76 687.198 1325.76 687.198H1328.11L1331.05 685.828C1331.05 685.828 1334.77 685.828 1334.38 685.238C1334.06 684.488 1333.87 683.696 1333.79 682.888L1340.65 682.298L1343 681.298L1345 684.828C1345 684.828 1343.63 686.008 1345 686.588C1346.21 687.056 1347.45 687.45 1348.72 687.768L1351.27 691.488L1353.13 693.058L1356.66 696.058C1356.66 696.058 1354.6 697.968 1355.33 699.728C1356.08 701.336 1356.91 702.905 1357.83 704.428L1354.31 708.988L1353.86 716.628L1351.66 718.828L1349.02 718.978L1347.4 721.768C1347.4 721.768 1345.19 721.328 1344.75 722.068C1344.31 722.808 1342.99 724.858 1342.99 724.858L1343.87 728.678C1343.87 728.678 1345.49 732.498 1346.96 733.528C1348.08 734.395 1349.12 735.38 1350.04 736.468L1349.75 742.778C1349.75 742.778 1349.46 746.608 1349.9 746.778C1350.34 746.948 1353.57 748.248 1355.63 748.988C1357.69 749.728 1359.74 749.718 1359.89 750.308C1360.04 750.898 1360.62 754.718 1361.36 754.718C1362.1 754.718 1363.86 754.568 1363.86 754.568L1367.86 757.208L1370.95 757.508L1371.95 760.008L1370.95 762.008L1374.48 766.268L1375.8 772.888C1376.64 773.499 1377.38 774.242 1378 775.088C1378.39 775.914 1378.6 776.821 1378.59 777.738C1378.8 779.031 1379.24 780.275 1379.91 781.408C1380.35 782.288 1382.85 785.668 1382.85 785.668C1382.85 785.668 1383.44 789.338 1382.85 789.488C1382.26 789.638 1378.74 789.638 1378.74 789.638L1375.65 791.248L1376.39 794.188C1376.39 794.188 1379.32 794.628 1379.32 795.068C1379.32 795.508 1378.74 797.128 1380.06 797.568C1381.38 798.008 1385.5 799.338 1385.5 799.338L1384.76 802.998L1386.08 805.198L1385.08 806.378L1383.75 813.578L1380.96 814.898C1380.28 815.648 1379.55 816.337 1378.76 816.958C1376.82 818.907 1375.01 820.967 1373.32 823.128L1372.73 826.218L1372.44 830.768C1372.44 830.768 1372.73 835.178 1372.29 836.768C1371.85 837.998 1371.21 839.142 1370.38 840.148L1370.23 843.668L1370.68 848.518L1368.46 852.588L1369.2 856.408L1374.78 859.488L1377.28 866.688L1376.46 868.598L1377.93 870.808C1377.94 871.273 1378.13 871.716 1378.46 872.044C1378.79 872.372 1379.23 872.56 1379.7 872.568C1381.46 872.718 1384.25 873.008 1384.25 873.008L1382.78 877.558L1383.96 880.058L1382.81 882.998L1386.04 884.908L1382.37 889.168C1382.37 889.168 1386.93 898.868 1386.63 899.608C1386.33 900.348 1388.98 901.518 1389.28 902.398C1389.58 903.278 1390.45 902.688 1390.89 903.278C1391.33 903.868 1392.51 904.748 1392.36 905.628C1392.21 906.508 1391.04 905.628 1392.22 908.128C1392.85 909.312 1393.25 910.61 1393.39 911.948C1393.19 912.769 1393.19 913.626 1393.39 914.448C1393.68 916.208 1391.92 917.678 1393.39 917.968C1394.24 918.139 1395.08 918.387 1395.89 918.708C1395.89 918.708 1395.15 919.298 1397.06 920.178C1398.97 921.058 1399.71 920.468 1399.71 920.468L1403.97 924.878C1403.97 924.878 1406.17 927.078 1406.62 926.938C1407.07 926.798 1408.53 925.318 1408.97 925.468C1409.41 925.618 1411.02 928.408 1411.02 928.408C1411.02 928.408 1409.41 930.608 1410.14 931.338C1410.81 932.239 1411.35 933.228 1411.76 934.278L1409.46 936.628C1409.46 936.628 1409.02 939.278 1408.28 939.568C1407.54 939.858 1406.67 941.778 1406.67 941.778L1404.61 943.688C1404.61 943.688 1406.08 945.888 1406.52 946.478C1406.96 947.068 1410.52 947.208 1410.52 947.208L1412.13 948.678L1418.3 948.098C1419.17 948.527 1420.12 948.776 1421.1 948.828C1421.98 948.678 1422.56 947.068 1424.48 947.508C1426.44 948.077 1428.44 948.469 1430.48 948.678C1432.1 948.678 1434.01 948.538 1434.01 948.538L1438.01 948.238C1438.01 948.238 1444.63 946.918 1445.21 946.918C1445.79 946.918 1452.71 946.188 1452.71 946.188C1452.71 946.188 1453 944.278 1454.03 944.418C1455.06 944.558 1458.29 943.098 1458.29 943.098C1458.29 943.098 1461.08 940.748 1463.29 941.188C1465.5 941.628 1465.2 942.068 1465.49 941.628C1465.78 941.188 1465.2 940.158 1466.23 940.008C1467.26 939.858 1467.7 939.568 1470.23 939.128C1471.71 938.88 1473.1 938.218 1474.23 937.218L1483.93 933.698C1484.91 933.155 1485.94 932.709 1487.01 932.368C1487.9 932.228 1489.51 929.878 1490.1 929.288C1490.69 928.698 1495.98 927.518 1495.98 926.938C1495.98 926.358 1496.98 922.528 1497.45 922.528C1497.92 922.528 1503.03 921.648 1503.03 921.648C1503.03 921.648 1506.7 918.268 1506.85 917.088C1507 915.908 1507.14 914.448 1508.32 913.858C1509.62 912.991 1510.85 912.007 1511.99 910.918C1512.73 910.328 1512.43 908.268 1511.7 907.388C1510.97 906.508 1510.23 900.928 1510.82 900.488C1511.81 899.965 1512.84 899.52 1513.9 899.158C1513.9 899.158 1516.99 893.578 1517.43 893.428C1517.87 893.278 1522.57 892.428 1522.57 891.818C1522.57 891.208 1523.75 886.968 1523.75 886.968C1525.43 886.67 1527.1 886.276 1528.75 885.788C1529.2 885.498 1536.1 879.788 1536.1 879.328C1536.48 877.92 1536.97 876.543 1537.57 875.208C1538.01 874.208 1537.87 870.948 1537.87 870.948C1537.87 870.948 1539.04 868.158 1538.87 866.948C1538.17 864.6 1537.33 862.293 1536.38 860.038C1536.38 860.038 1538.29 857.098 1538.58 856.508C1538.92 854.613 1539.17 852.7 1539.31 850.778C1539.31 850.778 1543.58 850.048 1544.16 849.608C1545.02 848.642 1545.81 847.609 1546.51 846.518C1546.51 846.518 1548.72 847.838 1550.63 846.808C1552.54 845.778 1552.83 843.728 1553.57 843.578C1554.31 843.428 1555.33 841.378 1555.33 841.378L1554.45 837.258L1556.07 832.998L1559.59 832.118C1560.18 831.968 1567.23 831.118 1567.67 830.498C1568.21 829.647 1568.7 828.765 1569.14 827.858C1569.14 827.858 1577.81 819.918 1578.99 818.158C1580.17 816.398 1583.1 810.518 1583.1 810.518C1583.1 810.518 1581.34 806.108 1582.22 805.228C1583.6 803.401 1584.79 801.43 1585.75 799.348C1586.04 798.468 1581.93 792.888 1582.81 791.708C1583.69 790.528 1585.45 789.358 1585.45 788.478C1585.17 786.302 1584.78 784.142 1584.28 782.008C1583.98 780.838 1585.45 772.898 1585.45 772.898C1585.45 772.898 1582.81 771.428 1582.51 770.548C1582.21 769.668 1581.34 767.318 1581.34 767.318L1579.46 755.318L1580.93 747.388C1581.39 746.521 1581.99 745.729 1582.69 745.038C1583.86 743.858 1585.04 740.628 1585.04 740.628L1590.92 732.108L1591.5 723.878L1594.74 720.058C1594.74 720.058 1594.44 716.528 1595.62 715.938C1596.8 715.348 1600.32 712.708 1600.32 712.708L1606.79 705.068C1606.79 705.068 1607.08 695.958 1608.79 695.068C1611.43 693.338 1613.98 691.472 1616.43 689.478C1616.43 689.478 1622.02 682.138 1625.25 681.838C1628.48 681.538 1626.43 678.898 1631.13 675.668C1635.83 672.438 1637.59 666.268 1637.59 666.268C1637.59 666.268 1636.71 661.558 1637.59 660.978C1638.47 660.398 1642 656.858 1642 656.858C1642 656.858 1647.29 640.698 1648.17 640.108C1649.05 639.518 1649.05 624.828 1649.05 624.828L1654.05 611.308V607.488C1654.05 606.608 1654.64 598.668 1654.64 598.668L1651.41 598.378L1648.41 592.218L1643.41 599.568C1643.41 599.568 1646.06 600.738 1644.59 601.038C1643.12 601.338 1639.59 601.618 1639.3 602.498C1639.01 603.378 1636.06 605.438 1636.06 605.438C1636.06 605.438 1632.83 605.148 1631.66 606.028C1630.49 606.908 1629.89 608.088 1628.72 608.378C1627.55 608.668 1622.55 607.498 1621.08 608.968C1619.29 610.494 1617.18 611.598 1614.91 612.198C1614.02 612.198 1612.26 611.318 1610.2 610.728C1608.14 610.138 1605.2 609.258 1605.2 608.378C1605.2 607.498 1607.2 604.268 1607.2 603.378C1607.2 602.488 1601.62 598.378 1601.91 597.498C1602.2 596.618 1603.68 594.848 1602.21 594.268C1600.74 593.688 1595.45 590.448 1595.45 590.448L1589.45 588.398C1589.44 587.899 1589.33 587.406 1589.13 586.95C1588.93 586.495 1588.63 586.085 1588.27 585.748C1587.1 584.868 1583.57 583.698 1584.45 582.808L1586.51 580.758C1586.51 580.758 1581.81 578.698 1581.81 577.528C1581.81 576.358 1580.34 573.118 1580.34 573.118L1576.52 573.408L1572.46 569.868L1571.29 563.118C1571.29 563.118 1569.52 563.118 1569.52 562.228C1569.52 561.338 1568.94 555.178 1568.94 555.178C1567.94 554.515 1566.85 554.019 1565.7 553.708C1563.9 553.118 1562.13 552.43 1560.41 551.648L1557.77 549.648L1556.01 544.648L1554.83 539.358L1552.67 533.998L1550.03 527.538C1550.03 527.538 1546.8 524.008 1545.91 523.128C1545.02 522.248 1540.33 520.188 1540.33 520.188L1537.1 516.068C1536.63 514.147 1536.44 512.172 1536.51 510.198C1536.8 508.138 1537.1 501.968 1537.1 501.968L1531.51 498.738L1531.22 495.798L1527.99 495.208L1523.87 488.448L1522.4 485.218L1520.93 479.338C1520.93 479.338 1523.58 479.048 1524.17 478.158C1524.76 477.268 1527.99 478.458 1527.99 478.458L1529.16 476.688L1531.51 476.108C1531.51 476.108 1532.69 479.048 1534.45 479.628C1536.21 480.208 1539.74 479.628 1539.15 480.518C1538.56 481.408 1536.51 481.978 1539.74 484.628C1542.97 487.278 1544.74 490.798 1545.91 491.088C1547.08 491.378 1548.85 494.918 1548.85 494.918C1548.85 494.918 1547.97 497.558 1550.03 497.848C1551 498.008 1551.98 498.108 1552.97 498.148L1556.79 504.608L1562.08 506.958L1562.96 512.248C1562.96 512.248 1561.78 516.068 1564.72 516.958C1567.66 517.848 1573.24 520.188 1573.24 520.188L1573.83 522.248L1572.66 526.648C1572.66 526.648 1572.07 530.178 1572.95 530.768C1573.83 531.358 1575.3 532.528 1575.3 532.528L1576.18 534.588L1578.83 535.178C1578.83 535.178 1579.12 537.228 1580 537.818C1581.32 538.369 1582.7 538.765 1584.12 538.998H1587.35L1588.82 541.348L1590 542.818C1590 542.818 1591.46 545.758 1590.29 546.338L1589.11 546.928L1593.52 552.518C1593.52 552.518 1597.34 551.628 1596.75 552.808C1596.16 553.988 1595.29 556.338 1595.29 556.338L1598.22 558.688C1598.81 560.448 1602.93 566.328 1601.75 569.268C1600.57 572.208 1600.28 573.378 1601.46 574.848C1602.64 576.318 1601.16 580.428 1603.22 582.198C1605.28 583.968 1607.63 588.068 1608.51 588.958C1609.39 589.848 1614.68 589.838 1613.51 592.478C1612.34 595.118 1618.21 596.008 1618.8 595.128C1619.39 594.248 1619.68 589.248 1620.8 588.958C1621.92 588.668 1625.5 589.538 1625.21 588.068C1624.99 585.824 1624.9 583.571 1624.92 581.318C1627.56 580.728 1630.21 577.788 1631.09 576.608C1631.97 575.428 1630.21 574.848 1633.73 574.558C1637.25 574.268 1638.73 570.438 1639.61 570.148C1640.49 569.858 1644.31 570.148 1645.19 569.268C1646.07 568.388 1645.49 565.148 1647.25 564.858C1649.01 564.568 1650.78 564.858 1653.42 563.678C1656.06 562.498 1661.65 558.098 1661.95 557.218C1662.25 556.338 1661.36 549.278 1661.36 549.278C1661.36 549.278 1670.17 542.818 1670.76 541.938C1671.35 541.058 1671.06 536.058 1672.82 534.878C1674.58 533.698 1674.58 532.878 1674.88 530.768C1675.18 528.658 1675.76 522.828 1675.76 522.828C1675.76 522.828 1679.28 510.488 1679.28 509.018C1679.28 507.548 1676.93 502.558 1678.11 502.258C1679.29 501.958 1681.93 499.028 1682.52 497.848C1683.11 496.668 1682.81 494.028 1683.69 493.448C1684.57 492.868 1686.34 489.628 1686.34 489.628L1676.34 488.448L1668.46 484.938L1665.52 485.528L1662.29 482.888L1657 474.658L1652 477.888L1650.83 481.118L1649.95 486.118L1645.83 487.588C1645.83 487.588 1642.6 489.938 1641.72 489.938C1639.63 489.467 1637.57 488.879 1635.55 488.178C1635.55 488.178 1633.49 486.408 1633.2 484.938C1632.91 483.468 1631.73 479.648 1631.73 479.648C1631.73 479.648 1627.32 479.358 1627.32 478.478C1627.32 477.598 1622.32 476.708 1622.62 475.828C1622.92 474.948 1624.38 473.478 1623.2 472.308C1622.02 471.138 1615.27 467.598 1615.27 467.598C1615.27 467.598 1612.04 463.778 1612.04 462.308C1612.04 460.838 1609.1 458.198 1609.1 458.198C1609.1 458.198 1605.28 454.668 1606.16 453.788C1607.63 452.759 1609.21 451.875 1610.86 451.148C1610.86 451.148 1611.45 448.498 1611.74 447.328C1612.03 446.158 1616.15 443.798 1616.15 443.798C1616.15 443.798 1617.91 450.558 1619.38 450.558C1620.85 450.558 1624.38 451.738 1624.67 452.618C1624.96 453.498 1634.08 457.028 1634.08 457.028L1638.19 462.308L1642.01 468.188C1642.01 468.188 1646.42 468.488 1649.36 468.488C1652.3 468.488 1653.47 468.778 1654.94 466.428C1656.41 464.078 1657.88 461.138 1658.76 460.548C1659.64 459.958 1661.41 460.848 1662.58 460.548C1663.75 460.248 1665.82 464.078 1667.29 465.838C1668.76 467.598 1674.29 469.368 1674.29 469.368C1675.93 468.97 1677.6 468.676 1679.29 468.488C1680.47 468.488 1684.29 468.778 1685.47 468.778C1686.97 468.535 1688.44 468.14 1689.87 467.598C1689.87 467.598 1689.87 464.078 1693.11 464.958C1696.35 465.838 1697.81 464.078 1698.69 464.078C1699.57 464.078 1702.8 462.898 1702.51 461.728C1702.22 460.558 1699.28 458.788 1703.98 458.788C1708.68 458.788 1711.03 460.848 1711.03 460.848C1711.03 460.848 1708.98 462.608 1711.33 463.198C1713.68 463.788 1716.91 468.198 1716.91 469.068C1716.91 469.938 1721.03 471.428 1721.03 471.428L1722.2 474.658L1721.61 481.118C1722.44 481.079 1723.27 481.318 1723.96 481.797C1724.65 482.276 1725.17 482.968 1725.43 483.768C1726.61 486.708 1728.37 487.288 1728.96 488.768C1729.55 490.248 1731.31 489.658 1733.07 488.768C1734.83 487.878 1737.19 486.768 1737.19 485.248C1737.19 483.728 1735.43 482.598 1735.72 481.428C1736.01 480.258 1734.84 474.668 1734.84 474.668C1734.84 474.668 1737.48 473.788 1738.36 474.958C1739.24 476.128 1742.18 478.778 1741.89 481.128C1741.6 483.478 1741.01 485.538 1742.48 488.478C1743.95 491.418 1746 494.358 1746.89 496.408C1746.93 496.516 1746.98 496.62 1747.04 496.718C1721.76 339.428 1610.24 210.998 1462.52 161.388ZM1530.73 373.268C1530.73 373.268 1531.91 377.968 1530.34 377.968C1528.77 377.968 1529.95 378.358 1526.03 379.148C1522.11 379.938 1517.8 378.358 1516.62 379.928C1516.2 380.576 1515.55 381.037 1514.81 381.212C1514.06 381.388 1513.27 381.264 1512.62 380.868C1512.37 380.715 1512.16 380.53 1511.97 380.318C1510.4 378.758 1506.09 377.188 1506.09 377.188C1506.09 377.188 1498.26 376.398 1494.73 377.188C1491.2 377.978 1491.2 379.188 1488.85 379.928C1486.5 380.668 1481.41 383.458 1479.45 385.808C1478.09 387.352 1476.51 388.674 1474.75 389.728L1471.22 392.858C1471.22 392.858 1464.95 391.288 1463.78 392.858C1462.37 394.345 1460.78 395.661 1459.07 396.778V401.088L1460.64 405.398L1464.56 406.968L1467.69 408.968C1467.69 408.968 1464.17 412.098 1467.69 412.488C1471.21 412.878 1474.75 413.668 1475.92 413.668C1477.09 413.668 1479.45 412.888 1482.19 414.448C1484.93 416.008 1486.5 414.838 1488.85 414.838C1491.2 414.838 1497.47 418.368 1497.47 418.368L1503.35 419.548C1503.35 419.548 1506.49 416.798 1507.66 417.198C1508.83 417.598 1511.97 414.448 1511.97 414.448C1511.97 414.448 1511.97 410.928 1513.54 410.528C1515.07 409.936 1516.52 409.146 1517.85 408.178L1519.02 414.838C1519.44 414.944 1519.84 415.139 1520.18 415.41C1520.53 415.68 1520.81 416.02 1521.02 416.408C1521.45 417.578 1520.63 421.508 1520.63 421.508C1520.63 421.508 1524.94 425.818 1524.55 427.778C1524.16 429.738 1521.81 433.258 1521.81 433.258V434.828C1521.81 435.998 1520.63 441.488 1520.63 441.488L1521.42 446.578L1519.42 453.638L1522.55 459.508L1518.63 460.298C1518.63 460.298 1517.46 456.768 1514.71 457.158C1511.96 457.548 1510.01 459.158 1509.23 457.158C1508.45 455.158 1511.58 456.378 1508.45 455.158C1505.32 453.938 1494.73 454.768 1494.73 454.768L1493.56 452.418L1488.56 451.998L1488.17 455.918L1485.82 461.798L1478.82 467.668L1476.82 471.588C1476.82 471.588 1473.29 475.508 1471.72 474.728C1470.15 473.948 1470.55 472.728 1468.98 473.158C1467.41 473.588 1466.24 471.158 1467.41 470.418C1468.58 469.678 1472.11 468.058 1472.9 466.888C1473.69 465.718 1470.9 466.888 1473.68 465.708C1475.7 464.792 1477.66 463.746 1479.56 462.578C1479.56 462.578 1475.64 459.438 1474.07 459.838C1472.5 460.238 1473.29 461.398 1469.76 460.228C1466.23 459.058 1464.67 456.698 1463.1 457.088C1461.67 457.348 1460.23 457.478 1458.79 457.478C1458.79 457.478 1454.87 458.658 1453.7 457.478L1450.46 454.348L1445.76 451.608H1440.28L1434.79 448.078L1429.7 449.258L1425.78 453.958L1423.78 459.048L1427.3 463.358L1429.3 468.458V471.998L1429.7 474.348L1420.7 473.568C1420.7 473.568 1416.79 469.648 1414.43 469.648C1412.07 469.648 1405.43 468.868 1405.03 467.298C1404.63 465.728 1403.03 462.988 1401.11 462.988C1399.19 462.988 1392.49 461.818 1392.49 461.818L1388.57 456.718L1380.74 456.328L1374.86 451.628L1364.67 450.448L1353.67 449.668L1352.1 444.968L1353.67 440.258C1353.67 440.258 1357.2 439.868 1357.98 438.698C1358.76 437.528 1359.98 435.948 1359.98 435.948C1359.98 435.948 1361.55 430.078 1359.98 429.288C1358.41 428.498 1357.63 428.118 1357.63 426.158C1357.43 424.163 1357.04 422.192 1356.45 420.278L1353.32 414.398L1351.75 412.398C1351.75 412.398 1350.57 414.748 1349.4 414.748C1348.23 414.748 1345.09 417.498 1345.09 417.498L1339.6 417.888L1330.6 419.058C1330.6 419.058 1322.37 420.628 1318.45 421.418C1314.53 422.208 1313.75 419.848 1310.62 421.018C1307.68 422.129 1304.67 423.047 1301.62 423.768C1299.62 424.158 1287.13 424.158 1287.13 424.158C1287.13 424.158 1289.87 427.288 1285.13 428.078C1280.39 428.868 1281.99 427.688 1279.25 428.858C1276.51 430.028 1273.76 429.638 1272.25 430.858C1271.22 431.568 1269.95 431.848 1268.72 431.638C1268.72 431.638 1264.02 428.898 1262.84 428.898C1261.66 428.898 1257.75 429.288 1257.75 429.288V425.368C1257.36 424.198 1255.01 422.238 1255.01 421.058C1255.17 419.476 1255.43 417.906 1255.79 416.358C1255.79 416.358 1257.36 418.358 1258.92 417.928L1263.23 416.748H1268.33C1269.88 416.627 1271.37 416.088 1272.64 415.188C1274.99 413.618 1273.03 412.438 1276.17 412.438C1279.31 412.438 1276.56 413.618 1279.3 412.438C1280.8 411.855 1282.15 410.915 1283.22 409.698C1283.22 409.698 1283.22 406.168 1285.22 405.778C1286.27 405.568 1285.97 405.698 1285.89 405.778C1285.98 405.778 1286.29 405.678 1287.18 405.428C1289.92 404.648 1289.92 404.248 1289.18 403.078C1288.44 401.908 1284.87 400.338 1286.43 398.378C1287.99 396.418 1288.43 395.238 1289.57 394.848C1290.71 394.458 1295.84 395.238 1295.84 395.238L1297.84 391.318L1299.84 387.008C1299.84 387.008 1299.44 383.878 1301.4 383.488C1303.74 383.208 1306.1 383.077 1308.46 383.098L1311.98 379.568C1311.98 379.568 1310.42 372.118 1311.59 371.338C1312.7 370.468 1313.88 369.682 1315.12 368.988C1316 368.539 1316.92 368.145 1317.86 367.808L1322.95 369.808L1324.95 372.948H1327.3C1327.3 372.948 1327.7 374.518 1328.87 374.118C1330.04 373.718 1331.22 371.768 1332.4 371.768C1333.58 371.768 1336.32 369.768 1336.32 369.768L1338.67 367.028L1342.98 363.108L1346.5 360.758L1349.25 361.938L1351.25 363.498C1352.32 365.259 1353.79 366.737 1355.56 367.808C1358.3 369.378 1357.91 372.908 1357.91 372.908C1357.91 372.908 1357.52 374.078 1358.69 376.038C1359.86 377.998 1365.35 378.788 1365.35 378.788C1365.35 378.788 1365.35 386.228 1366.53 386.228C1367.71 386.228 1372.01 386.618 1372.01 386.618L1381.01 389.368C1381.01 389.368 1387.28 394.848 1386.1 394.848C1384.92 394.848 1385.71 399.548 1385.71 399.548L1386.1 403.078L1386.49 405.078L1383.75 409.388L1380.61 408.208L1376.3 408.998L1373.95 408.208L1370.95 406.998L1367.82 409.348L1368.21 411.698L1370.95 413.998C1370.95 413.998 1374.08 415.178 1375.65 415.568C1377.22 415.958 1383.88 418.308 1383.88 418.308L1387.41 418.698C1387.82 418.1 1388.08 417.416 1388.19 416.698C1388.58 415.138 1388.97 412.788 1388.97 412.788C1388.97 412.788 1390.97 411.608 1391.33 410.428C1391.69 409.248 1395.64 406.118 1395.64 406.118L1396.81 403.378L1398.81 400.638C1397.49 399.755 1396.31 398.698 1395.28 397.498C1394.11 395.938 1392.54 393.188 1393.72 392.408C1394.61 391.838 1395.52 391.318 1396.46 390.838L1397.64 388.488C1397.64 388.488 1395.28 385.358 1394.11 384.958C1392.94 384.558 1390.97 384.568 1390.19 382.958C1388.9 381.024 1386.94 379.63 1384.7 379.038L1382.75 378.648L1378.83 374.338L1376.08 372.338C1376.08 372.338 1376.48 372.338 1374.91 370.768C1373.55 369.195 1372.37 367.485 1371.38 365.668L1367.46 363.318C1367.07 361.775 1366.8 360.203 1366.68 358.618C1366.71 358.125 1366.88 357.65 1367.15 357.238C1367.43 356.827 1367.8 356.493 1368.25 356.268L1371.38 354.268L1376.48 357.008C1376.48 357.008 1377.65 361.718 1381.18 363.278C1384.71 364.838 1392.93 367.588 1392.93 367.588C1392.93 367.588 1392.54 370.338 1393.72 370.338C1394.9 370.338 1401.55 376.208 1403.9 376.608C1406.25 377.008 1413.96 377.998 1413.96 377.998L1414.75 389.368L1418.27 393.678L1421.02 394.068C1421.02 394.068 1422.58 399.548 1422.19 401.068C1421.8 402.588 1427.28 405.768 1427.28 405.768L1426.5 408.908L1428.5 410.908V413.648L1431.24 415.218L1431.64 418.738C1431.64 418.738 1432.81 424.228 1434.77 424.618C1436.73 425.008 1437.51 424.228 1440.65 423.048C1443.79 421.868 1442.65 421.878 1442.65 420.308C1442.65 418.738 1439.9 418.308 1441.86 415.218C1443.82 412.128 1443.04 409.728 1443.04 408.158C1443.04 406.588 1443.82 405.808 1442.25 404.238C1440.68 402.668 1443.04 401.108 1439.51 399.148C1435.98 397.188 1436.38 398.758 1435.99 397.148C1435.6 395.538 1435.2 394.018 1435.2 394.018C1435.2 394.018 1430.5 391.268 1431.28 389.318C1432.06 387.368 1431.28 386.178 1434.03 385.398C1436.78 384.618 1438.34 383.048 1444.21 383.828C1450.08 384.608 1452.05 383.438 1454.79 384.608C1457.53 385.778 1461.45 384.608 1461.45 384.608C1462.31 384.179 1463.24 383.915 1464.2 383.828C1465.37 383.828 1468.12 381.088 1468.12 381.088L1465.76 377.168L1463.02 371.288L1460.67 364.628L1461.45 357.628C1461.45 357.628 1467.33 353.708 1468.12 349.788C1468.91 345.868 1468.51 344.698 1469.29 342.788C1470.07 340.878 1470.08 338.078 1471.64 338.078C1473.2 338.078 1476.34 341.218 1476.34 341.218L1485.75 344.348L1490.06 343.568C1490.92 342.726 1491.83 341.941 1492.8 341.218C1494.37 340.038 1501.03 336.908 1501.42 335.728C1501.81 334.548 1505.73 334.168 1505.73 334.168L1508.87 338.478L1504.95 340.828C1504.74 341.889 1504.19 342.852 1503.38 343.568L1502.21 344.348C1502.21 344.348 1497.9 347.098 1501.42 348.268C1503.32 348.87 1505.16 349.657 1506.91 350.618C1506.91 350.618 1505.34 352.618 1506.52 352.968C1507.7 353.318 1507.69 352.578 1510.04 353.368C1512.39 354.158 1512.39 352.968 1514.74 354.928C1517.09 356.888 1518.27 358.458 1521.8 358.848C1525.33 359.238 1527.28 359.238 1529.24 360.848C1530.49 361.797 1531.68 362.848 1532.77 363.988C1534.34 365.548 1534.34 369.858 1534.34 369.858L1530.73 373.268ZM1607.14 388.548C1607.14 389.728 1605.57 393.648 1605.57 393.648C1605.57 393.648 1602.04 395.998 1600.46 395.998C1599.14 395.949 1597.83 395.816 1596.54 395.598C1595.35 395.625 1594.17 395.759 1593.01 395.998C1591.01 396.388 1593.4 395.598 1589.09 395.598C1584.78 395.598 1583.61 394.428 1583.61 392.078C1583.61 389.728 1588.31 388.158 1583.61 386.198C1578.91 384.238 1573.03 384.628 1573.03 382.278C1573.03 379.928 1576.95 375.228 1575.77 374.448C1574.59 373.668 1581.65 373.658 1582.04 372.448C1582.43 371.238 1582.43 371.268 1581.65 369.308C1580.87 367.348 1580.08 366.568 1578.12 366.958C1576.16 367.348 1575.38 368.528 1574.6 367.348C1573.82 366.168 1574.6 365.778 1573.42 364.608C1572.24 363.438 1568.33 364.218 1567.54 362.608C1566.75 360.998 1568.72 359.868 1565.98 357.908C1564.14 356.64 1562.17 355.586 1560.1 354.768C1560.1 354.768 1559.71 355.948 1556.96 354.768C1554.21 353.588 1556.57 350.858 1555.4 347.768C1554.23 344.678 1555 343.458 1553.04 343.068C1551.08 342.678 1551.04 343.848 1548.34 341.498C1547.25 340.479 1546.07 339.562 1544.82 338.758C1545.21 336.758 1549.52 332.878 1549.52 332.878C1549.89 331.517 1550.42 330.202 1551.09 328.958C1551.87 327.788 1555 322.298 1554.61 321.128C1554.22 319.958 1553.04 318.378 1554.22 318.378C1555.4 318.378 1562.45 314.858 1562.45 314.858L1564.8 312.858H1571.07C1571.98 312.661 1572.92 312.701 1573.81 312.974C1574.7 313.247 1575.51 313.744 1576.16 314.418C1577.58 315.904 1578.41 317.854 1578.51 319.908C1578.51 319.908 1577.73 323.038 1578.51 324.218C1579.29 325.398 1579.3 325.788 1580.08 326.958L1583.22 331.668L1582.04 335.188C1582.04 335.188 1580.47 337.538 1578.51 337.928C1576.82 338.196 1575.12 338.33 1573.42 338.328L1571.85 340.328C1572.38 341.175 1572.77 342.1 1573.03 343.068C1573.42 344.638 1576.16 344.638 1575.77 346.198C1575.38 347.758 1575.77 348.548 1578.51 348.948C1581.25 349.348 1580.08 346.588 1583.22 349.338C1586.36 352.088 1589.46 352.468 1589.46 353.998C1589.45 354.925 1589.59 355.848 1589.85 356.738C1589.95 357.091 1590.16 357.403 1590.45 357.629C1590.73 357.855 1591.09 357.984 1591.46 357.998C1592.3 357.937 1593.11 357.666 1593.82 357.208L1596.17 354.858L1601.65 358.388L1600.09 361.518L1598.52 363.088C1598.52 363.088 1595.38 363.478 1597.34 365.828C1598.22 367.065 1599.45 368.02 1600.87 368.578L1605.96 371.318C1605.96 371.318 1607.14 374.848 1605.96 374.458C1604.78 374.068 1607.96 380.328 1607.96 380.328L1606.39 383.858C1606.73 385.403 1606.99 386.97 1607.14 388.548V388.548Z" fill="#025051"/>
<path d="M1056.35 296.478L1056.19 297.768C1056.12 297.331 1056.17 296.884 1056.35 296.478V296.478Z" fill="#EAF8F4"/>
<path d="M1322.64 164.127C1322.64 164.127 1312.45 167.267 1309.32 168.827C1306.19 170.387 1299.92 172.747 1299.92 172.747L1289.73 179.747L1282.67 186.807C1282.67 186.807 1258.38 196.997 1256.03 196.997C1253.68 196.997 1240.36 204.097 1240.36 204.097L1223.12 212.717C1220.35 214.314 1217.73 216.148 1215.28 218.197C1215.28 218.197 1202.74 218.987 1198.04 220.547C1193.34 222.107 1188.63 225.997 1182.36 229.177C1176.09 232.357 1174.53 233.877 1165.91 234.657C1157.29 235.437 1155.72 240.927 1155.72 240.927L1150.23 237.797L1154.15 231.527L1154.94 223.687L1162.77 213.497L1165.91 212.717C1165.91 212.717 1170.61 211.927 1173.74 204.097C1176.87 196.267 1178.46 200.997 1178.46 200.997L1183.16 197.077C1187.86 193.167 1186.29 194.727 1186.29 194.727L1195.7 192.377L1204.32 186.897C1204.32 186.897 1208.24 183.757 1208.24 181.407C1208.24 179.057 1210.59 180.627 1214.51 179.057C1218.43 177.487 1226.26 171.217 1223.91 167.307C1221.56 163.397 1230.18 158.677 1230.18 158.677C1227.12 157.179 1223.98 155.873 1220.77 154.767C1216.07 153.197 1215.29 157.117 1212.94 159.467C1210.59 161.817 1205.1 164.167 1201.94 165.737C1198.78 167.307 1197.23 172.007 1194.1 175.927C1190.97 179.847 1189.4 176.707 1184.7 176.707C1180 176.707 1179.21 182.997 1177.64 186.897C1176.07 190.797 1165.1 195.517 1162.75 195.517C1160.4 195.517 1153.35 200.997 1153.35 200.997C1153.35 200.997 1136.11 207.267 1132.19 207.267C1130.07 207.219 1127.95 207.485 1125.92 208.057L1123.57 211.187C1121.22 214.327 1114.16 217.457 1113.38 220.587C1112.6 223.717 1118.08 223.727 1118.08 223.727V229.217C1116.16 231.011 1114.06 232.587 1111.81 233.917C1107.9 236.267 1101.63 237.837 1100.81 242.537C1099.99 247.237 1093.81 250.367 1089.06 253.537C1084.31 256.707 1082.79 263.727 1082.79 263.727C1082.79 263.727 1082.79 271.557 1079.65 274.727C1076.51 277.897 1079.65 274.727 1071.82 276.297C1063.99 277.867 1070.25 280.207 1070.25 284.917C1070.25 289.627 1067.9 289.617 1061.63 291.187C1057.97 292.097 1056.71 293.547 1056.3 294.597L1056.93 289.597C1056.93 289.597 1060.84 279.407 1060.06 275.487C1059.28 271.567 1060.06 275.487 1062.41 273.137C1064.76 270.787 1059.28 267.657 1059.28 267.657H1050.66C1045.17 267.657 1049.87 270.007 1048.31 274.657C1046.75 279.307 1047.52 283.277 1042.04 285.657C1036.56 288.037 1040.46 292.707 1040.46 295.847C1040.46 298.987 1029.46 299.767 1024.79 301.327C1020.12 302.887 1020.08 304.467 1017.73 305.247C1015.15 305.931 1012.53 306.455 1009.9 306.817C1009.9 306.817 1005.98 313.087 1005.19 315.437C1004.4 317.787 987.945 318.567 987.945 318.567C987.945 318.567 978.545 324.837 974.625 326.407C974.032 326.599 973.406 326.667 972.785 326.607C1040.5 225.807 1150.18 155.607 1276.79 140.917L1280.24 142.247C1280.72 143.769 1280.98 145.351 1281.03 146.947C1281.03 149.297 1290.43 148.517 1290.43 148.517L1297.43 153.217L1311.54 156.347L1322.64 164.127Z" fill="#025051"/>
<path d="M1023.28 753.908C1020.93 760.178 1014.66 765.658 1014.66 765.658C1014.66 765.658 1011.52 776.658 1010.74 782.118C1009.96 787.578 1008.39 801.708 1008.39 805.628C1008.39 809.548 1010.74 815.038 1010.74 819.738C1010.74 824.438 1012.31 830.738 1010.74 833.058C1009.49 834.918 1004.31 836.788 999.076 841.788C934.595 765.213 899.303 668.285 899.456 568.178C899.449 548.471 900.802 528.788 903.506 509.268L904.936 516.458L907.296 521.938V530.558L909.646 539.998L915.126 549.398V561.158L919.046 567.418L917.456 575.998C917.456 575.998 915.106 585.398 920.596 587.748C926.086 590.098 931.596 597.938 931.596 597.938V604.998L938.596 611.268L945.656 625.378L949.566 629.298L944.866 640.298L947.256 644.998L945.696 662.238L962.936 677.908C964.41 680.754 966.267 683.385 968.456 685.728C971.596 688.858 973.946 685.728 978.646 688.858C983.346 691.988 977.866 692.778 983.346 695.918C988.826 699.058 986.486 691.998 994.346 701.398C1002.21 710.798 999.056 705.318 1002.19 710.808C1005.32 716.298 1003.76 716.288 1005.32 720.208C1006.88 724.128 1010.81 724.128 1013.16 727.208C1015.51 730.288 1023.35 737.398 1023.35 737.398C1023.35 737.398 1025.63 747.638 1023.28 753.908Z" fill="#025051"/>
<g opacity="0.06">
<path opacity="0.06" d="M1332.22 989.468L1311.43 989.718C1304.51 989.538 1297.58 989.178 1290.63 988.918C1288.89 988.918 1287.17 988.668 1285.44 988.518L1280.25 988.008L1269.87 987.008C1269 986.918 1268.14 986.848 1267.27 986.738L1264.69 986.358L1259.53 985.598L1249.2 984.068L1246.61 983.688L1244.05 983.178L1238.93 982.178L1228.67 980.088L1226.11 979.568C1225.26 979.388 1224.42 979.148 1223.57 978.938L1218.51 977.628L1208.37 974.998C1204.96 974.198 1201.67 972.998 1198.32 971.998L1188.32 968.888C1184.95 967.888 1181.72 966.598 1178.42 965.428L1168.56 961.818C1089.11 930.688 1020.89 876.333 972.807 805.846C924.721 735.359 899 652.014 899 566.688C899 481.361 924.721 398.016 972.807 327.529C1020.89 257.042 1089.11 202.687 1168.56 171.558L1178.42 167.958C1181.72 166.788 1184.95 165.458 1188.32 164.498L1198.32 161.378C1201.67 160.378 1204.96 159.208 1208.32 158.378L1218.46 155.808L1223.53 154.498C1224.38 154.288 1225.21 154.048 1226.07 153.868L1228.63 153.338L1238.88 151.258L1244.01 150.258L1246.57 149.748L1249.15 149.368L1259.46 147.838L1264.62 147.078L1267.2 146.698C1268.06 146.588 1268.93 146.528 1269.8 146.438L1280.18 145.438L1285.37 144.938C1287.1 144.778 1288.82 144.568 1290.56 144.538C1297.51 144.278 1304.44 143.918 1311.36 143.738C1318.3 143.798 1325.23 143.884 1332.15 143.998L1311.46 145.298C1304.58 145.968 1297.72 146.808 1290.87 147.548C1289.16 147.708 1287.46 148.008 1285.75 148.268L1280.65 149.078L1270.46 150.658C1269.61 150.798 1268.76 150.918 1267.92 151.078L1265.39 151.608L1260.33 152.668L1250.24 154.788L1247.72 155.318L1245.22 155.968L1240.22 157.278L1230.22 159.858L1227.73 160.498C1226.9 160.718 1226.08 160.998 1225.26 161.248L1220.46 162.778L1210.64 165.778C1207.34 166.778 1204.16 168.028 1200.94 169.178L1191.29 172.718C1188.05 173.818 1184.94 175.278 1181.78 176.578L1172.33 180.578C1122.32 202.654 1077.01 234.127 1038.88 273.288L1025.03 288.218C1020.67 293.418 1016.25 298.568 1011.95 303.798C1007.85 309.208 1003.63 314.518 999.595 319.968L993.795 328.308L990.885 332.478C989.87 333.835 988.926 335.243 988.055 336.698C943.274 405.048 919.42 484.984 919.42 566.698C919.42 648.411 943.274 728.347 988.055 796.698C988.925 798.158 989.925 799.518 990.885 800.918L993.795 805.088L999.595 813.428C1003.6 818.878 1007.85 824.188 1011.94 829.598C1016.25 834.838 1020.67 839.978 1025.03 845.178L1038.88 860.118C1077.02 899.277 1122.33 930.75 1172.34 952.828L1181.79 956.828C1184.95 958.138 1188.06 959.598 1191.3 960.698L1200.95 964.228C1204.18 965.378 1207.36 966.688 1210.65 967.628L1220.47 970.628L1225.39 972.158C1226.21 972.408 1227.02 972.688 1227.85 972.908L1230.34 973.548L1240.34 976.128L1245.34 977.438L1247.84 978.088L1250.36 978.618L1260.46 980.728L1265.52 981.788L1268.04 982.318C1268.89 982.478 1269.74 982.598 1270.59 982.728L1280.79 984.338L1285.9 985.148C1287.61 985.408 1289.31 985.718 1291.02 985.878C1297.87 986.618 1304.73 987.458 1311.61 988.118L1332.22 989.468Z" fill="black"/>
</g>
<path d="M1302.27 299.636C1302.27 307.909 1291.64 315 1291.64 315C1291.64 315 1281 307.909 1281 299.636C1281 296.815 1282.12 294.11 1284.12 292.115C1286.11 290.121 1288.82 289 1291.64 289C1294.46 289 1297.16 290.121 1299.16 292.115C1301.15 294.11 1302.27 296.815 1302.27 299.636Z" fill="#50A678" stroke="#50A678" stroke-width="2" stroke-linecap="round" stroke-linejoin="round"/>
<path d="M1291.64 303.182C1293.59 303.182 1295.18 301.595 1295.18 299.637C1295.18 297.678 1293.59 296.091 1291.64 296.091C1289.68 296.091 1288.09 297.678 1288.09 299.637C1288.09 301.595 1289.68 303.182 1291.64 303.182Z" fill="white"/>
<path d="M1315.27 331.636C1315.27 339.909 1304.64 347 1304.64 347C1304.64 347 1294 339.909 1294 331.636C1294 328.815 1295.12 326.11 1297.12 324.115C1299.11 322.121 1301.82 321 1304.64 321C1307.46 321 1310.16 322.121 1312.16 324.115C1314.15 326.11 1315.27 328.815 1315.27 331.636Z" fill="#50A678" stroke="#50A678" stroke-width="2" stroke-linecap="round" stroke-linejoin="round"/>
<path d="M1304.64 335.182C1306.59 335.182 1308.18 333.595 1308.18 331.637C1308.18 329.678 1306.59 328.091 1304.64 328.091C1302.68 328.091 1301.09 329.678 1301.09 331.637C1301.09 333.595 1302.68 335.182 1304.64 335.182Z" fill="white"/>
<path d="M1276.27 370.636C1276.27 378.909 1265.64 386 1265.64 386C1265.64 386 1255 378.909 1255 370.636C1255 367.815 1256.12 365.11 1258.12 363.115C1260.11 361.121 1262.82 360 1265.64 360C1268.46 360 1271.16 361.121 1273.16 363.115C1275.15 365.11 1276.27 367.815 1276.27 370.636Z" fill="#50A678" stroke="#50A678" stroke-width="2" stroke-linecap="round" stroke-linejoin="round"/>
<path d="M1265.64 374.182C1267.59 374.182 1269.18 372.595 1269.18 370.637C1269.18 368.678 1267.59 367.091 1265.64 367.091C1263.68 367.091 1262.09 368.678 1262.09 370.637C1262.09 372.595 1263.68 374.182 1265.64 374.182Z" fill="white"/>
<path d="M1242.27 383.636C1242.27 391.909 1231.64 399 1231.64 399C1231.64 399 1221 391.909 1221 383.636C1221 380.815 1222.12 378.11 1224.12 376.115C1226.11 374.121 1228.82 373 1231.64 373C1234.46 373 1237.16 374.121 1239.16 376.115C1241.15 378.11 1242.27 380.815 1242.27 383.636Z" fill="#50A678" stroke="#50A678" stroke-width="2" stroke-linecap="round" stroke-linejoin="round"/>
<path d="M1231.64 387.182C1233.59 387.182 1235.18 385.595 1235.18 383.637C1235.18 381.678 1233.59 380.091 1231.64 380.091C1229.68 380.091 1228.09 381.678 1228.09 383.637C1228.09 385.595 1229.68 387.182 1231.64 387.182Z" fill="white"/>
<path d="M1378.27 353.636C1378.27 361.909 1367.64 369 1367.64 369C1367.64 369 1357 361.909 1357 353.636C1357 350.815 1358.12 348.11 1360.12 346.115C1362.11 344.121 1364.82 343 1367.64 343C1370.46 343 1373.16 344.121 1375.16 346.115C1377.15 348.11 1378.27 350.815 1378.27 353.636Z" fill="#50A678" stroke="#50A678" stroke-width="2" stroke-linecap="round" stroke-linejoin="round"/>
<path d="M1367.64 357.182C1369.59 357.182 1371.18 355.595 1371.18 353.637C1371.18 351.678 1369.59 350.091 1367.64 350.091C1365.68 350.091 1364.09 351.678 1364.09 353.637C1364.09 355.595 1365.68 357.182 1367.64 357.182Z" fill="white"/>
<path d="M1387.27 316.636C1387.27 324.909 1376.64 332 1376.64 332C1376.64 332 1366 324.909 1366 316.636C1366 313.815 1367.12 311.11 1369.12 309.115C1371.11 307.121 1373.82 306 1376.64 306C1379.46 306 1382.16 307.121 1384.16 309.115C1386.15 311.11 1387.27 313.815 1387.27 316.636Z" fill="#50A678" stroke="#50A678" stroke-width="2" stroke-linecap="round" stroke-linejoin="round"/>
<path d="M1376.64 320.182C1378.59 320.182 1380.18 318.595 1380.18 316.637C1380.18 314.678 1378.59 313.091 1376.64 313.091C1374.68 313.091 1373.09 314.678 1373.09 316.637C1373.09 318.595 1374.68 320.182 1376.64 320.182Z" fill="white"/>
<path d="M1357.27 308.636C1357.27 316.909 1346.64 324 1346.64 324C1346.64 324 1336 316.909 1336 308.636C1336 305.815 1337.12 303.11 1339.12 301.115C1341.11 299.121 1343.82 298 1346.64 298C1349.46 298 1352.16 299.121 1354.16 301.115C1356.15 303.11 1357.27 305.815 1357.27 308.636Z" fill="#50A678" stroke="#50A678" stroke-width="2" stroke-linecap="round" stroke-linejoin="round"/>
<path d="M1346.64 312.182C1348.59 312.182 1350.18 310.595 1350.18 308.637C1350.18 306.678 1348.59 305.091 1346.64 305.091C1344.68 305.091 1343.09 306.678 1343.09 308.637C1343.09 310.595 1344.68 312.182 1346.64 312.182Z" fill="white"/>
<path d="M1348.27 338.636C1348.27 346.909 1337.64 354 1337.64 354C1337.64 354 1327 346.909 1327 338.636C1327 335.815 1328.12 333.11 1330.12 331.115C1332.11 329.121 1334.82 328 1337.64 328C1340.46 328 1343.16 329.121 1345.16 331.115C1347.15 333.11 1348.27 335.815 1348.27 338.636Z" fill="#50A678" stroke="#50A678" stroke-width="2" stroke-linecap="round" stroke-linejoin="round"/>
<path d="M1337.64 342.182C1339.59 342.182 1341.18 340.595 1341.18 338.637C1341.18 336.678 1339.59 335.091 1337.64 335.091C1335.68 335.091 1334.09 336.678 1334.09 338.637C1334.09 340.595 1335.68 342.182 1337.64 342.182Z" fill="white"/>
<path d="M1425.27 316.636C1425.27 324.909 1414.64 332 1414.64 332C1414.64 332 1404 324.909 1404 316.636C1404 313.815 1405.12 311.11 1407.12 309.115C1409.11 307.121 1411.82 306 1414.64 306C1417.46 306 1420.16 307.121 1422.16 309.115C1424.15 311.11 1425.27 313.815 1425.27 316.636Z" fill="#50A678" stroke="#50A678" stroke-width="2" stroke-linecap="round" stroke-linejoin="round"/>
<path d="M1414.64 320.182C1416.59 320.182 1418.18 318.595 1418.18 316.637C1418.18 314.678 1416.59 313.091 1414.64 313.091C1412.68 313.091 1411.09 314.678 1411.09 316.637C1411.09 318.595 1412.68 320.182 1414.64 320.182Z" fill="white"/>
<path d="M1491.27 223.636C1491.27 231.909 1480.64 239 1480.64 239C1480.64 239 1470 231.909 1470 223.636C1470 220.815 1471.12 218.11 1473.12 216.115C1475.11 214.121 1477.82 213 1480.64 213C1483.46 213 1486.16 214.121 1488.16 216.115C1490.15 218.11 1491.27 220.815 1491.27 223.636Z" fill="#50A678" stroke="#50A678" stroke-width="2" stroke-linecap="round" stroke-linejoin="round"/>
<path d="M1480.64 227.182C1482.59 227.182 1484.18 225.595 1484.18 223.637C1484.18 221.678 1482.59 220.091 1480.64 220.091C1478.68 220.091 1477.09 221.678 1477.09 223.637C1477.09 225.595 1478.68 227.182 1480.64 227.182Z" fill="white"/>
<path d="M1348.27 653.636C1348.27 661.909 1337.64 669 1337.64 669C1337.64 669 1327 661.909 1327 653.636C1327 650.815 1328.12 648.11 1330.12 646.115C1332.11 644.121 1334.82 643 1337.64 643C1340.46 643 1343.16 644.121 1345.16 646.115C1347.15 648.11 1348.27 650.815 1348.27 653.636Z" fill="#50A678" stroke="#50A678" stroke-width="2" stroke-linecap="round" stroke-linejoin="round"/>
<path d="M1337.64 657.182C1339.59 657.182 1341.18 655.595 1341.18 653.637C1341.18 651.678 1339.59 650.091 1337.64 650.091C1335.68 650.091 1334.09 651.678 1334.09 653.637C1334.09 655.595 1335.68 657.182 1337.64 657.182Z" fill="white"/>
<path d="M1374.27 246.636C1374.27 254.909 1363.64 262 1363.64 262C1363.64 262 1353 254.909 1353 246.636C1353 243.815 1354.12 241.11 1356.12 239.115C1358.11 237.121 1360.82 236 1363.64 236C1366.46 236 1369.16 237.121 1371.16 239.115C1373.15 241.11 1374.27 243.815 1374.27 246.636Z" fill="#50A678" stroke="#50A678" stroke-width="2" stroke-linecap="round" stroke-linejoin="round"/>
<path d="M1363.64 250.182C1365.59 250.182 1367.18 248.595 1367.18 246.637C1367.18 244.678 1365.59 243.091 1363.64 243.091C1361.68 243.091 1360.09 244.678 1360.09 246.637C1360.09 248.595 1361.68 250.182 1363.64 250.182Z" fill="white"/>
<path d="M1348.27 239.636C1348.27 247.909 1337.64 255 1337.64 255C1337.64 255 1327 247.909 1327 239.636C1327 236.815 1328.12 234.11 1330.12 232.115C1332.11 230.121 1334.82 229 1337.64 229C1340.46 229 1343.16 230.121 1345.16 232.115C1347.15 234.11 1348.27 236.815 1348.27 239.636Z" fill="#50A678" stroke="#50A678" stroke-width="2" stroke-linecap="round" stroke-linejoin="round"/>
<path d="M1337.64 243.182C1339.59 243.182 1341.18 241.595 1341.18 239.637C1341.18 237.678 1339.59 236.091 1337.64 236.091C1335.68 236.091 1334.09 237.678 1334.09 239.637C1334.09 241.595 1335.68 243.182 1337.64 243.182Z" fill="white"/>
<path d="M1482.27 804.636C1482.27 812.909 1471.64 820 1471.64 820C1471.64 820 1461 812.909 1461 804.636C1461 801.815 1462.12 799.11 1464.12 797.115C1466.11 795.121 1468.82 794 1471.64 794C1474.46 794 1477.16 795.121 1479.16 797.115C1481.15 799.11 1482.27 801.815 1482.27 804.636Z" fill="#50A678" stroke="#50A678" stroke-width="2" stroke-linecap="round" stroke-linejoin="round"/>
<path d="M1471.64 808.182C1473.59 808.182 1475.18 806.595 1475.18 804.637C1475.18 802.678 1473.59 801.091 1471.64 801.091C1469.68 801.091 1468.09 802.678 1468.09 804.637C1468.09 806.595 1469.68 808.182 1471.64 808.182Z" fill="white"/>
<path d="M1572.27 702.636C1572.27 710.909 1561.64 718 1561.64 718C1561.64 718 1551 710.909 1551 702.636C1551 699.815 1552.12 697.11 1554.12 695.115C1556.11 693.121 1558.82 692 1561.64 692C1564.46 692 1567.16 693.121 1569.16 695.115C1571.15 697.11 1572.27 699.815 1572.27 702.636Z" fill="#50A678" stroke="#50A678" stroke-width="2" stroke-linecap="round" stroke-linejoin="round"/>
<path d="M1561.64 706.182C1563.59 706.182 1565.18 704.595 1565.18 702.637C1565.18 700.678 1563.59 699.091 1561.64 699.091C1559.68 699.091 1558.09 700.678 1558.09 702.637C1558.09 704.595 1559.68 706.182 1561.64 706.182Z" fill="white"/>
<path d="M1572.27 741.636C1572.27 749.909 1561.64 757 1561.64 757C1561.64 757 1551 749.909 1551 741.636C1551 738.815 1552.12 736.11 1554.12 734.115C1556.11 732.121 1558.82 731 1561.64 731C1564.46 731 1567.16 732.121 1569.16 734.115C1571.15 736.11 1572.27 738.815 1572.27 741.636Z" fill="#50A678" stroke="#50A678" stroke-width="2" stroke-linecap="round" stroke-linejoin="round"/>
<path d="M1561.64 745.182C1563.59 745.182 1565.18 743.595 1565.18 741.637C1565.18 739.678 1563.59 738.091 1561.64 738.091C1559.68 738.091 1558.09 739.678 1558.09 741.637C1558.09 743.595 1559.68 745.182 1561.64 745.182Z" fill="white"/>
<path d="M1529.27 702.636C1529.27 710.909 1518.64 718 1518.64 718C1518.64 718 1508 710.909 1508 702.636C1508 699.815 1509.12 697.11 1511.12 695.115C1513.11 693.121 1515.82 692 1518.64 692C1521.46 692 1524.16 693.121 1526.16 695.115C1528.15 697.11 1529.27 699.815 1529.27 702.636Z" fill="#50A678" stroke="#50A678" stroke-width="2" stroke-linecap="round" stroke-linejoin="round"/>
<path d="M1518.64 706.182C1520.59 706.182 1522.18 704.595 1522.18 702.637C1522.18 700.678 1520.59 699.091 1518.64 699.091C1516.68 699.091 1515.09 700.678 1515.09 702.637C1515.09 704.595 1516.68 706.182 1518.64 706.182Z" fill="white"/>
<path d="M1533.27 742.636C1533.27 750.909 1522.64 758 1522.64 758C1522.64 758 1512 750.909 1512 742.636C1512 739.815 1513.12 737.11 1515.12 735.115C1517.11 733.121 1519.82 732 1522.64 732C1525.46 732 1528.16 733.121 1530.16 735.115C1532.15 737.11 1533.27 739.815 1533.27 742.636Z" fill="#50A678" stroke="#50A678" stroke-width="2" stroke-linecap="round" stroke-linejoin="round"/>
<path d="M1522.64 746.182C1524.59 746.182 1526.18 744.595 1526.18 742.637C1526.18 740.678 1524.59 739.091 1522.64 739.091C1520.68 739.091 1519.09 740.678 1519.09 742.637C1519.09 744.595 1520.68 746.182 1522.64 746.182Z" fill="white"/>
<path d="M1499.27 766.636C1499.27 774.909 1488.64 782 1488.64 782C1488.64 782 1478 774.909 1478 766.636C1478 763.815 1479.12 761.11 1481.12 759.115C1483.11 757.121 1485.82 756 1488.64 756C1491.46 756 1494.16 757.121 1496.16 759.115C1498.15 761.11 1499.27 763.815 1499.27 766.636Z" fill="#50A678" stroke="#50A678" stroke-width="2" stroke-linecap="round" stroke-linejoin="round"/>
<path d="M1488.64 770.182C1490.59 770.182 1492.18 768.595 1492.18 766.637C1492.18 764.678 1490.59 763.091 1488.64 763.091C1486.68 763.091 1485.09 764.678 1485.09 766.637C1485.09 768.595 1486.68 770.182 1488.64 770.182Z" fill="white"/>
<path d="M1555.27 781.636C1555.27 789.909 1544.64 797 1544.64 797C1544.64 797 1534 789.909 1534 781.636C1534 778.815 1535.12 776.11 1537.12 774.115C1539.11 772.121 1541.82 771 1544.64 771C1547.46 771 1550.16 772.121 1552.16 774.115C1554.15 776.11 1555.27 778.815 1555.27 781.636Z" fill="#50A678" stroke="#50A678" stroke-width="2" stroke-linecap="round" stroke-linejoin="round"/>
<path d="M1544.64 785.182C1546.59 785.182 1548.18 783.595 1548.18 781.637C1548.18 779.678 1546.59 778.091 1544.64 778.091C1542.68 778.091 1541.09 779.678 1541.09 781.637C1541.09 783.595 1542.68 785.182 1544.64 785.182Z" fill="white"/>
</g>
</svg>
