<svg width="1920" height="1795" viewBox="0 0 1920 1795" fill="none" xmlns="http://www.w3.org/2000/svg">
<mask id="mask0_338_202" style="mask-type:alpha" maskUnits="userSpaceOnUse" x="-893" y="0" width="3957" height="1795">
<path d="M36.6082 1792.38C21.4202 1786.7 17.1722 1781.14 20.7798 1771.65C22.4511 1767.25 25.6614 1763.66 27.9138 1763.66C30.1663 1763.66 40.0259 1768.84 49.8242 1775.17C59.6224 1781.5 71.6037 1788.12 76.4491 1789.88L85.2589 1793.08L74.4207 1793.31C68.4596 1793.44 59.7142 1794.11 54.9865 1794.79C50.2588 1795.48 41.9885 1794.39 36.6082 1792.38ZM2.1366 1763.21C-0.723145 1761.61 -5.49084 1761.08 -8.45831 1762.02C-12.1953 1763.2 -15.0809 1761.44 -17.8463 1756.27C-20.0422 1752.17 -23.9781 1748.08 -26.5925 1747.18C-32.5911 1745.12 -45.1651 1724.75 -52.1639 1705.76C-55.6987 1696.17 -60.4523 1689.54 -66.0954 1686.33C-76.1093 1680.64 -76.8261 1678.06 -69.0755 1675.6C-60.2083 1672.78 -58.5585 1657.16 -66.0224 1646.68C-69.5847 1641.68 -71.4594 1635.8 -70.386 1633.01C-69.1195 1629.71 -72.6151 1623.92 -81.0793 1615.3C-91.7631 1604.41 -93.7388 1600.46 -94.2166 1588.99C-94.5259 1581.57 -96.3339 1573.62 -98.2343 1571.33C-100.628 1568.45 -101.116 1558.1 -99.8239 1537.63C-98.4232 1515.46 -99.2392 1501.77 -103.099 1482.69C-108.831 1454.36 -111.759 1401.58 -110.27 1353.42C-109.952 1343.14 -111.284 1329.04 -113.23 1322.07C-117.968 1305.11 -139.771 1283.69 -166.716 1269.54C-185.989 1259.41 -188.699 1256.82 -196.232 1241.27C-200.795 1231.85 -209.514 1217.77 -215.609 1209.99C-221.704 1202.2 -228.331 1190.77 -230.335 1184.58C-236.696 1164.94 -247.91 1145.21 -255.554 1140.2C-259.622 1137.53 -264.261 1130.61 -265.865 1124.8C-268.458 1115.41 -267.774 1112.79 -259.655 1100.99C-250.852 1088.2 -250.748 1087.68 -256.697 1086.12C-271.316 1082.3 -265.168 1062.77 -238.928 1029.66C-221.488 1007.66 -216.379 990.902 -221.21 971.539C-223.051 964.16 -224.699 956.442 -224.873 954.387C-225.047 952.332 -226.358 950.65 -227.786 950.65C-229.214 950.65 -228.94 947.954 -227.176 944.659C-224.458 939.582 -225.144 938.133 -231.676 935.158C-241.195 930.822 -255.569 935.108 -255.625 942.3C-255.691 950.924 -259.485 951.559 -271.994 945.041C-278.693 941.551 -285.652 938.694 -287.457 938.694C-289.263 938.694 -296.285 933.919 -303.062 928.083C-309.839 922.247 -317.066 916.141 -319.121 914.515C-321.177 912.888 -322.859 908.457 -322.859 904.666C-322.859 900.876 -325.499 895.386 -328.726 892.467C-331.953 889.547 -336.134 882.49 -338.018 876.783C-340.494 869.283 -342.348 867.313 -344.708 869.672C-349.634 874.596 -356.927 873.661 -374.628 865.835C-383.882 861.744 -393.522 854.757 -397.373 849.351C-401.049 844.19 -408.072 837.891 -412.98 835.354C-421.079 831.167 -423.104 831.199 -434.902 835.704L-447.901 840.666L-487.783 821.346C-512.315 809.462 -531.354 798.126 -537.252 791.891C-546.395 782.224 -546.691 781.175 -543.648 769.192C-540.861 758.215 -541.335 754.819 -547.397 742.299C-551.213 734.418 -559.55 722.313 -565.925 715.399C-572.299 708.485 -576.79 701.657 -575.905 700.226C-575.021 698.794 -579.511 689.147 -585.884 678.787C-593.124 667.017 -598.233 654.41 -599.503 645.184C-601.13 633.357 -603.026 629.738 -609.027 627.004C-615.39 624.106 -617.169 624.476 -620.812 629.451C-625.942 636.458 -624.484 643.855 -613.139 668.363C-608.529 678.323 -603.765 693.087 -602.552 701.172C-601.339 709.258 -597.757 720.949 -594.591 727.152C-587.093 741.846 -591.935 741.586 -603.759 726.661C-610.733 717.859 -612.616 713.031 -611.23 707.51C-609.751 701.616 -611.208 698.778 -618.456 693.419C-629.449 685.294 -631.776 680.052 -627.738 672.509C-625.383 668.111 -626.463 663.287 -632.443 651.488C-638.516 639.507 -639.786 633.703 -638.283 624.806C-635.825 610.261 -642.352 597.097 -654.52 592.059C-661.546 589.149 -663.968 585.895 -665.399 577.44C-666.412 571.458 -668.352 562.203 -669.709 556.873C-671.122 551.329 -671.019 546.466 -669.469 545.508C-667.979 544.588 -668.954 540.487 -671.636 536.395C-675.585 530.369 -675.856 527.517 -673.059 521.382C-671.161 517.216 -670.444 512.455 -671.467 510.8C-672.49 509.146 -669.941 504.203 -665.803 499.815C-661.666 495.428 -656.157 486.678 -653.562 480.371C-650.967 474.064 -642.969 462.372 -635.79 454.389C-628.61 446.406 -619.509 432.423 -615.564 423.314C-610.088 410.672 -606.878 406.742 -601.996 406.703C-598.479 406.676 -595.788 408.333 -596.016 410.388C-596.968 418.951 -590.195 416.313 -582.587 405.157C-578.103 398.582 -575.684 392.753 -577.211 392.205C-578.738 391.657 -579.987 389.183 -579.987 386.708C-579.987 384.232 -586.177 376.193 -593.742 368.843C-606.289 356.651 -607.095 355.035 -602.923 350.426C-599.543 346.692 -599.145 343.952 -601.399 339.925C-605.361 332.848 -599.11 317 -592.332 316.936C-589.532 316.909 -588.733 315.957 -590.452 314.694C-594.308 311.862 -596.055 305.43 -595.514 296.059C-594.648 281.092 -597.924 274.832 -609.055 270.182C-615.059 267.675 -624.219 262.383 -629.412 258.423C-634.605 254.464 -641.194 251.224 -644.054 251.224C-646.913 251.224 -659.912 248.503 -672.94 245.178C-693.885 239.832 -697.576 239.62 -704.831 243.354C-719.867 251.09 -735.797 254.243 -742.292 250.768C-747.163 248.162 -752.479 249.772 -771.016 259.465C-783.527 266.007 -798.472 272.375 -804.228 273.616C-809.983 274.857 -820.998 279.049 -828.705 282.931C-850.565 293.943 -881.88 305.044 -890.542 304.851C-896.133 304.727 -892.353 302.276 -877.48 296.379C-852.202 286.358 -826.227 273.307 -823.825 269.421C-820.866 264.635 -827.289 262.917 -835.005 266.432C-840.686 269.019 -844.187 268.777 -850.742 265.344L-859.173 260.927L-850.002 256.186C-839.635 250.826 -836.373 244.763 -838.755 235.275C-841.062 226.086 -828.342 219.334 -800.941 215.203C-786.217 212.983 -775.024 209.288 -767.489 204.159C-754.2 195.116 -756.483 188.281 -770.811 194.214C-777.593 197.022 -782.534 197.053 -792.578 194.349C-804.785 191.063 -805.22 190.594 -799.76 186.603C-790.624 179.924 -771.729 175.907 -759.314 178.004C-751.458 179.331 -745.023 178.402 -738.419 174.988L-728.876 170.055L-735.158 163.37C-738.613 159.693 -741.44 155.894 -741.44 154.928C-741.44 152.155 -723.441 146.609 -714.441 146.609C-709.949 146.609 -697.635 143.358 -687.075 139.384C-676.516 135.411 -652.155 129.987 -632.939 127.33C-601.772 123.021 -595.173 122.969 -571.802 126.843C-557.393 129.231 -537.531 132.08 -527.665 133.173C-517.798 134.266 -500.334 137.737 -488.856 140.885C-462.199 148.196 -444.836 148.107 -415.054 140.506C-401.904 137.149 -388.612 135.206 -385.518 136.188C-382.424 137.17 -377.162 136.512 -373.826 134.728C-369.229 132.268 -365.665 132.566 -359.106 135.956C-353.181 139.019 -345.866 139.894 -335.908 138.729C-325.401 137.5 -316.202 138.773 -302.771 143.313C-292.545 146.77 -281.188 149.598 -277.533 149.598C-271.059 149.598 -271.037 149.708 -276.691 153.868C-282.236 157.947 -282.252 158.232 -277.046 160.249C-274.048 161.41 -263.644 161.529 -253.925 160.513C-236.372 158.679 -236.22 158.731 -231.325 168.193L-226.397 177.72L-220.001 169.7C-216.325 165.092 -207.59 159.871 -199.464 157.426C-187.184 153.731 -183.457 153.744 -171.122 157.52C-162.416 160.185 -151.995 161.156 -144.19 160.029C-134.252 158.595 -129.637 159.488 -123.153 164.104C-114.967 169.931 -114.74 169.934 -107.48 164.309C-103.428 161.17 -95.0905 157.202 -88.9518 155.492C-74.2558 151.399 -69.2714 142.677 -78.097 136.497C-84.3381 132.127 -84.0651 131.793 -67.6596 123.749C-55.4244 117.751 -49.9148 116.388 -47.53 118.772C-45.1451 121.156 -45.1694 123.779 -47.6185 128.354C-51.7928 136.151 -46.5969 147.938 -40.0862 145.44C-37.7457 144.542 -33.8632 144.562 -31.4584 145.485C-27.6811 146.934 -27.7416 148.162 -31.9028 154.511C-43.3986 172.051 -17.6262 167.081 -0.178589 148.394C6.91486 140.797 17.9056 138.493 28.2068 142.445C34.8597 144.997 34.2365 147.087 23.2192 159.163C10.0898 173.555 3.37128 176.499 -16.3485 176.499C-25.8794 176.499 -37.1306 178.563 -42.3734 181.273C-49.6306 185.025 -53.1694 185.337 -58.8932 182.73C-69.5646 177.869 -73.2797 181.915 -65.6248 190.061L-59.0907 197.014L-72.1271 200.713C-79.2971 202.747 -91.2182 204.608 -98.6181 204.849C-109.349 205.197 -112.077 206.362 -112.093 210.603C-112.108 214.232 -117.328 218.051 -128.537 222.631C-164.858 237.474 -195.669 264.235 -184.514 271.251C-182.424 272.566 -179.106 277.303 -177.141 281.779C-174.878 286.932 -170.516 290.527 -165.244 291.582C-160.666 292.498 -148.848 297.222 -138.981 302.079C-129.115 306.937 -117.006 311.79 -112.072 312.865C-98.4906 315.824 -98.3717 316.136 -104.697 332.179C-110.109 345.905 -110.218 347.863 -106.024 355.971C-103.511 360.83 -99.8072 364.758 -97.7939 364.7C-87.997 364.417 -78.8109 355.378 -73.1031 340.405C-67.6628 326.135 -65.1838 323.473 -49.5693 315.135C-26.5247 302.83 -16.9414 290.711 -19.4951 277.103C-21.1585 268.238 -20.2945 266.158 -12.7052 260.756C-7.92249 257.351 -1.59033 249.202 1.36627 242.648C7.97504 227.996 18.5949 222.918 36.5022 225.844C52.3832 228.44 71.1641 238.52 73.4326 245.665C74.3638 248.598 73.5906 253.866 71.7141 257.371C68.8721 262.68 69.4089 264.921 74.9292 270.796L81.556 277.848L92.3771 272.24C98.3287 269.156 107.868 263.139 113.575 258.87L123.952 251.107L126.39 257.696C127.731 261.319 128.112 266.151 127.236 268.432C126.36 270.713 127.041 275.19 128.749 278.381C130.671 281.97 130.82 286.03 129.141 289.03C127.248 292.411 128.513 297.548 133.325 306.017C140.219 318.15 140.22 318.16 134.166 322.399C126.2 327.977 131.311 333.893 140.054 329.215C148.737 324.569 158.677 325.173 164.808 330.719C173.87 338.918 166.334 348.726 142.281 360.039C116.119 372.344 104.458 374.782 70.3097 375.084C45.0939 375.306 41.7548 376.11 17.2394 387.859C2.85071 394.755 -8.92188 401.58 -8.92188 403.026C-8.92188 409.194 -4.38788 408.657 13.0068 400.43C23.2559 395.583 36.4666 391.711 42.7586 391.709C53.5059 391.707 53.8978 392.039 50.5417 398.308C48.598 401.939 44.4052 407.017 41.2244 409.592C36.2239 413.64 35.931 415.348 39.0613 422.217C43.7557 432.517 56.0153 437.473 70.6795 435L82.2692 433.045L73.358 439.19C68.4568 442.571 60.3843 446.214 55.4188 447.285C50.4534 448.357 40.2485 452.328 32.7413 456.109C25.1207 459.947 17.4647 461.979 15.408 460.708C10.6763 457.784 15.6708 453.398 31.0437 446.977C44.7164 441.266 42.5306 435.199 27.796 437.962C22.0566 439.039 3.44568 446.047 -13.5614 453.536C-40.1072 465.225 -44.7383 468.312 -46.2838 475.346C-48.1833 483.993 -54.6644 488.082 -77.4504 495.012C-84.7192 497.223 -94.1373 502.566 -98.3795 506.885C-102.622 511.204 -110.745 517.671 -116.43 521.256C-122.116 524.841 -127.56 531.121 -128.528 535.213C-130.122 541.955 -130.493 542.115 -132.49 536.921C-136.231 527.188 -141.868 536.703 -142.193 553.299C-142.525 570.302 -151.146 581.9 -170.055 590.782C-189.441 599.888 -217.026 621.405 -222.616 631.781C-227.55 640.941 -227.757 644.51 -224.717 668.054C-221.88 690.019 -222.05 695.53 -225.782 702.746C-228.569 708.134 -231.821 710.71 -234.527 709.672C-240.943 707.211 -248.789 680.819 -246.59 669.1C-245.063 660.96 -246.075 657.875 -252.142 652.177C-257.033 647.583 -261.547 645.838 -265.384 647.055C-268.587 648.071 -277.643 646.144 -285.518 642.769C-297.584 637.598 -301.435 637.165 -310.049 640.007C-315.89 641.934 -321.693 646.504 -323.593 650.673C-326.42 656.876 -328.292 657.673 -336.1 655.994C-341.15 654.908 -348.916 652.164 -353.356 649.896C-364.293 644.31 -370.418 644.699 -382.703 651.761C-388.432 655.055 -400.125 661.358 -408.686 665.77C-418.524 670.839 -425.283 676.608 -427.055 681.451C-428.597 685.665 -434.11 702.091 -439.306 717.953L-448.753 746.794L-443.928 765.411C-435.062 799.615 -422.727 809.854 -397.026 804.344C-377.651 800.19 -366.015 791.773 -361.738 778.817C-359.022 770.588 -356.091 767.868 -347.321 765.433C-334.121 761.768 -328.608 761.633 -323.537 764.849C-319.354 767.504 -320.825 771.872 -339.557 812.417C-352.411 840.238 -351.485 842.727 -329.464 839.551C-309.401 836.658 -291.062 838.878 -288.92 844.459C-288.085 846.635 -289.443 861.316 -291.939 877.084C-296.403 905.292 -296.371 905.923 -289.944 916.318C-286.352 922.129 -279.617 928.846 -274.977 931.244C-267.57 935.073 -265.247 935.064 -255.928 931.172C-241.119 924.986 -233.077 925.641 -222.792 933.867C-214.568 940.445 -213.406 940.631 -206.943 936.397C-203.107 933.885 -197.873 927.657 -195.313 922.558C-189.541 911.062 -179.814 902.98 -171.644 902.893C-168.23 902.857 -162.278 899.464 -158.415 895.354C-150.572 887.008 -136.761 884.288 -143.512 892.42C-149.176 899.243 -152.415 921.191 -148.764 928.012C-145.724 933.691 -145.48 933.658 -139.948 926.828C-136.009 921.965 -135.215 918.847 -137.367 916.695C-142.503 911.561 -140.956 907.294 -131.401 900.232C-121.48 892.899 -113.805 893.652 -105.244 902.797C-98.9672 909.502 -65.4519 918.566 -55.8465 916.156C-41.2192 912.486 -1.69562 936.51 13.1545 958.098C20.2255 968.377 42.815 978.722 52.7482 976.229C73.1805 971.103 101.194 991.568 107.745 1016.41C109.695 1023.81 112.637 1030.7 114.281 1031.72C118.643 1034.44 112.109 1045.17 97.8248 1058.76C88.6987 1067.44 86.5196 1071.17 89.0871 1073.74C91.6546 1076.31 95.8746 1074.06 106.008 1064.72C120.747 1051.14 125.665 1049.76 133.049 1057.14C137.54 1061.63 137.402 1062.54 131.246 1069.09C127.58 1073 122.46 1076.27 119.869 1076.38C117.138 1076.49 118.242 1077.8 122.494 1079.5C128.335 1081.83 131.382 1081.17 137.443 1076.28C153.229 1063.52 156.941 1062.91 170.964 1070.74C180.08 1075.83 183.731 1079.71 183.271 1083.81C181.993 1095.21 184.682 1097.73 192.586 1092.55C198.869 1088.44 203.179 1088.24 224.199 1091.12C246.558 1094.18 249.487 1095.4 260.214 1106.13C268.178 1114.09 277.136 1119.32 288.39 1122.59C303.499 1126.99 305.14 1128.32 307.881 1138.5C311.854 1153.25 307.199 1169.62 294.609 1185.17C289.23 1191.81 282.638 1201.56 279.959 1206.84C277.281 1212.11 271.584 1219.93 267.3 1224.21C260.048 1231.46 259.645 1233.28 261.453 1250.49C264.984 1284.12 248.53 1346.86 232.66 1360.27C227.493 1364.64 223.071 1365.67 214.878 1364.4C208.143 1363.36 203.158 1364.03 201.841 1366.16C200.669 1368.05 194.14 1372.05 187.333 1375.05C180.525 1378.04 170.39 1384.39 164.81 1389.15C155.152 1397.4 154.829 1398.31 158.079 1408.15C161.826 1419.5 159.303 1432.94 151.272 1444.41C148.676 1448.11 146.551 1454.42 146.551 1458.42C146.551 1462.42 143.432 1469.85 139.619 1474.94C135.807 1480.03 128.452 1491.67 123.275 1500.82C110.54 1523.32 102.882 1527.21 84.4161 1520.6C68.3906 1514.85 59.8452 1514.17 59.8452 1518.62C59.8452 1520.3 63.0396 1523.13 66.944 1524.91C70.8484 1526.69 76.9329 1533.93 80.465 1541C85.7247 1551.53 86.2811 1555.18 83.5398 1561.2C79.2931 1570.52 63.0544 1578.34 47.9606 1578.34C34.592 1578.34 31.2756 1581.61 35.8931 1590.24C38.7433 1595.56 36.826 1604.13 31.3142 1610.69C30.8676 1611.23 26.1862 1609.43 20.9111 1606.7C8.31866 1600.19 3.8609 1604.34 10.225 1616.64C12.8136 1621.65 17.7354 1626.63 21.1624 1627.72C27.0524 1629.59 27.1161 1630 22.3275 1635.29C19.5383 1638.37 18.0914 1643.05 19.1078 1645.7C20.2001 1648.54 17.7639 1654.69 13.1416 1660.75C5.62781 1670.59 5.52081 1671.28 10.3376 1678.63C13.092 1682.83 17.3883 1687.05 19.8851 1688.01C28.8892 1691.46 30.3819 1703.26 23.5161 1716.72C16.6378 1730.2 15.5822 1743.71 20.9066 1750.12C25.7463 1755.95 9.46021 1767.31 2.1366 1763.21ZM-218.213 468.649C-210.224 451.96 -195.359 439.531 -183.387 439.531C-174.77 439.531 -174.669 440.929 -182.559 450.956L-188.762 458.841L-182.397 463.993C-177.269 468.145 -174.623 468.504 -168.776 465.841C-164.786 464.023 -160.695 459.936 -159.686 456.758C-158.313 452.434 -156.081 451.425 -150.817 452.745C-145.944 453.968 -142.893 452.922 -140.888 449.34C-134.813 438.487 -150.273 424.608 -161.654 430.697C-169.797 435.054 -180.437 426.386 -178.166 417.244C-177.324 413.856 -179.056 407.959 -182.054 404.003C-188.234 395.849 -197.636 394.99 -218.213 400.7C-225.613 402.754 -234.051 404.342 -236.964 404.23C-239.878 404.117 -241.48 405.288 -240.525 406.833C-239.57 408.377 -239.878 409.671 -241.208 409.707C-242.538 409.744 -246.975 412.345 -251.067 415.488L-258.507 421.203L-250.151 424.379C-243.62 426.861 -239.769 426.507 -232.514 422.757C-223.988 418.349 -222.409 418.351 -213.104 422.787C-207.498 425.46 -199.846 426.831 -195.97 425.859C-192.118 424.892 -188.141 425.437 -187.133 427.068C-186.102 428.735 -190.314 430.881 -196.751 431.969C-214.25 434.924 -223.34 442.208 -236.032 463.443C-246.633 481.18 -247.241 483.319 -243.016 488.007C-238.87 492.608 -237.725 492.68 -232.037 488.704C-228.545 486.262 -222.324 477.237 -218.213 468.649ZM-163.892 487.098C-153.249 481.67 -152.225 480.307 -155.976 476.557C-159.727 472.807 -162.097 473.052 -174.299 478.448C-188.627 484.784 -193.173 493.333 -182.215 493.333C-178.861 493.333 -170.616 490.527 -163.892 487.098ZM-110.879 464.513C-104.651 460.152 -104.42 459.296 -108.812 456.839C-115.278 453.222 -134.497 459.455 -134.497 465.169C-134.497 471.057 -119.634 470.644 -110.879 464.513ZM113.663 1755.29C113.663 1753.97 115.277 1751.28 117.251 1749.31C119.224 1747.34 119.708 1745.73 118.328 1745.73C116.947 1745.73 114.204 1747.93 112.232 1750.63C109.401 1754.5 107.445 1754.83 102.932 1752.21C99.7071 1750.34 98.9231 1748.86 101.132 1748.8C103.285 1748.75 104.214 1747.37 103.198 1745.73C101.246 1742.57 106.377 1741.71 121.137 1742.72C134.311 1743.62 135.636 1745.54 127.493 1751.94C119.908 1757.91 113.663 1759.42 113.663 1755.29ZM2610.6 1680.27C2602.05 1674.86 2619.86 1662.89 2664.02 1644.39C2676.36 1639.23 2695.15 1628.43 2705.79 1620.39C2723.87 1606.72 2725.37 1606.13 2728.96 1611.24C2734.4 1619.01 2731.19 1624.63 2717.9 1630.62C2711.55 1633.48 2703.57 1639.03 2700.16 1642.95C2696.75 1646.87 2691.26 1650.08 2687.97 1650.08C2684.68 1650.08 2676.93 1654.61 2670.76 1660.14C2649.63 1679.1 2622.88 1688.05 2610.6 1680.27ZM2401.35 1641.44C2398.25 1639.48 2398.07 1637.45 2400.61 1632.72C2402.42 1629.33 2403.9 1622.34 2403.9 1617.19C2403.9 1608.77 2404.58 1608.07 2410.63 1610.19C2414.33 1611.49 2422.07 1612.74 2427.82 1612.95C2433.58 1613.17 2439.33 1613.54 2440.6 1613.78C2445.55 1614.71 2432.31 1629.78 2420.41 1636.75C2406.24 1645.05 2406.82 1644.91 2401.35 1641.44ZM2746.84 1615.31C2745.8 1614.27 2748.27 1610.81 2752.32 1607.62C2758.42 1602.83 2759.13 1600.8 2756.46 1595.82C2752.6 1588.61 2758.34 1580.87 2771.61 1575.37C2781.9 1571.11 2784.49 1562.47 2781.73 1541.61C2779.84 1527.25 2780.07 1526.36 2784.69 1530.18C2788.33 1533.19 2789.22 1536.97 2787.92 1543.87C2786.5 1551.43 2787.78 1555.36 2794.09 1562.86C2800.91 1570.96 2802.93 1571.84 2808.23 1569C2813.52 1566.17 2814.14 1566.43 2812.47 1570.77C2811.4 1573.56 2810.53 1576.37 2810.53 1577.01C2810.53 1577.66 2806.15 1580.43 2800.81 1583.16C2795.47 1585.9 2785.04 1593.13 2777.64 1599.24C2765.6 1609.17 2753.22 1617.2 2749.93 1617.2C2749.27 1617.2 2747.88 1616.35 2746.84 1615.31ZM2430.68 1576.7C2424.38 1570 2423.22 1569.74 2417.17 1573.71C2409.46 1578.76 2394.98 1575.81 2383.37 1566.82C2377.17 1562.03 2376.74 1560.48 2379.94 1554.52C2382.66 1549.43 2382.75 1545.86 2380.29 1540.46C2378.48 1536.48 2377 1530.6 2377 1527.39C2377 1520.15 2372.29 1519.8 2368.4 1526.76C2366.8 1529.62 2364.63 1531.11 2363.58 1530.06C2362.53 1529.01 2366 1523.24 2371.28 1517.23C2384.27 1502.43 2379.2 1498.42 2362.04 1509.91C2354.64 1514.86 2348.11 1520.27 2347.53 1521.93C2346.94 1523.59 2343.39 1518.46 2339.63 1510.54C2335.56 1501.96 2328.52 1493.32 2322.19 1489.16C2312.69 1482.9 2309.47 1482.39 2291.22 1484.2C2264.46 1486.87 2238.64 1493.46 2221.74 1501.96C2214.05 1505.82 2199.06 1509.77 2187.5 1510.98C2176.19 1512.17 2158.2 1516.43 2147.52 1520.45C2131.19 1526.59 2126.54 1527.24 2118.27 1524.51C2107.17 1520.84 2102.56 1513.3 2109.74 1510.54C2112.34 1509.55 2117.06 1502.69 2120.23 1495.3C2125.3 1483.48 2125.58 1479.8 2122.57 1464.52C2120.08 1451.88 2120.01 1439.91 2122.32 1420.46C2124.05 1405.76 2124.72 1390.85 2123.79 1387.32C2122.87 1383.78 2124.31 1375.13 2127.01 1368.08C2131.75 1355.66 2132.9 1354.85 2164.97 1341.27C2183.17 1333.57 2201.79 1327.26 2206.35 1327.26C2218.71 1327.26 2234.02 1315.51 2242.45 1299.54C2247.67 1289.67 2251.28 1285.91 2254.41 1287.12C2263.14 1290.49 2264.87 1289.83 2264.2 1283.36C2263.76 1279.19 2265.55 1276.17 2269.11 1275.04C2272.19 1274.06 2277.88 1268.62 2281.75 1262.94C2285.72 1257.13 2293.87 1250.58 2300.41 1247.96C2311.33 1243.58 2312.42 1243.64 2318.35 1249.04C2329.31 1258.99 2337.07 1261.9 2340.78 1257.43C2342.58 1255.26 2343.2 1252.63 2342.16 1251.58C2338.73 1248.16 2354.39 1228.52 2362.05 1226.63C2366.16 1225.62 2374.6 1222.25 2380.8 1219.14C2390.48 1214.29 2393.88 1213.97 2404.72 1216.88C2428.1 1223.16 2428.87 1224.18 2420.18 1237.32C2409 1254.21 2411.96 1260.81 2439.39 1280.11C2452.05 1289.02 2464 1295.78 2465.95 1295.13C2467.9 1294.48 2474.06 1287.66 2479.64 1279.97C2487.24 1269.49 2490.19 1261.87 2491.41 1249.55C2493.14 1232.05 2501.51 1207.7 2505.8 1207.7C2507.22 1207.7 2510.48 1214.9 2513.04 1223.7C2515.59 1232.5 2520.96 1242.77 2524.95 1246.52C2534.28 1255.29 2539.71 1279.8 2535.51 1294.28C2532.74 1303.88 2533.27 1305.42 2542.79 1315.21C2548.44 1321.02 2557.38 1335.19 2562.65 1346.69C2567.92 1358.2 2577.43 1374.48 2583.78 1382.88L2595.32 1398.14L2592.04 1421.71C2589.66 1438.82 2585.97 1450.22 2578.62 1463.24C2567.35 1483.2 2550.5 1502.24 2541.62 1505.05C2538.42 1506.07 2531.02 1513.56 2525.18 1521.7C2519.33 1529.84 2513.22 1536.49 2511.61 1536.49C2510.01 1536.49 2503.17 1543.48 2496.42 1552.02C2485.16 1566.26 2483.08 1567.56 2471.35 1567.78C2462.35 1567.95 2455.46 1570.39 2448.07 1576.03L2437.57 1584.03L2430.68 1576.7ZM972.759 1513.86C966.427 1507.53 965.369 1504.29 966.784 1495.57C968.116 1487.37 966.848 1482.54 961.16 1474.18C957.121 1468.23 953.817 1461.91 953.817 1460.12C953.817 1458.33 948.53 1449.79 942.068 1441.13C932.08 1427.75 930.028 1422.4 928.381 1405.47C925.475 1375.59 915.933 1343.26 903.107 1319.82C896.802 1308.3 890.745 1293.34 889.648 1286.57C887.312 1272.18 893.157 1250.77 906.502 1224.82L915.379 1207.55L910.391 1192.54C907.6 1184.14 906.237 1174.2 907.297 1169.98C908.536 1165.04 907.204 1159.16 903.436 1152.94C900.271 1147.72 895.572 1136.04 892.992 1127C889.547 1114.92 884.744 1107.07 874.893 1097.41C855.944 1078.82 853.48 1071.51 859.361 1051.28C871.333 1010.11 858.4 986.1 826.803 990.837C814.502 992.681 814.031 992.452 812.293 983.763C810.959 977.097 807.346 973.176 798.27 968.547C786.477 962.533 781.43 962.51 766.95 968.406C763.661 969.745 750.206 974.386 737.051 978.719C717.27 985.234 711.331 986.075 702.72 983.578C694.563 981.213 687.692 981.825 671 986.403C653.751 991.134 647.499 991.642 638.179 989.069C618.732 983.701 585.322 953.596 580.569 937.159C576.892 924.439 554.02 894.794 546.236 892.659C541.289 891.301 540.681 890.251 543.709 888.296C546.756 886.331 546.226 885.337 541.467 884.093C533.911 882.117 533.159 875.944 540.467 875.88C544.938 875.841 545.047 875.413 541.214 872.937C538.39 871.112 538.076 870.022 540.366 869.993C542.74 869.963 541.837 866.278 537.762 859.374C532.027 849.657 531.908 848.373 536.289 843.533C549.666 828.756 552.597 796.941 542.428 776.896C537.574 767.327 540.695 754.109 551.054 740.366C554.955 735.192 562.57 722.603 567.976 712.389C577.434 694.523 598.517 669.684 604.223 669.684C610.538 669.684 630.911 647.788 630.911 641.001C630.911 625.68 640.074 610.403 655.014 600.819C663.041 595.669 672.448 586.864 675.918 581.252C683.015 569.772 684.02 569.397 692.285 575.156C695.529 577.416 703.589 580.172 710.196 581.28C720.273 582.97 725.091 581.753 740.094 573.732C765.911 559.929 781.864 556.482 811.404 558.324C830.886 559.539 839.656 558.762 849.1 554.985C863.007 549.422 875.03 552.714 871.775 561.194C870.797 563.742 871.395 567.51 873.103 569.568C875.252 572.157 875.235 575.867 873.048 581.618C870.301 588.843 870.91 590.994 877.718 598.097C882.024 602.591 889.735 607.105 894.853 608.128C918.881 612.932 925.714 616.044 930.676 624.441C934.311 630.593 939.077 633.751 946.955 635.229C953.082 636.378 961.978 639.325 966.725 641.779C974.786 645.947 975.831 645.795 982.553 639.482C987.072 635.237 989.122 630.743 988.062 627.404C987.134 624.479 987.841 619.345 989.634 615.995C994.26 607.354 1007.39 608.202 1027.9 618.466C1050.24 629.648 1092.61 637.626 1107.63 633.48C1114.86 631.485 1121.8 631.459 1128.13 633.402C1148.79 639.75 1159.37 634.781 1162.19 617.407C1163.12 611.636 1164.72 606.915 1165.74 606.915C1167.67 606.915 1168.69 598.238 1168.97 579.267C1169.06 573.102 1170.51 568.058 1172.2 568.058C1174.22 568.058 1174.12 565.893 1171.92 561.78C1168.24 554.911 1160.78 555.068 1142.94 562.389C1134.47 565.862 1132.12 565.714 1124.54 561.237C1114.71 555.431 1104.62 554.56 1101.71 559.266C1099.54 562.765 1084.26 560.312 1075.96 555.136C1070.01 551.417 1064.44 540.347 1064.44 532.219C1064.44 529.102 1061.41 524.419 1057.71 521.814C1051.99 517.781 1051.65 516.64 1055.47 514.142C1057.94 512.528 1063.01 511.926 1066.75 512.805C1071.51 513.925 1075.89 512.049 1081.42 506.521C1086.62 501.319 1092.95 498.447 1100.04 498.071C1105.95 497.757 1114.51 495.048 1119.06 492.05C1128.94 485.541 1151.37 487.35 1168.77 496.058C1192.24 507.802 1213.08 507.111 1221.47 494.312C1225.84 487.653 1225.86 486.254 1221.72 479.935C1219.2 476.085 1207.07 467.215 1194.78 460.223L1172.43 447.512L1176.62 439.417C1178.92 434.965 1180.05 430.568 1179.13 429.647C1178.21 428.726 1178.56 426.202 1179.92 424.038C1181.27 421.873 1182.64 418.366 1182.96 416.243C1183.64 411.716 1178.82 412.965 1155.05 423.478C1141.24 429.58 1139.19 431.45 1142.25 435.138C1144.26 437.554 1148.76 439.59 1152.26 439.663C1157.17 439.765 1156.01 441.175 1147.18 445.832C1136.46 451.487 1135.26 451.56 1128.29 446.995C1122.33 443.091 1121.55 441.274 1124.38 437.872C1127.18 434.495 1126.76 433.195 1122.33 431.532C1119.27 430.381 1115.32 427.517 1113.56 425.167C1104.99 413.756 1077.82 443.775 1069.92 473.379C1066.21 487.275 1066.34 487.998 1073.32 493.263L1080.56 498.727L1067.27 501.468C1059.96 502.975 1050.11 503.151 1045.37 501.859C1036.64 499.474 1025.57 503.068 1025.57 508.289C1025.57 509.824 1023.54 510.299 1021.05 509.344C1018.56 508.39 1014.61 509.197 1012.27 511.138C1008.65 514.148 1009.06 516.615 1015.07 527.92C1021.58 540.166 1021.78 541.841 1017.72 549.982C1012.63 560.183 1007.9 559.425 1000.71 547.255C995.693 538.771 995.726 538.576 1002.36 537.634C1010.73 536.446 1011.27 531.12 1003.15 529.822C984.625 526.861 974.746 517.102 974.746 501.765C974.746 489.797 963.648 476.603 950.19 472.573C943.197 470.478 935.594 466.08 933.295 462.799C930.997 459.518 924.269 454.809 918.344 452.334C912.419 449.859 905.788 445.289 903.608 442.178C900.479 437.712 898.423 437.175 893.842 439.626C890.651 441.333 888.039 444.654 888.039 447.005C888.039 454.766 926.149 489.875 944.776 499.275C964.527 509.243 967.612 512.802 953.889 509.789C941.655 507.102 938.323 509.791 942.507 518.973C945.447 525.422 944.966 527.384 939.053 533.064L932.183 539.663L933.746 530.759C936.228 516.625 917.587 496.322 902.129 496.322C896.462 496.322 874.692 475.21 868.989 464.185C862.895 452.403 856.114 450.128 846.507 456.639C832.036 466.448 821.186 469.765 809.836 467.848C794.757 465.301 785.27 470.557 787.673 480.128C788.927 485.125 788.229 487.355 785.411 487.355C783.168 487.355 777.425 490.716 772.647 494.824C767.869 498.932 762.931 502.294 761.673 502.296C757.974 502.301 747.539 521.186 747.527 527.895C747.514 534.311 735.822 546.953 724.54 552.748C720.948 554.593 712.587 556.102 705.959 556.102C696.84 556.102 693.104 557.604 690.602 562.277C687.326 568.397 687.227 568.382 679.564 560.722C672.376 553.535 668.237 551.737 653.729 549.493C646.107 548.315 644.82 531.065 650.521 506.49C652.958 495.985 654.154 484.213 653.179 480.329C650.346 469.045 659.215 462.39 674.051 464.669C708.31 469.929 728.35 470.22 733.047 465.524C739.501 459.072 742.412 437.792 738.473 425.861C735.904 418.079 732.371 414.898 721.829 410.872C706.323 404.953 705.996 399.226 721.155 399.074C726.931 399.016 735.262 396.606 739.67 393.719C744.078 390.832 748.952 389.253 750.502 390.21C754.728 392.822 770.733 383.6 776.048 375.49C778.617 371.571 783.675 367.611 787.288 366.69C790.902 365.769 800.585 358.751 808.808 351.094C820.464 340.239 826.581 336.836 836.576 335.643C848.959 334.165 861.411 323.985 855.565 320.119C851.931 317.716 848.896 303.242 850.92 297.97C851.878 295.472 856.111 291.17 860.326 288.409L867.989 283.39L866.021 295.689C864.314 306.363 864.749 307.871 869.319 307.108C872.215 306.624 877.632 304.555 881.356 302.509C887.027 299.395 888.418 299.546 889.913 303.441C892.475 310.116 885.352 317.965 880.434 313.885C877.718 311.631 875.995 311.713 874.477 314.167C872.912 316.698 871.688 316.561 869.889 313.651C868.539 311.468 866.749 310.368 865.91 311.207C865.071 312.046 867.462 316.589 871.222 321.303C877.56 329.25 878.768 329.628 887.802 326.479C895.539 323.783 899.254 323.967 905.841 327.372C913.277 331.217 915.788 331.033 930.081 325.604C942.603 320.847 947.539 320.238 953.081 322.762C958.18 325.084 961.957 325.037 966.694 322.59C980.142 315.643 983.868 310.404 982.198 300.789C979.724 286.537 984.256 281.868 996.194 286.373C1004.32 289.438 1006.69 289.316 1010.36 285.646C1014.25 281.76 1013.91 280.325 1007.54 273.546C1001.42 267.024 1000.99 265.402 1004.72 262.882C1007.15 261.247 1016.23 260.662 1024.91 261.58C1040.79 263.262 1060.58 257.06 1057.13 251.483C1054.11 246.598 1035.88 245.187 1020.44 248.642C1006.74 251.706 1003.15 251.458 992.653 246.726C976.35 239.377 974.43 230.778 985.611 215.199C1000 195.146 1002.64 188.755 998.536 183.816C992.465 176.504 986.501 178.888 972.633 194.171C965.305 202.247 955.319 210.507 950.442 212.526C945.565 214.546 939.533 220.146 937.036 224.972C932.971 232.831 932.978 234.477 937.098 240.764C939.628 244.623 944.424 248.647 947.757 249.704C956.929 252.614 955.114 258.077 941.995 267.05C937.96 269.81 932.579 277.618 930.036 284.401C926.85 292.901 922.005 298.702 914.449 303.063C903.796 309.211 903.313 309.235 897.426 303.909C894.094 300.895 890.559 294.746 889.57 290.246C888.582 285.746 884.091 277.655 879.592 272.267L871.411 262.471L861.038 268.792C855.333 272.269 847.975 275.089 844.686 275.058C835.198 274.971 824.214 264.725 823.479 255.277C823.114 250.582 821.893 244.438 820.767 241.623C818.088 234.928 831.477 222.372 845.39 218.532C859.354 214.678 887.676 194.834 892.503 185.524C894.65 181.382 901.924 173.048 908.667 167.003C915.411 160.959 920.928 154.681 920.928 153.053C920.928 151.425 927.319 147.816 935.13 145.033C942.941 142.25 956.059 137.201 964.281 133.813C974.375 129.654 986.998 127.454 1003.15 127.041C1031.37 126.32 1049.83 130.059 1065.05 139.585C1072.69 144.364 1078.73 145.995 1084.5 144.841C1094.82 142.777 1149.85 159.828 1152.14 165.801C1154.44 171.805 1138.66 177.472 1125.08 175.517C1118.86 174.621 1106 172.227 1096.5 170.195C1083.71 167.461 1078.35 167.375 1075.86 169.863C1073.37 172.351 1074.62 174.188 1080.66 176.938C1085.14 178.98 1090.75 184.412 1093.13 189.007C1099.18 200.709 1118.57 210.248 1128.57 206.446C1138.18 202.794 1138.12 201.642 1127.98 196.143C1118.6 191.056 1122.93 189.957 1134.7 194.433C1144.11 198.008 1154.76 193.561 1152.28 187.097C1151.12 184.07 1154.39 181.884 1163.6 179.523C1183.33 174.47 1184.77 173.747 1183.14 169.748C1176.95 154.622 1176.86 155.057 1185.87 156.085C1190.67 156.633 1194.18 158.688 1193.78 160.717C1193.39 162.723 1195.89 165.877 1199.35 167.725C1204.54 170.502 1208.63 169.513 1222.9 162.035C1243.83 151.069 1260.12 147.494 1266.19 152.534C1269.58 155.345 1275.2 155.365 1291.46 152.623C1302.96 150.684 1313.67 149.905 1315.27 150.891C1316.86 151.877 1319.05 151.258 1320.13 149.516C1322.48 145.705 1315.97 137.057 1312.4 139.261C1308.09 141.921 1293.95 137.155 1297.03 134.08C1300.13 130.983 1383.33 150.367 1388.31 155.345C1391.67 158.701 1402.3 154.224 1402.3 149.454C1402.3 147.846 1396.36 143.649 1389.11 140.126C1366.62 129.204 1365.18 111.712 1386.33 106.405C1398.6 103.326 1403.91 106.878 1420.89 129.536C1442.93 158.952 1442.36 157.455 1435.16 167.565C1429.83 175.051 1429.51 176.803 1433.21 178.222C1440.22 180.911 1455.22 171.501 1457.33 163.091C1459.81 153.237 1455.19 144.839 1444.16 139.136C1435.48 134.653 1429.21 126.438 1429.21 119.572C1429.21 117.231 1432.46 116.647 1438.92 117.828C1448.62 119.598 1456.63 116.084 1478.58 100.445C1483.6 96.869 1492.09 94.5123 1500.64 94.3183C1518 93.9248 1523.62 91.0121 1518.62 84.996C1516.66 82.6367 1515.68 80.084 1516.44 79.3234C1520.26 75.5061 1569.48 68.6275 1580.82 70.327C1591.73 71.9622 1595.1 71.0776 1604.08 64.2346C1609.85 59.8316 1614.58 55.0439 1614.58 53.595C1614.58 49.9415 1588.45 50.2678 1586.17 53.9498C1583.04 59.0162 1578.98 57.2533 1580.12 51.323C1581.09 46.3159 1578.56 45.5011 1556.78 43.806C1497.31 39.1771 1492.48 38.091 1499.61 30.959C1505.89 24.6885 1521.27 24.81 1534.15 31.2318C1539.42 33.863 1548.16 36.0158 1553.57 36.0158C1558.97 36.0158 1564.23 37.3609 1565.25 39.0048C1566.26 40.6488 1571.5 41.9938 1576.88 41.9938C1591.79 41.9938 1620.63 48.433 1618.82 51.3594C1617.94 52.7841 1620.72 53.9498 1625.01 53.9498C1629.3 53.9498 1637.12 56.2662 1642.38 59.0972C1649.46 62.9045 1659.35 64.2742 1680.36 64.3583C1702.94 64.4487 1710.44 65.6082 1716.98 70.0162C1721.5 73.0655 1725.18 76.4144 1725.16 77.4583C1725.14 78.5022 1718.24 83.1514 1709.83 87.7897C1689.52 98.9917 1693.81 103.874 1718.38 97.5097C1734.29 93.3877 1737.94 93.3613 1751.12 97.2726C1761.93 100.482 1768.68 100.894 1776.01 98.7918C1783.33 96.6937 1790.84 97.1442 1803.58 100.446C1816.88 103.891 1823.77 104.241 1832.2 101.901C1851.44 96.5605 1875.1 98.0688 1888.83 105.51C1895.65 109.209 1908.23 116.053 1916.79 120.719C1931.96 128.99 1932.62 129.082 1943.14 124.367C1951.94 120.42 1956.86 120.09 1969.84 122.572C1982.75 125.039 1987.45 124.739 1994.72 120.98C2001.83 117.303 2002.98 115.496 2000.26 112.226C1995.01 105.902 2013.64 103.552 2036.53 107.649C2047.01 109.526 2060.29 111.4 2066.05 111.813C2071.8 112.226 2083.05 115.505 2091.04 119.099C2103.22 124.581 2112.41 125.823 2148.06 126.802C2181.88 127.73 2192.65 129.083 2200.81 133.431C2209.09 137.843 2218.53 138.965 2249.93 139.272C2278.81 139.553 2291.75 140.923 2300.32 144.604C2314.16 150.548 2319.69 148.368 2312.16 139.942C2306.74 133.881 2306.78 133.873 2327.66 135.947C2362.66 139.422 2404.64 147.079 2418.85 152.577C2426.25 155.44 2440.36 158.767 2450.2 159.97C2460.03 161.174 2474.39 165.352 2482.1 169.257C2493.79 175.183 2497.59 175.838 2505.11 173.22C2515.38 169.64 2522.04 172.218 2537.73 185.84L2547.48 194.304L2540.13 196.147C2532.76 197.997 2513.18 193.152 2506.44 187.808C2504.45 186.237 2501.67 185.667 2500.26 186.542C2498.84 187.417 2491.85 186.123 2484.72 183.667C2468.02 177.914 2460.6 180.075 2468.21 188.478C2473.4 194.216 2473.29 194.337 2463.38 193.646C2444.84 192.353 2449.94 197.827 2477.16 208.44C2491.96 214.211 2504.7 219.546 2505.47 220.296C2508.28 223.011 2499.03 226.378 2492.3 225.091C2484.9 223.679 2466.69 231.609 2466.69 236.239C2466.69 237.777 2463.81 241.716 2460.3 244.992C2454.42 250.464 2453.21 250.589 2445.35 246.526C2437.99 242.724 2435.64 242.684 2428.57 246.244C2424.05 248.522 2416.32 251.355 2411.4 252.539C2406.47 253.724 2400.77 256.083 2398.72 257.782C2392.7 262.774 2403.31 277.306 2418.26 284.537C2426.39 288.476 2432.29 293.753 2434.04 298.672C2435.58 302.989 2438.84 310.078 2441.28 314.427C2445.27 321.514 2445.23 322.523 2440.95 324.166C2437.81 325.371 2436.89 327.785 2438.25 331.205C2439.4 334.068 2440.69 339.773 2441.13 343.883C2441.57 347.993 2442.88 353.588 2444.06 356.316C2445.59 359.868 2444.32 361.87 2439.61 363.366C2434.37 365.03 2430.83 363.025 2422.2 353.491C2416.25 346.911 2406.32 337.852 2400.14 333.36C2393.95 328.868 2382.87 317.186 2375.51 307.401C2362.53 290.14 2362.27 289.353 2366.58 281.027C2369.02 276.306 2371.06 269.351 2371.12 265.57C2371.18 261.79 2373.08 255.356 2375.34 251.273C2379.66 243.475 2377.99 237.249 2368.76 226.661C2362.7 219.709 2351.91 224.92 2354.63 233.487C2357.14 241.379 2349.45 243.936 2340.61 238.152C2336.78 235.644 2327.95 232.685 2321 231.575C2309.07 229.671 2308.18 230.037 2305.09 238.15C2303.29 242.875 2302.53 250.344 2303.41 254.749C2304.78 261.611 2303.83 263.015 2296.76 264.566C2291.96 265.621 2283.73 264.373 2277.02 261.571C2269.66 258.494 2262.72 257.564 2257.72 258.984C2253.43 260.203 2238.93 261.309 2225.5 261.443C2204.22 261.654 2200.12 262.583 2193.65 268.657C2189.57 272.491 2184.66 281.906 2182.75 289.58C2180.84 297.253 2177.33 306.526 2174.96 310.185C2170.86 316.51 2171.26 317.149 2182.98 323.125C2195.69 329.611 2209.56 331.32 2220.07 327.696C2228.18 324.901 2252.91 344.179 2260.64 359.313C2263.8 365.512 2269.03 371.997 2272.26 373.724C2284.47 380.258 2286.95 423.128 2276.74 451.156C2269.67 470.562 2261.75 476.907 2250.13 472.49C2245.69 470.802 2241.61 469.421 2241.06 469.421C2240.51 469.421 2237.19 474.939 2233.67 481.684C2229.05 490.54 2228.15 495.001 2230.43 497.744C2234.79 502.993 2231.56 509.819 2222.85 513.787C2218.83 515.619 2215.54 518.42 2215.54 520.011C2215.54 521.603 2224.9 529.341 2236.33 537.207C2250.87 547.214 2258.65 554.9 2262.21 562.803C2265.01 569.015 2266.76 574.591 2266.09 575.194C2265.42 575.797 2259.31 579.095 2252.51 582.523L2240.14 588.755L2232.7 571.681C2224.38 552.573 2217.23 544.888 2204.65 541.502C2198.31 539.798 2196.11 537.381 2196.11 532.147C2196.11 527.349 2193.01 523.272 2186.42 519.413C2176.82 513.791 2176.63 513.797 2166.41 520.109C2156.19 526.426 2156.07 526.43 2152.93 520.565C2151.19 517.311 2149.76 512.591 2149.76 510.074C2149.76 507.558 2147.25 504.155 2144.18 502.512C2139.61 500.068 2136.73 501.544 2128.33 510.626C2122.69 516.733 2115.45 523.215 2112.26 525.031C2107.3 527.848 2107.04 529.04 2110.46 533.155C2112.66 535.808 2120.26 541.219 2127.35 545.181C2138.63 551.482 2140.79 551.84 2144.59 548.039C2148.21 544.425 2151.15 544.293 2162.06 547.253L2175.18 550.814L2167.87 555.7C2154.3 564.762 2150.03 569.519 2148.09 577.698C2146.5 584.41 2147.45 586.429 2153.48 589.174C2157.5 591.007 2163.62 598.317 2167.07 605.419C2170.52 612.522 2177.42 620.737 2182.39 623.675C2193.33 630.137 2196.51 637.003 2190.19 640.539C2184.29 643.835 2187.11 648.762 2194.88 648.762C2204.19 648.762 2204.25 654.314 2195.25 686.365C2184.35 725.179 2174.51 738.13 2148.77 747.545C2138.63 751.253 2126.29 754.51 2121.36 754.783C2109.89 755.418 2101 760.272 2093.24 770.132L2087.08 777.959L2084.21 770.407C2080.47 760.555 2071.87 758.078 2059.54 763.294C2048.24 768.074 2040.79 775.697 2037.78 785.554C2035.09 794.374 2044.62 809.888 2060.38 822.372C2073.33 832.621 2087.85 858.337 2091.26 877.05C2094.22 893.327 2088.97 904.01 2074.87 910.366C2068.45 913.261 2062.44 918.009 2061.51 920.917C2059.3 927.9 2046.02 936.594 2043.59 932.657C2042.57 931.016 2042.53 927.186 2043.5 924.144C2044.47 921.102 2044.42 916.431 2043.39 913.764C2041.92 909.926 2040.29 909.58 2035.57 912.106C2030.65 914.737 2028.75 914.07 2024.78 908.315C2015.02 894.171 1986.74 871.442 1978.9 871.442C1976.14 871.442 1975.08 874.763 1975.55 881.904C1975.93 887.658 1974.76 898.876 1972.94 906.833C1969.99 919.797 1970.29 922.172 1975.86 929.697C1979.27 934.316 1982.92 941.476 1983.95 945.608C1985.01 949.805 1993.66 959.388 2003.54 967.317C2020.02 980.532 2021.76 983.141 2028.7 1005.09C2032.8 1018.06 2036.15 1029.95 2036.15 1031.51C2036.15 1036.58 2029.9 1034.52 2016.87 1025.17C2003.39 1015.49 1994.79 1000.19 1987.61 973.134C1984.5 961.388 1981.08 956.353 1971.38 949.222C1959.49 940.477 1959.13 939.713 1960.09 925.244C1960.64 917.024 1961.98 905.374 1963.09 899.353C1964.64 890.878 1963.35 884.806 1957.4 872.452C1953.17 863.677 1948.17 850.2 1946.28 842.503C1942.07 825.307 1936.13 822.428 1925.62 832.492C1921.28 836.653 1916.88 840.058 1915.86 840.058C1911.1 840.058 1904.56 829.931 1906.13 824.99C1908.98 816.018 1891.46 784.744 1881.21 780.499C1875.6 778.177 1870.48 772.544 1867.04 764.936C1861.08 751.719 1854.39 746.661 1847.71 750.317C1845.29 751.644 1835.58 754.312 1826.15 756.247C1808.85 759.793 1802.64 765.031 1805.01 774.084C1805.88 777.418 1802.85 780.638 1795.59 784.098C1789.71 786.904 1783.37 792.546 1781.5 796.637C1779.64 800.728 1775.53 804.893 1772.38 805.893C1769.23 806.894 1764.36 811.468 1761.57 816.059C1758.78 820.65 1750.46 829.039 1743.09 834.703C1733 842.454 1729.85 846.791 1730.35 852.243C1733.29 884.118 1728.79 910.786 1717.81 926.623C1707.1 942.07 1706.35 942.501 1697.29 938.374C1692.3 936.102 1689.23 931.666 1687.96 924.893C1686.92 919.341 1680.9 903.698 1674.58 890.131C1636.35 808.044 1630.7 792.381 1633.95 777.558C1636.15 767.541 1630.87 752.427 1625.77 754.138C1623.73 754.824 1622.02 757.288 1621.97 759.612C1621.72 773.255 1606.39 775.35 1594.41 763.378L1586.48 755.444L1593.3 752.92C1600.98 750.079 1600.28 742.418 1592.47 743.822C1589.69 744.321 1583.33 741.295 1578.34 737.097C1573.35 732.899 1568.12 729.465 1566.71 729.465C1565.3 729.465 1563.29 726.76 1562.25 723.454C1559.49 714.774 1543.63 707.222 1535.68 710.805C1528.53 714.03 1463.63 713.356 1452.76 709.945C1448.85 708.716 1441.61 703.092 1436.68 697.448C1427.77 687.248 1427.63 687.208 1414.26 690.811C1401.59 694.225 1399.75 693.904 1382.68 685.291C1367.93 677.848 1363.51 673.834 1358.96 663.741C1353.15 650.864 1340.25 641.54 1332.41 644.549C1329.94 645.497 1327.05 650.205 1326 655.011C1324.48 661.915 1326.03 666.401 1333.36 676.366C1338.46 683.305 1344.02 694.125 1345.71 700.41C1349.35 713.911 1356.53 717.927 1362.48 709.789C1366.08 704.878 1367.05 704.707 1369.48 708.556C1371.03 711.014 1371.87 714.37 1371.34 716.014C1369.68 721.181 1386.93 729.683 1394.98 727.664C1399.05 726.643 1407.74 719.716 1414.3 712.27C1424.63 700.539 1428.23 699.747 1426.47 709.598C1425.28 716.229 1430.5 724 1439.14 728.465C1452.48 735.36 1471.06 750.72 1471.06 754.85C1471.06 756.754 1467.57 761.573 1463.3 765.559C1459.03 769.544 1452.88 777.977 1449.64 784.298C1441.76 799.657 1418.93 822.124 1411.2 822.124C1402.26 822.124 1388.97 829.667 1383.68 837.74C1381.17 841.566 1374.58 846.961 1369.03 849.73C1340.61 863.913 1306.4 878.291 1296.77 880.097C1286.47 882.028 1285.64 881.561 1280.19 870.808C1277.03 864.581 1273.44 852.088 1272.22 843.047C1270.64 831.287 1267.55 823.812 1261.4 816.789C1256.67 811.389 1252.8 805.674 1252.8 804.089C1252.8 802.504 1247.41 795.649 1240.81 788.856C1232.6 780.396 1227.29 771.214 1223.97 759.71C1221.3 750.473 1215.86 738.88 1211.89 733.948C1184.45 699.883 1176.32 687.871 1172.23 675.328C1166.81 658.703 1162.23 656.018 1160.11 668.23L1158.61 676.898L1148.49 664.131C1132.91 644.458 1130.94 653.401 1145.58 677.417C1152.5 688.782 1163.54 708.84 1170.1 721.992C1176.67 735.144 1185.18 750.066 1189.02 755.153C1192.97 760.391 1196 768.578 1196 774.031C1196 785.294 1199.36 792.324 1212.56 808.673C1217.87 815.249 1223.12 824.85 1224.22 830.008C1225.63 836.624 1231.4 843.541 1243.81 853.49C1262.67 868.609 1274.88 884.39 1277.92 897.542C1279.06 902.482 1283.37 907.553 1288.84 910.382C1297.18 914.693 1300.12 914.575 1326.47 908.867C1342.18 905.463 1358.84 900.718 1363.47 898.323L1371.89 893.968L1373.89 905.8C1375.71 916.551 1373.75 921.729 1352.47 962.541C1329.58 1006.42 1328.51 1007.87 1305.76 1025.83C1292.95 1035.94 1279.54 1048.32 1275.97 1053.33C1272.4 1058.35 1260.96 1071.9 1250.56 1083.45C1220.21 1117.14 1216.08 1146.77 1236.21 1186.49C1241.33 1196.58 1243.32 1204.22 1242.11 1209.04C1241.1 1213.06 1241.75 1223.2 1243.55 1231.58C1246.38 1244.77 1246.06 1248.3 1241.16 1257.9C1234.09 1271.75 1228.46 1276.72 1208.7 1286.62C1200.07 1290.95 1193.01 1295.76 1193.01 1297.33C1193.01 1298.89 1186.95 1306.98 1179.55 1315.31C1172.15 1323.64 1166.1 1331.81 1166.1 1333.46C1166.1 1335.12 1168.87 1341.91 1172.26 1348.55C1182.43 1368.47 1175.6 1382.9 1151.23 1392.99C1140.96 1397.24 1137.59 1405.92 1140.13 1421.58C1141.46 1429.78 1140.61 1432.51 1135.97 1434.99C1132.76 1436.71 1126.96 1443.1 1123.07 1449.2C1110.82 1468.44 1075.59 1502.49 1059.58 1510.56C1046.23 1517.29 1042.81 1517.89 1033 1515.18C1024.35 1512.79 1017.36 1513.17 1002.86 1516.81C979.365 1522.71 981.858 1522.95 972.759 1513.86ZM1366.57 560.509C1374.29 556.519 1375.39 554.322 1375.39 542.941C1375.39 534.781 1373.64 528.485 1370.71 526.049C1368.13 523.912 1363.96 518.171 1361.43 513.291C1357.26 505.218 1357.28 504.583 1361.63 506.254C1367.38 508.46 1375.39 505.807 1375.39 501.694C1375.39 500.069 1372.61 494.834 1369.21 490.061C1364.09 482.872 1362.03 481.913 1357.25 484.474C1353.38 486.545 1351.47 486.564 1351.47 484.532C1351.47 482.863 1346.13 478.777 1339.61 475.45C1325.18 468.088 1320.04 459.932 1324.54 451.522C1327.95 445.158 1340.12 440.698 1345.32 443.909C1352.33 448.24 1354.39 441.856 1348.61 433.738C1334.59 414.05 1315.06 415.346 1290.85 437.571C1275.22 451.914 1273.86 455.725 1282.7 460.454C1285.99 462.214 1288.68 465.654 1288.68 468.098C1288.68 470.543 1294 478.311 1300.5 485.361C1315.47 501.597 1318.22 509.016 1316.36 528.232L1314.87 543.702L1335.41 554.238C1346.71 560.033 1356.36 564.841 1356.85 564.922C1357.34 565.003 1361.72 563.017 1366.57 560.509ZM1284.2 1395.43C1275.76 1390.64 1274.56 1388.12 1272.35 1370.47C1270.59 1356.38 1271.32 1353.31 1279.76 1339.6C1288.33 1325.67 1288.95 1322.99 1287.06 1307.86C1284.33 1286.01 1288.98 1274.53 1301.68 1271.74C1313.65 1269.12 1339.54 1246.26 1345.75 1232.85L1350.49 1222.6L1353.78 1229.83C1362.07 1248.02 1361.23 1256.02 1346.81 1295.92C1339.09 1317.27 1330.81 1342.81 1328.4 1352.67C1320.72 1384.24 1316.35 1391.85 1303.75 1395.62C1290.35 1399.64 1291.64 1399.65 1284.2 1395.43ZM2757.01 1343.46C2747.47 1333.03 2741.76 1324.08 2741.76 1319.55C2741.76 1309.52 2743.37 1310.4 2752 1325.12C2756.12 1332.15 2763.58 1341.82 2768.57 1346.6C2773.56 1351.38 2777.64 1356.38 2777.64 1357.71C2777.64 1363.46 2771.27 1359.07 2757.01 1343.46ZM1423.23 1339.22C1423.23 1337.58 1424.57 1336.23 1426.22 1336.23C1427.86 1336.23 1429.21 1337.58 1429.21 1339.22C1429.21 1340.86 1427.86 1342.21 1426.22 1342.21C1424.57 1342.21 1423.23 1340.86 1423.23 1339.22ZM2997.72 1333.77C2996.66 1332.06 2997.26 1329.77 2999.04 1328.67C3003.48 1325.92 3005.05 1328.1 3002.09 1332.9C3000.5 1335.47 2998.96 1335.78 2997.72 1333.77ZM1444.16 1328.94C1444.16 1328.21 1445.5 1326.79 1447.15 1325.77C1448.79 1324.75 1450.14 1325.35 1450.14 1327.09C1450.14 1328.83 1448.79 1330.25 1447.15 1330.25C1445.5 1330.25 1444.16 1329.66 1444.16 1328.94ZM2919.97 1298.6C2917.05 1291.01 2920.75 1288.35 2928.99 1292.11C2936.11 1295.35 2936.26 1295.84 2931.3 1299.47C2924.37 1304.54 2922.18 1304.37 2919.97 1298.6ZM2938.91 1285.31C2933.07 1281.7 2937.11 1278.81 2946.41 1279.96C2953.69 1280.86 2953.86 1281.19 2948.66 1284.4C2945.33 1286.45 2941.35 1286.82 2938.91 1285.31ZM2799.31 1274.34C2793.17 1261.12 2795.33 1256.04 2801.68 1268.77C2808.28 1282.01 2808.4 1282.44 2805.29 1282.41C2804.06 1282.39 2801.37 1278.76 2799.31 1274.34ZM2810.76 1272.22C2810.63 1269.07 2811.34 1267.3 2812.33 1268.29C2813.33 1269.29 2813.43 1271.87 2812.57 1274.02C2811.61 1276.41 2810.91 1275.7 2810.76 1272.22ZM3054.17 1243.52C3051.43 1239.09 3054.03 1236.83 3060.41 1238.08C3065.08 1238.99 3065.13 1239.47 3060.91 1242.97C3057.55 1245.76 3055.65 1245.91 3054.17 1243.52ZM1287.19 1228.63C1286.17 1226.98 1286.76 1225.64 1288.51 1225.64C1290.25 1225.64 1291.67 1226.98 1291.67 1228.63C1291.67 1230.27 1291.08 1231.62 1290.35 1231.62C1289.63 1231.62 1288.2 1230.27 1287.19 1228.63ZM2599.74 1200.55C2580.82 1194.58 2572.24 1189.04 2564.79 1177.98C2556.29 1165.34 2540.72 1155.77 2532.77 1158.29C2529.55 1159.31 2524.14 1164.86 2520.74 1170.61C2514.96 1180.41 2513.85 1180.95 2503.34 1179.09C2497.16 1177.99 2488.53 1173.76 2484.16 1169.69C2478.61 1164.52 2474.36 1162.88 2470.02 1164.26C2466.61 1165.34 2461.67 1165.02 2459.04 1163.55C2454.93 1161.25 2455.34 1160.17 2461.91 1155.87C2469.52 1150.88 2469.54 1150.81 2464.43 1140.1C2460.32 1131.5 2454.66 1127.02 2436.15 1117.71C2423.42 1111.31 2409.03 1106.08 2404.17 1106.08C2393.05 1106.08 2388.46 1095.83 2396.84 1089.71C2401.82 1086.07 2401.09 1085.16 2388.09 1078.85C2374.29 1072.15 2374.09 1071.86 2380.69 1068.2C2384.41 1066.14 2390.41 1064.4 2394.02 1064.34C2401.02 1064.22 2409.88 1074.33 2409.88 1082.43C2409.88 1085.13 2412.79 1091.03 2416.34 1095.55C2422.71 1103.64 2422.87 1103.68 2427.56 1097.83C2430.17 1094.57 2438.51 1088.35 2446.09 1084.01L2459.87 1076.11L2478.98 1084.73C2489.49 1089.47 2504.4 1095.62 2512.13 1098.4C2519.85 1101.19 2535.3 1109.46 2546.46 1116.78C2567.77 1130.77 2577.02 1142.57 2571.71 1148.97C2567.39 1154.18 2584.39 1177.93 2601.98 1191.25C2621.33 1205.89 2621 1207.25 2599.74 1200.55ZM2729.86 1200.3C2727.5 1197.46 2727.27 1195.75 2729.26 1195.75C2732.87 1195.75 2737.08 1201.42 2735.01 1203.49C2734.26 1204.24 2731.94 1202.81 2729.86 1200.3ZM2227.5 1188.14C2223.17 1185.74 2221.91 1183.98 2224.51 1183.94C2229.85 1183.87 2238.39 1188.85 2236.38 1190.86C2235.6 1191.63 2231.61 1190.41 2227.5 1188.14ZM2278.05 1184.19C2286.53 1172.28 2299.8 1167.19 2312.06 1171.13C2321 1174 2321.14 1174.24 2314.05 1174.52C2309.85 1174.69 2300.04 1178.86 2292.27 1183.79C2274.51 1195.05 2270.23 1195.17 2278.05 1184.19ZM2711.86 1188.28C2707.82 1183.41 2708.79 1182.8 2716.1 1185.61C2718.7 1186.6 2720.83 1188.62 2720.83 1190.09C2720.83 1194.22 2715.99 1193.24 2711.86 1188.28ZM2725.86 1185.64C2724.74 1182.71 2723.91 1178.07 2724.01 1175.33C2724.14 1172.03 2725.17 1172.78 2727.08 1177.56C2728.67 1181.53 2729.51 1186.17 2728.94 1187.87C2728.37 1189.57 2726.99 1188.57 2725.86 1185.64ZM2957.03 1188.45C2957.03 1187.73 2958.38 1186.3 2960.02 1185.29C2961.66 1184.27 2963.01 1184.86 2963.01 1186.61C2963.01 1188.35 2961.66 1189.77 2960.02 1189.77C2958.38 1189.77 2957.03 1189.18 2957.03 1188.45ZM2192.35 1175.9C2190.29 1175.03 2189.36 1173.08 2190.29 1171.58C2192.57 1167.89 2211.73 1168.09 2214.05 1171.84C2215.06 1173.48 2214.13 1174.84 2211.98 1174.87C2209.83 1174.89 2205.38 1175.49 2202.09 1176.19C2198.8 1176.9 2194.42 1176.77 2192.35 1175.9ZM2236.74 1173.65C2231.31 1167.11 2237.57 1165.12 2251.65 1168.91C2265.84 1172.73 2265.8 1173.33 2251.09 1175.98C2243.45 1177.36 2239.25 1176.68 2236.74 1173.65ZM2685.65 1171.84C2683.58 1168.53 2683.21 1165.86 2684.82 1165.86C2686.42 1165.86 2689.17 1168.55 2690.93 1171.84C2692.69 1175.12 2693.06 1177.81 2691.76 1177.81C2690.45 1177.81 2687.7 1175.12 2685.65 1171.84ZM2704.37 1168.83C2696.38 1160 2700.66 1158.61 2708.88 1167.36C2712.74 1171.47 2714.52 1174.83 2712.85 1174.83C2711.17 1174.83 2707.35 1172.13 2704.37 1168.83ZM2143.79 1168.31C2133.1 1166.83 2118.03 1163.54 2110.3 1161.01C2102.56 1158.47 2093.46 1157.28 2090.05 1158.36C2083.21 1160.53 2054.09 1151.97 2054.09 1147.79C2054.09 1138.23 2080.89 1137.51 2095.14 1146.68C2100.45 1150.1 2104.64 1150.33 2115.89 1147.81C2128.34 1145.02 2130.94 1145.36 2138.25 1150.77C2142.81 1154.14 2147.89 1156.89 2149.54 1156.89C2155.45 1156.89 2173.4 1166.89 2171.88 1169.34C2171.04 1170.71 2168.74 1171.65 2166.78 1171.42C2164.82 1171.19 2154.47 1169.79 2143.79 1168.31ZM2680.47 1153.9C2677.49 1150.61 2676.4 1147.92 2678.05 1147.92C2679.69 1147.92 2683.47 1150.61 2686.45 1153.9C2689.42 1157.19 2690.51 1159.88 2688.87 1159.88C2687.22 1159.88 2683.44 1157.19 2680.47 1153.9ZM2661.61 1150.12C2659.91 1148.07 2657.66 1142.37 2656.6 1137.45C2654.9 1129.52 2655.09 1129.18 2658.27 1134.47C2660.25 1137.76 2663.79 1142.67 2666.13 1145.39C2668.61 1148.26 2669.21 1151.05 2667.55 1152.08C2665.98 1153.05 2663.31 1152.16 2661.61 1150.12ZM2598.29 1140.61L2590.86 1136.5L2602.38 1134.34C2608.71 1133.15 2618.45 1128.19 2624.01 1123.3C2630.08 1117.97 2634.11 1116.04 2634.08 1118.47C2634.01 1124.55 2630.33 1129.23 2619.16 1137.48C2607.48 1146.09 2608.03 1146 2598.29 1140.61ZM2037.44 1128.97C2026.45 1122.72 2006.64 1098.51 2000.19 1083.47C1996.71 1075.36 1988.74 1061.99 1982.47 1053.77C1976.2 1045.55 1969.01 1034.79 1966.49 1029.86C1963.96 1024.93 1956.29 1015.51 1949.44 1008.94C1935 995.071 1926.12 980.502 1932.18 980.606C1940.02 980.741 1960.22 991.967 1968.88 1001.01C1992.77 1025.95 1997.67 1030.38 2008.95 1037.33C2019.84 1044.04 2024.99 1051.02 2025.51 1059.75C2025.61 1061.39 2028.7 1066.1 2032.39 1070.21C2036.08 1074.32 2043.03 1082.05 2047.85 1087.39C2052.66 1092.73 2057.47 1101.05 2058.53 1105.89C2062.01 1121.74 2049.25 1135.7 2037.44 1128.97ZM1435.19 1127C1435.19 1125.36 1436.53 1124.01 1438.18 1124.01C1439.82 1124.01 1441.17 1125.36 1441.17 1127C1441.17 1128.65 1439.82 1129.99 1438.18 1129.99C1436.53 1129.99 1435.19 1128.65 1435.19 1127ZM2225.99 1126.97C2224.97 1125.32 2224.96 1121.34 2225.96 1118.14C2226.98 1114.94 2225.74 1109.18 2223.21 1105.32C2219.05 1098.96 2219.09 1097.63 2223.63 1091.14C2226.39 1087.21 2229.65 1076.63 2230.87 1067.64C2232.37 1056.55 2235.35 1049.04 2240.12 1044.27C2246.64 1037.75 2248.28 1037.46 2262.95 1040.24C2275.54 1042.63 2280.5 1042.33 2287.36 1038.79C2298.84 1032.85 2299.68 1033.12 2295.86 1041.49C2291.02 1052.12 2281.33 1055.52 2271.12 1050.17C2252.89 1040.62 2228.7 1054.81 2241.46 1067.57C2246.15 1072.26 2248.75 1072.69 2257.44 1070.2C2272.33 1065.93 2278.2 1066.71 2268.96 1071.73C2258.49 1077.42 2256.5 1083.73 2261.89 1094.16C2264.35 1098.91 2266.36 1106.27 2266.36 1110.52C2266.36 1117.32 2265.64 1117.86 2260.37 1115.04C2257.08 1113.28 2252.33 1106.92 2249.82 1100.91C2245.29 1090.06 2245.21 1090.03 2239.41 1095.83C2234.32 1100.91 2233.97 1103.17 2236.76 1113.26C2239.28 1122.37 2239.11 1125.38 2235.97 1127.37C2230.69 1130.72 2228.23 1130.62 2225.98 1126.97H2225.99ZM2636.2 1111.03C2633.38 1106.73 2626.93 1101.07 2621.86 1098.45C2616.79 1095.83 2613.31 1093.01 2614.13 1092.19C2618.78 1087.54 2644.73 1108.65 2642.52 1115.28C2641.84 1117.32 2639.13 1115.49 2636.2 1111.03ZM2166.68 1101.08C2162.17 1098.72 2156.1 1097.55 2153.18 1098.47C2145.74 1100.83 2116.19 1094.82 2113.27 1090.35C2110.94 1086.8 2104.09 1064.9 2100.43 1049.29C2099.42 1045 2100.43 1039.43 2102.78 1036.21C2106.2 1031.53 2107.97 1031.18 2113.39 1034.08C2119.11 1037.14 2120.32 1036.61 2123.46 1029.73C2125.42 1025.43 2131.95 1019.4 2137.97 1016.33C2144.34 1013.08 2150.47 1006.99 2152.64 1001.75C2155.14 995.711 2159.71 991.652 2166.55 989.395C2172.15 987.546 2180.25 981.435 2184.54 975.814C2188.82 970.194 2193.93 965.595 2195.88 965.595C2197.83 965.595 2203.72 970.035 2208.99 975.462L2218.55 985.329L2210.88 995.638C2202.17 1007.35 2202.63 1017.42 2212.5 1031.28L2218.48 1039.67L2211.03 1044.55C2206.93 1047.23 2203.59 1051.08 2203.6 1053.09C2203.62 1059.94 2184.46 1099.4 2179.66 1102.4C2176.32 1104.49 2172.42 1104.09 2166.68 1101.08ZM2340.37 1101.03C2334.18 1099.41 2333.32 1094.12 2339.25 1094.12C2341.51 1094.12 2347.84 1095.02 2353.31 1096.11C2361.74 1097.8 2362.37 1098.45 2357.42 1100.39C2350.93 1102.92 2348.04 1103.03 2340.37 1101.03ZM2816.51 1062.91C2816.51 1062.19 2817.85 1060.77 2819.5 1059.75C2821.14 1058.73 2822.49 1059.33 2822.49 1061.07C2822.49 1062.81 2821.14 1064.23 2819.5 1064.23C2817.85 1064.23 2816.51 1063.64 2816.51 1062.91ZM2329.9 1054.81C2327.5 1052.42 2327.36 1049.65 2329.44 1045.78C2331.08 1042.71 2331.63 1038.91 2330.65 1037.33C2327.96 1032.97 2334.71 1022.39 2340.19 1022.39C2344.59 1022.39 2344.57 1022.9 2340 1027.95C2336.05 1032.31 2335.61 1035.2 2337.96 1041.37C2342.7 1053.85 2337.54 1062.45 2329.9 1054.81ZM828.242 1044.98C828.242 1044.26 829.587 1042.83 831.232 1041.82C832.876 1040.8 834.222 1041.39 834.222 1043.13C834.222 1044.87 832.876 1046.3 831.232 1046.3C829.587 1046.3 828.242 1045.71 828.242 1044.98ZM2901.72 1037.33C2900.7 1035.69 2901.29 1034.34 2903.04 1034.34C2904.78 1034.34 2906.2 1035.69 2906.2 1037.33C2906.2 1038.98 2905.61 1040.32 2904.88 1040.32C2904.16 1040.32 2902.73 1038.98 2901.72 1037.33ZM846.181 1009.11C846.181 1008.39 847.527 1006.96 849.171 1005.95C850.815 1004.93 852.161 1005.52 852.161 1007.27C852.161 1009.01 850.815 1010.43 849.171 1010.43C847.527 1010.43 846.181 1009.84 846.181 1009.11ZM2284.34 964.172C2278.64 950.873 2277.88 950.275 2269.1 952.202C2260.35 954.123 2260.05 953.888 2263.32 947.765C2266.04 942.695 2268.56 941.688 2274.99 943.1C2281.19 944.462 2285.15 943.085 2291.22 937.457C2295.64 933.363 2299.29 927.595 2299.32 924.639C2299.42 917.095 2310.52 942.396 2313.05 955.922C2314.98 966.193 2314.74 966.752 2310.07 962.883C2303.13 957.139 2296.45 963.097 2302.14 969.952C2304.41 972.687 2304.71 974.562 2302.86 974.562C2301.15 974.562 2297.63 975.374 2295.04 976.367C2291.57 977.698 2288.77 974.503 2284.34 964.172ZM1739.2 969.453C1735.86 964.026 1733.96 939.668 1736.37 933.205C1738.93 926.351 1739.12 926.434 1746.74 937.689C1755.87 951.177 1758.79 959.827 1755.78 964.445C1752.9 968.866 1741.04 972.447 1739.2 969.453ZM2406.89 953.992C2406.89 952.348 2408.24 950.172 2409.88 949.156C2411.53 948.14 2412.87 948.654 2412.87 950.298C2412.87 951.942 2411.53 954.118 2409.88 955.134C2408.24 956.15 2406.89 955.636 2406.89 953.992ZM2876.3 953.639C2876.3 951.995 2876.9 950.65 2877.62 950.65C2878.35 950.65 2879.77 951.995 2880.79 953.639C2881.8 955.283 2881.21 956.628 2879.47 956.628C2877.73 956.628 2876.3 955.283 2876.3 953.639ZM2197.6 936.371C2197.6 935.093 2203.6 927.359 2210.92 919.184C2221.66 907.206 2224.27 905.513 2224.38 910.462C2224.45 913.84 2219.96 921.574 2214.39 927.649C2204.95 937.95 2197.6 941.769 2197.6 936.371ZM2262.36 928.395C2261.27 925.557 2261.49 921.249 2262.85 918.82C2264.96 915.057 2265.84 915.021 2268.79 918.575C2271.43 921.758 2271.31 924.025 2268.3 928.15C2264.59 933.217 2264.22 933.232 2262.36 928.395ZM-27.2532 916.749C-25.4218 914.543 -24.8086 911.853 -25.8906 910.771C-26.9727 909.689 -25.0687 908.804 -21.6597 908.804C-16.9336 908.804 -15.8329 910.224 -17.0253 914.782C-17.9334 918.254 -21.1036 920.76 -24.5862 920.76C-29.2642 920.76 -29.8508 919.878 -27.2532 916.749ZM2282.42 915.957C2281.31 912.845 2279.85 909.29 2279.19 908.057C2278.52 906.824 2279.24 905.815 2280.79 905.815C2283.78 905.815 2287.98 918.089 2285.76 920.31C2285.04 921.028 2283.54 919.07 2282.42 915.957ZM2252.13 908.159C2247.93 903.1 2252.02 895.9 2258.3 897.301C2262.24 898.18 2262.38 899.423 2259.22 905.27C2256.17 910.912 2254.86 911.448 2252.13 908.159ZM2287.47 897.887C2284.04 893.526 2281.73 889.459 2282.34 888.849C2284.77 886.42 2293.18 891.772 2297.65 898.594C2304.53 909.085 2295.81 908.479 2287.47 897.887ZM2238.32 886.316C2235.66 883.654 2233.48 879.928 2233.48 878.037C2233.48 876.145 2236.43 877.549 2240.04 881.156C2243.65 884.764 2245.83 888.489 2244.88 889.435C2243.94 890.381 2240.98 888.977 2238.32 886.316ZM-108.584 885.889C-109.681 884.793 -110.578 882.506 -110.578 880.807C-110.578 878.935 -109.185 879.111 -107.04 881.256C-105.094 883.201 -104.197 885.488 -105.046 886.337C-105.896 887.186 -107.488 886.985 -108.584 885.889ZM-125.527 881.903C-125.527 880.259 -124.934 878.914 -124.209 878.914C-123.483 878.914 -122.058 880.259 -121.042 881.903C-120.026 883.547 -120.619 884.892 -122.361 884.892C-124.102 884.892 -125.527 883.547 -125.527 881.903ZM14.9969 875.925C14.9969 874.281 15.5903 872.936 16.3154 872.936C17.0406 872.936 18.4655 874.281 19.4818 875.925C20.498 877.569 19.9047 878.914 18.1633 878.914C16.4218 878.914 14.9969 877.569 14.9969 875.925ZM2268.4 875.47C2265.4 873.78 2259.72 873.207 2255.77 874.198C2249.98 875.65 2245.99 873.322 2235.15 862.175C2219.84 846.428 2216.86 839.789 2221.36 831.4C2223.09 828.158 2224.51 821.461 2224.51 816.518C2224.51 800.294 2235.38 800.949 2243.35 817.655C2247.77 826.91 2247.79 828.897 2243.64 838.824C2239.18 849.511 2239.26 849.987 2247.23 858.301C2252.99 864.307 2257.31 866.346 2261.85 865.204C2265.7 864.24 2269.84 865.435 2272.11 868.16C2277.49 874.646 2275.14 879.274 2268.4 875.47ZM-2.94226 856.673C-2.94226 855.948 -1.59674 854.524 0.0476685 853.508C1.69208 852.492 3.03748 853.085 3.03748 854.826C3.03748 856.567 1.69208 857.991 0.0476685 857.991C-1.59674 857.991 -2.94226 857.398 -2.94226 856.673ZM466.468 846.035C466.468 844.391 467.813 843.046 469.457 843.046C471.102 843.046 472.447 844.391 472.447 846.035C472.447 847.679 471.102 849.024 469.457 849.024C467.813 849.024 466.468 847.679 466.468 846.035ZM-11.9119 834.432C-11.9119 832.788 -10.5664 830.612 -8.922 829.596C-7.27759 828.58 -5.93213 829.094 -5.93213 830.737C-5.93213 832.381 -7.27759 834.558 -8.922 835.574C-10.5664 836.59 -11.9119 836.076 -11.9119 834.432ZM-37.3046 822.157C-38.3521 820.463 -37.1519 819.962 -34.4912 820.983C-29.3115 822.97 -28.3638 825.112 -32.6646 825.112C-34.2119 825.112 -36.3 823.783 -37.3046 822.157ZM438.064 822.123C437.047 820.479 437.641 819.134 439.382 819.134C441.124 819.134 442.548 820.479 442.548 822.123C442.548 823.767 441.955 825.112 441.23 825.112C440.505 825.112 439.08 823.767 438.064 822.123ZM-25.3663 816.145C-26.3826 814.501 -25.7892 813.156 -24.0478 813.156C-22.3063 813.156 -20.8815 814.501 -20.8815 816.145C-20.8815 817.789 -21.4749 819.134 -22.2 819.134C-22.9252 819.134 -24.35 817.789 -25.3663 816.145ZM-11.9119 816.145C-11.9119 814.501 -11.3186 813.156 -10.5934 813.156C-9.86829 813.156 -8.44342 814.501 -7.42712 816.145C-6.41083 817.789 -7.00409 819.134 -8.74554 819.134C-10.487 819.134 -11.9119 817.789 -11.9119 816.145ZM-217.466 808.188C-219.521 807.358 -221.203 805.447 -221.203 803.94C-221.203 799.631 -208.005 800.74 -201.593 805.589C-196.079 809.758 -196.237 809.97 -204.759 809.836C-209.692 809.759 -215.41 809.017 -217.466 808.188ZM-141.809 806.492C-144.491 804.992 -150.415 804.583 -154.974 805.584C-159.533 806.586 -166.545 806.092 -170.556 804.488C-177.006 801.909 -176.435 801.604 -165.62 801.857C-149.724 802.228 -145.481 799.641 -149.543 792.052C-152.427 786.666 -151.56 786.255 -137.296 786.255C-123.499 786.255 -103.594 792.582 -100.22 798.039C-97.9767 801.667 -136.455 809.488 -141.809 806.492ZM-84.4581 808.382C-88.0013 804.84 -83.5975 801.2 -75.7685 801.2C-71.0674 801.2 -68.6852 802.609 -69.4519 804.936C-70.8304 809.121 -81.3116 811.528 -84.4581 808.382ZM2078.64 803.629C2070.73 795.714 2078.56 786.255 2093.04 786.255C2099.45 786.255 2099.46 786.307 2093.95 795.73C2087.54 806.713 2083.71 808.689 2078.64 803.629ZM-59.7498 803.015C-59.7498 802.368 -57.7316 801.066 -55.265 800.119C-52.7983 799.173 -50.7802 799.702 -50.7802 801.294C-50.7802 802.886 -52.7983 804.189 -55.265 804.189C-57.7316 804.189 -59.7498 803.661 -59.7498 803.015ZM-188.996 781.589C-189.919 780.666 -196.23 779.835 -203.021 779.741C-212.39 779.612 -214.638 778.69 -212.34 775.922C-210.118 773.246 -213.308 769.684 -224.3 762.564C-245.851 748.603 -257.885 745.875 -272.363 751.666C-285.94 757.097 -286.98 757.251 -286.98 753.83C-286.98 747.574 -263.185 740.694 -246.05 741.996C-229.663 743.241 -220.488 746.728 -188.314 763.935C-161.868 778.08 -161.839 778.107 -170.375 780.54C-180.068 783.303 -186.896 783.687 -188.996 781.589ZM-167.385 756.365C-161.589 752.62 -158.416 752.62 -158.416 756.365C-158.416 758.009 -161.443 759.334 -165.143 759.308C-170.583 759.271 -171.012 758.708 -167.385 756.365ZM2213.75 751.064C2211.94 749.87 2208.83 745.798 2206.83 742.016C2203.83 736.314 2204.14 733.545 2208.66 725.816C2215.63 713.879 2220.34 712.389 2222.6 721.405C2224.98 730.889 2218.1 753.939 2213.75 751.064ZM-147.755 747.081C-145.759 743.852 -134.496 743.487 -134.499 746.651C-134.5 747.884 -137.855 749.086 -141.954 749.323C-146.053 749.559 -148.663 748.55 -147.755 747.081ZM-206.878 718.274C-211.66 712.787 -210.964 705.552 -205.656 705.552C-203.956 705.552 -203.253 708.178 -204.093 711.387C-204.932 714.596 -204.081 717.774 -202.199 718.45C-200.318 719.126 -199.572 720.544 -200.541 721.601C-201.511 722.658 -204.362 721.161 -206.878 718.274ZM-189.51 694.792C-190.574 692.02 -190.772 689.079 -189.95 688.257C-189.128 687.435 -187.584 689.031 -186.52 691.803C-185.456 694.575 -185.258 697.516 -186.081 698.338C-186.903 699.159 -188.446 697.564 -189.51 694.792ZM-208.247 692.102C-208.247 689.636 -205.684 687.618 -202.552 687.618C-197.49 687.618 -197.355 688.116 -201.342 692.102C-203.808 694.568 -206.371 696.585 -207.037 696.585C-207.702 696.585 -208.247 694.568 -208.247 692.102ZM2299.26 626.573C2299.26 624.233 2295.99 618.438 2292 613.696C2282.52 602.437 2285.88 594.923 2297.1 602.274C2305.17 607.558 2309.39 618.354 2306.41 626.106C2304.15 631.985 2299.26 632.305 2299.26 626.573ZM-20.8815 608.586C-20.8815 607.861 -19.5361 606.437 -17.8917 605.421C-16.2473 604.405 -14.9017 604.998 -14.9017 606.739C-14.9017 608.48 -16.2473 609.904 -17.8917 609.904C-19.5361 609.904 -20.8815 609.311 -20.8815 608.586ZM2315.92 604.912C2313.98 599.862 2318.56 595.089 2325.42 595.005C2330.17 594.947 2330.26 601.629 2325.57 606.317C2320.69 611.191 2318.19 610.827 2315.92 604.912ZM2343.24 594.002C2337.43 585.145 2329.23 583.929 2310.46 589.141C2302.83 591.26 2297.57 591.284 2294.02 589.215C2291.14 587.542 2290.37 586.133 2292.3 586.083C2294.23 586.033 2299.86 582.582 2304.82 578.415C2311.21 573.038 2315.89 571.356 2320.94 572.623C2326.29 573.966 2332.07 571.397 2344.22 562.27C2367.87 544.503 2370.01 538.9 2360.39 519.914C2351.15 501.692 2353.73 495.826 2367.41 503.908C2377.37 509.79 2386.76 526.64 2384.03 533.744C2383.05 536.301 2384.52 544.326 2387.28 551.576C2391.2 561.836 2391.58 566.151 2388.96 571.035C2385.12 578.209 2374.43 583.003 2362.28 583.003C2355.47 583.003 2353.44 584.75 2351.21 592.507L2348.49 602.011L2343.24 594.002ZM1132.01 583.799C1128.44 580.232 1130.34 577.025 1136.02 577.025C1139.21 577.025 1142.66 575.68 1143.67 574.036C1146.45 569.54 1151.19 570.443 1149.39 575.126C1147.55 579.931 1134.6 586.391 1132.01 583.799ZM1030.06 578.627L1021.09 574.522L1033.05 574.32C1047.94 574.068 1058.92 576.861 1056.76 580.354C1054.35 584.245 1040.35 583.339 1030.06 578.627ZM909.278 548.811C897.312 542.687 896.748 541.922 902.995 540.289C910.477 538.333 927.036 540.767 926.698 543.772C926.582 544.8 925.573 547.868 924.455 550.589C922.618 555.064 921.163 554.894 909.278 548.811ZM849.35 516.473C846.762 509.052 846.966 506.212 850.329 502.851C856.407 496.774 861.131 501.045 861.131 512.618C861.131 526.288 853.629 528.743 849.35 516.473ZM779.24 518.957C781.361 513.431 790.458 512.496 788.628 517.992C787.943 520.047 785.145 522.163 782.409 522.693C778.94 523.365 777.981 522.235 779.24 518.957ZM2341.45 484.84C2335.98 477.156 2335.83 475.74 2339.87 469.971C2343.84 464.304 2343.83 462.606 2339.74 454.7C2333.01 441.697 2333.96 440.911 2345.62 449.805C2351.39 454.201 2362.76 459.776 2370.91 462.193C2387.73 467.187 2391.79 471.108 2383.02 473.891C2379.71 474.942 2376.99 477.754 2376.99 480.141C2376.99 483.392 2374.93 483.952 2368.77 482.377C2353 478.341 2348.51 479.327 2349.53 486.608C2350.77 495.529 2348.75 495.088 2341.45 484.84ZM854.154 488.351C850.686 484.885 851.993 479.092 856.646 477.307C859.886 476.064 861.131 477.634 861.131 482.965C861.131 490.14 858.204 492.4 854.154 488.351ZM2322.48 425.333C2319.95 422.456 2313.83 412.03 2308.9 402.163C2303.96 392.296 2290.91 374.177 2279.9 361.897C2267.59 348.179 2261.34 339.083 2263.68 338.304C2265.77 337.606 2270.26 340.731 2273.65 345.249C2281.88 356.2 2292.01 365.709 2307.99 377.484C2321.24 387.245 2327.79 396.279 2319.25 393C2309.39 389.218 2311.85 398.194 2324.6 412.554C2332.04 420.925 2338.13 428.402 2338.13 429.169C2338.13 432.804 2326.57 429.971 2322.48 425.333ZM134.592 420.102C134.592 417.637 135.895 415.619 137.488 415.619C139.081 415.619 139.609 417.637 138.663 420.102C137.716 422.568 136.413 424.586 135.767 424.586C135.121 424.586 134.592 422.568 134.592 420.102ZM118.968 410.457L107.83 409.289L128.79 388.542C140.318 377.131 151.257 367.795 153.099 367.795C155.042 367.795 154.46 369.991 151.711 373.028C145.486 379.903 149.731 387.628 161.105 390.126C166.071 391.216 171.021 395.02 172.933 399.217C176.003 405.953 175.483 406.639 165.124 409.515C154.257 412.532 141.284 412.797 118.968 410.457ZM-609.57 389.013C-619.927 379.341 -621.082 375.267 -614.214 372.632C-608.064 370.272 -596.711 377.964 -592.408 387.406C-587.892 397.313 -587.973 397.685 -594.621 397.685C-597.736 397.685 -604.463 393.783 -609.57 389.013ZM707.152 373.827C710.441 372.205 716.913 369.515 721.534 367.848C731.716 364.175 730.028 360.263 717.15 357.688C708.316 355.922 708.005 355.473 713.06 351.778C716.068 349.578 717.654 346.361 716.582 344.628C715.488 342.857 718.562 340.107 723.6 338.352C728.531 336.633 732.566 333.899 732.566 332.277C732.566 325.373 726.334 313.759 722.871 314.211C714.89 315.252 711.192 313.845 712.479 310.257C713.216 308.202 712.608 304.166 711.128 301.29C707.279 293.809 716.123 278.338 724.344 278.171C725.577 278.148 726.25 279.774 725.839 281.79C725.428 283.806 728.249 285.934 732.109 286.519L739.126 287.584L725.716 301.854L733.274 304.727C741.387 307.81 749.207 317.856 757.169 335.426C760.984 343.843 763.492 346.044 767.946 344.879C777.083 342.491 778.166 348.681 769.594 354.296C763.787 358.1 762.685 360.243 765.228 362.786C767.772 365.329 762.758 367.035 745.366 369.544C732.571 371.39 717.392 373.773 711.637 374.838C703.632 376.32 702.578 376.083 707.152 373.827ZM656.731 357.316C655.708 354.651 656.875 348.598 659.324 343.863C662.134 338.431 662.678 334.576 660.798 333.415C655.617 330.213 657.559 326.128 665.171 324.218C669.215 323.203 674.089 320.488 676.002 318.183C679.985 313.385 698.403 312.502 701.169 316.977C702.184 318.618 700.918 322.952 698.356 326.609C695.794 330.265 693.698 336.833 693.698 341.205C693.698 347.87 691.648 349.863 680.991 353.562C674.002 355.987 666.103 358.914 663.438 360.066C660.312 361.417 657.931 360.44 656.731 357.316ZM711.637 327.62C711.637 326.895 712.982 325.47 714.627 324.454C716.271 323.438 717.617 324.031 717.617 325.772C717.617 327.513 716.271 328.938 714.627 328.938C712.982 328.938 711.637 328.345 711.637 327.62ZM-615.268 313.218C-618.197 309.69 -618.011 308.046 -614.336 304.996C-608.259 299.955 -605.246 303.375 -608.782 311.298C-611.221 316.762 -612.108 317.025 -615.268 313.218ZM-619.944 290.739C-620.954 289.105 -619.776 286.107 -617.328 284.076C-612.467 280.042 -611.452 283.205 -615.538 289.653C-617.099 292.116 -618.829 292.542 -619.944 290.739ZM-813.197 288.832C-813.197 286.73 -804.131 283.052 -791.27 279.937C-786.395 278.756 -783.512 279.041 -784.481 280.608C-785.407 282.105 -789.892 284.083 -794.448 285.002C-799.005 285.921 -805.087 287.584 -807.965 288.697C-810.843 289.81 -813.197 289.871 -813.197 288.832ZM963.534 255.222C958.018 252.997 958.994 249.567 965.278 249.094C968.293 248.867 970.759 250.598 970.759 252.942C970.759 257.392 969.723 257.719 963.534 255.222ZM306.509 239.945C287.589 229.63 278.545 213.783 284.027 200.551C286.622 194.289 286.701 190.352 284.322 185.908C279.371 176.659 285.831 165.821 302.35 155.659C310.196 150.833 318.03 144.242 319.759 141.013C324.548 132.067 320.283 116.736 311.948 112.939C307.73 111.018 305.434 107.98 306.366 105.552C308.489 100.022 298.535 81.1367 288.62 71.8836C281.323 65.0733 278.184 64.3952 253.198 64.2316C219.174 64.0089 212.836 62.118 213.398 52.3581C213.632 48.3039 214.531 44.9859 215.397 44.9847C216.262 44.9836 228.371 43.5806 242.306 41.8671C260.098 39.6792 276.049 35.1672 295.88 26.7126C326.585 13.6228 328.924 13.3671 402.185 15.0885C425.319 15.6321 446.602 13.9205 473.942 9.31764C499.403 5.03112 518.137 3.41525 528.254 4.63318C536.849 5.668 549.295 4.98547 556.321 3.09401C572.627 -1.29533 614.991 3.98463 631.654 12.4828C641.505 17.5068 646.717 18.1702 663.339 16.5159C681.293 14.7289 682.65 14.9639 677.253 18.9264C673.965 21.3412 663.874 24.291 654.829 25.4815C635.204 28.0649 617.17 42.0488 621.95 50.9775C624.012 54.8291 622.533 58.1165 615.867 64.5011C611.023 69.1404 606.351 75.1692 605.485 77.8986C603.403 84.4554 576.971 96.6584 563.864 97.1134C549.308 97.6187 547.786 100.712 559.043 106.911C564.361 109.839 572.124 114.829 576.294 117.999L583.876 123.762L577.021 126.297C571.767 128.24 567.504 126.988 558.761 120.93C546.896 112.71 534.13 112.669 540.94 120.872C543.596 124.072 542.957 125.314 537.987 126.614C526.876 129.519 534.735 135.262 546.988 133.193C554.787 131.876 559.174 132.57 561.612 135.508C564.514 139.003 560.729 140.621 538.953 145.197C524.575 148.218 505.411 150.801 496.366 150.936C479.564 151.187 467.456 156.009 449.645 169.543C443.837 173.956 431.494 178.329 417.05 181.092C386.863 186.866 376.661 193.544 358.472 219.437C343.862 240.234 335.053 247.986 325.944 248.059C323.477 248.079 314.732 244.428 306.509 239.945ZM94.5137 219.954C88.0928 216.01 80.2245 208.654 77.0284 203.608C70.7888 193.756 65.0359 192.504 48.1911 197.334C42.4887 198.969 36.0897 199.127 33.5309 197.695C24.6772 192.742 40.6692 187.87 58.48 190.095C72.0257 191.787 75.0355 191.305 76.6151 187.189C79.7888 178.921 94.3141 172.996 102.391 176.675C107.362 178.939 111.882 178.876 118.232 176.453C126.775 173.193 126.894 172.899 121.313 168.803C118.121 166.46 114.478 164.543 113.217 164.543C111.956 164.543 107.405 158.538 103.103 151.199C98.8006 143.86 90.7375 135.049 85.1848 131.618C75.7478 125.787 74.4992 125.685 66.0584 130.048C58.679 133.863 54.416 134.13 42.7397 131.509C34.8812 129.745 23.9088 129.151 18.3566 130.189C8.72498 131.99 -8.922 127.278 -8.922 122.905C-8.922 114.873 16.3997 96.8473 31.4413 94.1716L43.4008 92.0442L34.852 101.149C23.0593 113.71 27.4941 119.49 40.2997 108.25C45.7317 103.482 55.1199 98.6538 61.1624 97.5206C70.3951 95.789 74.3505 96.9182 85.9436 104.595C101.368 114.809 102.557 115.083 111.256 110.429C116.494 107.626 118.437 108.396 124.125 115.528C128.06 120.461 136.847 125.833 145.415 128.543C159.072 132.863 160.006 133.802 160.006 143.218C160.006 150.279 162.043 154.735 166.838 158.163C186.903 172.509 186.466 171.916 182.124 178.866C176.171 188.396 171.47 189.086 158.295 182.367C149.13 177.692 145.125 177.051 140.511 179.52C134.865 182.541 134.805 183.186 139.35 191.973C143.08 199.184 143.421 202.825 140.886 208.386C137.763 215.24 137.265 215.346 128.784 210.961C112.111 202.342 100.884 208.014 116.437 217.198C121.31 220.076 124.618 223.529 123.788 224.871C120.892 229.555 106.099 227.071 94.5137 219.954ZM708.647 223.825C708.647 222.455 710.665 221.334 713.132 221.334C715.599 221.334 717.617 222.455 717.617 223.825C717.617 225.195 715.599 226.315 713.132 226.315C710.665 226.315 708.647 225.195 708.647 223.825ZM-18.2186 207.75C-24.113 204.652 -28.6909 204.387 -36.9454 206.665C-50.9799 210.539 -55.8877 207.704 -48.766 199.837C-39.6489 189.766 -33.4656 187.785 -22.4692 191.413C-10.0925 195.497 -4.59955 201.566 -7.93842 207.469C-10.067 211.231 -11.5188 211.271 -18.2186 207.75ZM575.598 206.389C570.664 203.146 564.385 201.202 561.644 202.069C557.868 203.263 557.03 202.227 558.189 197.796C559.968 190.996 586.238 181.181 595.118 183.999C598.214 184.981 606.128 184.173 612.704 182.204C623.027 179.112 625.764 179.346 632.742 183.917L640.825 189.211L633.625 194.82C627.548 199.555 616.278 203.662 589.052 211.065C586.586 211.736 580.531 209.632 575.598 206.389ZM-236.152 150.592C-240.263 149.942 -250.278 146.426 -258.407 142.779L-273.187 136.147L-252.427 134.653C-241.009 133.831 -231.667 131.813 -231.667 130.169C-231.667 128.525 -239.74 126.459 -249.607 125.578C-262.634 124.415 -265.09 123.596 -258.576 122.589C-247.67 120.903 -246.885 116.181 -257.081 113.606C-264.424 111.753 -264.37 111.639 -254.042 107.19C-236.142 99.4802 -217.075 98.0032 -200.183 103.018C-186.314 107.136 -184.147 107.118 -177.608 102.835C-172.984 99.8059 -170.24 99.2991 -170.001 101.43C-169.796 103.263 -169.459 106.332 -169.254 108.25C-168.56 114.725 -162.596 113.887 -155.48 106.315C-148.892 99.3041 -137.472 95.9458 -137.498 101.026C-137.504 102.259 -140.164 107.621 -143.408 112.941L-149.308 122.614L-130.012 132.678L-145.853 139.907C-160.149 146.43 -163.081 146.803 -175.895 143.73C-188.319 140.75 -191.883 141.091 -204.401 146.456C-218.541 152.515 -221.522 152.903 -236.152 150.592ZM-116.24 148.486C-118.94 145.233 -117.825 143.632 -110.846 140.742C-105.989 138.73 -99.0204 138.06 -95.2865 139.245C-88.8109 141.299 -88.9601 141.622 -98.8035 146.863C-111.362 153.55 -111.988 153.608 -116.24 148.486ZM708.647 134.653C714.444 130.908 717.617 130.908 717.617 134.653C717.617 136.297 714.589 137.621 710.889 137.596C705.449 137.559 705.02 136.996 708.647 134.653ZM1257.29 126.36C1242 120.324 1242.32 120.654 1246.76 115.296C1248.84 112.791 1249.37 110.698 1247.94 110.646C1246.5 110.593 1248.02 108.518 1251.31 106.033C1254.6 103.549 1257.31 100.565 1257.34 99.4033C1257.44 94.9823 1269.62 83.3235 1278.22 79.4057C1283.15 77.1587 1295.93 74.6262 1306.62 73.7778C1317.31 72.9295 1331.63 71.3752 1338.44 70.3239C1345.68 69.205 1351.59 69.6625 1352.68 71.4273C1354.8 74.8563 1350.76 76.3139 1327.55 80.4818C1304.52 84.6175 1290.68 91.0624 1281.57 101.894C1271.96 113.304 1271.64 120.508 1280.46 126.659L1287.19 131.35L1278.22 131.216C1273.28 131.143 1263.87 128.958 1257.29 126.36ZM-308.642 117.694C-313.464 112.873 -312.365 111.824 -289.231 99.1631C-262.125 84.3288 -248.505 82.3596 -224.193 89.7597L-210.738 93.8549L-228.678 97.4109C-243.349 100.319 -274.44 110.713 -298.993 120.918C-301.497 121.958 -305.821 120.514 -308.642 117.694ZM-92.6384 113.825C-92.6384 112.234 -96.3384 108.809 -100.861 106.214L-109.083 101.496L-98.0737 103.227C-90.2515 104.456 -86.3569 103.724 -84.6193 100.696C-82.5528 97.0947 -63.5233 89.8888 -55.9357 89.8343C-54.6602 89.8242 -55.7013 93.8481 -58.2496 98.7744C-64.2513 110.377 -92.6384 122.801 -92.6384 113.825ZM-46.0883 105.098C-50.3718 98.1688 -21.1158 87.4431 -8.68823 91.3863C0.369141 94.2602 -5.68439 99.1986 -21.4828 101.824C-28.552 102.999 -36.5544 104.905 -39.2658 106.06C-41.9772 107.214 -45.0474 106.782 -46.0883 105.098ZM49.3804 83.0876C29.6473 81.5184 13.1339 79.8932 12.6841 79.4759C10.0106 76.996 16.6783 68.9236 23.8547 65.9519C30.9103 63.0302 34.1619 63.4179 43.8215 68.3328C53.2366 73.1232 59.3054 73.9194 76.7961 72.6593C88.5859 71.8098 102.04 72.0785 106.695 73.2563L115.158 75.3977L104.693 80.9879C98.9376 84.0624 92.2103 86.4346 89.7437 86.2594C87.277 86.084 69.1136 84.6567 49.3804 83.0876ZM909.799 70.8719C895.112 63.355 893.695 59.9461 905.231 59.8818C909.753 59.8565 915.472 58.3847 917.938 56.6109C921.815 53.8228 921.763 53.5947 917.555 54.9285C914.878 55.7771 911.122 54.9057 909.208 52.9937C906.563 50.3495 905.185 50.3963 903.459 53.1891C901.86 55.7749 898.578 56.0809 892.371 54.2227C876.605 49.5026 873.09 47.407 873.09 42.7271C873.09 38.763 877.042 38.3999 901.494 40.1182C920.116 41.4268 929.898 41.0641 929.898 39.0649C929.898 33.181 938.193 36.0864 940.393 42.7408L942.616 49.466L943.94 42.7408C944.667 39.0419 947.187 36.0155 949.54 36.0155C951.892 36.0155 953.817 34.4014 953.817 32.4287C953.817 29.639 954.614 29.639 957.405 32.4287C959.492 34.5151 969.497 36.0155 981.323 36.0155C1002.7 36.0155 1007.72 39.8362 993.464 45.2549C986.055 48.0708 973.17 47.2742 959.049 43.1272C956.171 42.2822 953.825 42.6902 953.835 44.0339C953.856 46.7923 970.656 56.9386 975.202 56.9386C976.83 56.9386 980.05 58.8255 982.357 61.1318C985.956 64.73 985.926 65.5649 982.144 67.016C979.719 67.946 977.736 67.2543 977.736 65.4791C977.736 63.3922 973.933 62.9645 966.977 64.269C959.444 65.6818 956.832 65.2942 958.265 62.9762C959.39 61.1554 958.685 57.707 956.698 55.3131C952.864 50.6948 941.857 49.2808 941.857 53.4066C941.857 54.7519 937.484 60.6856 932.14 66.5926L922.423 77.3325L909.799 70.8719ZM116.653 64.2963C111.469 61.2545 104.137 60.3734 92.7336 61.4221C82.0752 62.4023 73.8804 61.5573 69.4426 59.0202C63.3245 55.5224 64.8198 55.1238 83.4931 55.2749C106.843 55.464 117.098 50.4669 104.452 45.0618C98.4451 42.494 99.3211 42.2609 109.619 43.687C123.062 45.5488 128.288 41.9481 120.963 35.8709C113.153 29.3907 121.741 27.379 149.531 29.1789C166.728 30.2927 177.534 29.668 181.951 27.3046C190.414 22.777 187.093 17.0136 177.421 19.4406C170.735 21.1179 124.341 18.3655 126.3 16.4077C127.699 15.0086 193.428 8.92295 236.586 6.19652C258.973 4.78233 283.863 2.80959 291.899 1.81265L306.509 0L282.391 11.5818C259.778 22.4405 223.005 33.0266 207.898 33.0266C204.22 33.0266 193.647 37.0617 184.402 41.9936C175.157 46.9254 165.739 50.9606 163.473 50.9606C161.207 50.9606 151.428 54.9787 141.74 59.8897C132.053 64.8007 124.127 68.7883 124.127 68.7508C124.127 68.7134 120.764 66.7089 116.653 64.2963ZM58.35 36.9883C43.8597 33.7829 43.3286 32.5771 53.9769 27.0599C69.4983 19.0177 84.186 16.9564 90.8637 21.8833C96.1506 25.784 95.8441 26.3869 85.4606 32.5116C74.6387 38.8948 70.2468 39.6201 58.35 36.9883Z" fill="black"/>
</mask>
<g mask="url(#mask0_338_202)">
<rect x="137" y="90" width="1646" height="649" fill="#1A1A1A" fill-opacity="0.03"/>
</g>
</svg>
