<svg width="130" height="49" viewBox="0 0 130 49" fill="none" xmlns="http://www.w3.org/2000/svg">
<path d="M100.77 7.83014C100.072 7.0535 98.8945 6.31668 97.4776 6.31668C92.9274 6.31668 91.4307 10.3791 91.4307 14.2026C91.4307 17.7672 92.9873 21.2919 97.278 21.2919C98.4555 21.2919 99.8325 20.6149 100.272 19.878V21.1127C100.272 23.3231 100.092 24.3786 97.2181 24.3786C95.8411 24.3786 94.2246 23.8807 92.8077 23.1439L91.8697 25.7925C93.7257 26.7085 95.4819 27.2661 97.4177 27.2661C98.9145 27.2661 101.03 27.0271 102.387 25.8522C103.824 24.6773 103.884 22.5863 103.884 20.5551L103.904 6.27686L101.05 6.73487C101.05 6.69505 100.83 7.51152 100.77 7.83014ZM100.272 15.2978C100.272 15.9749 100.212 16.652 99.9522 17.2096C99.6329 17.8866 99.0142 18.3248 98.216 18.3248C95.9209 18.3248 95.6615 16.7316 95.6615 13.7047C95.6615 10.9964 96.1604 9.40334 98.1561 9.40334C99.1539 9.40334 99.8923 9.90118 100.272 10.3194V15.2978Z" fill="#D0103A"/>
<path d="M86.681 42.6992L86.701 37.7805C86.701 36.267 86.6411 35.809 86.4415 35.1917C85.8827 33.5985 84.2064 32.6626 81.7118 32.6626C80.3347 32.6626 79.0974 32.9016 77.6605 33.5189C76.8623 33.8574 76.084 34.2955 75.3456 34.7336L76.7625 37.2428C78.5187 36.1475 79.8957 35.7094 81.133 35.7094C82.5699 35.7094 82.9092 36.3467 82.9092 37.9398V38.4974H82.0111C77.3412 38.4974 74.9863 40.0905 74.9863 43.4758C74.9863 46.1045 76.4232 47.7374 79.1773 47.9963H80.7339C81.612 47.8967 82.3504 47.6179 82.9491 47.2396C83.2684 47.0603 83.5677 46.7417 83.8871 46.4231C84.2064 47.0404 84.8051 47.6179 85.4836 47.9963L85.9426 48.2153L86.1422 47.9963L88.1179 45.8854C86.8207 44.9096 86.681 44.1927 86.681 42.6992ZM80.7938 45.288C79.7959 45.288 79.1174 44.4914 79.1174 43.3763C79.1174 41.6438 79.9955 41.0065 82.6697 41.0065H82.8892V44.3919C82.3105 45.0092 81.5322 45.288 80.7938 45.288Z" fill="#D0103A"/>
<path d="M16.0938 1.37793H0.587402V16.7315L8.39051 24.478L23.9169 9.12443L16.0938 1.37793Z" fill="#D0103A"/>
<path d="M0.587402 32.2245V47.5981H16.0938L23.9169 39.8516L8.39051 24.478L0.587402 32.2245Z" fill="#D0103A"/>
<path d="M31.7201 47.5981H47.1467V32.105L39.4434 24.478L23.917 39.8516L31.7201 47.5981Z" fill="#D0103A"/>
<path d="M23.917 9.12443L39.4434 24.478L47.1467 16.851V1.37793H31.7201L23.917 9.12443Z" fill="#D0103A"/>
<path d="M129.229 18.5042C128.55 18.6835 128.231 18.8229 127.872 18.8229C126.554 18.8229 126.195 18.325 126.195 16.473V9.20446H128.61L129.608 6.55591H126.195V2.55322L122.403 3.17055V6.55591H120.907V9.20446H122.403V17.0904C122.403 18.4445 122.403 18.6835 122.643 19.3207C123.082 20.6151 124.639 21.4714 126.555 21.4714C127.552 21.4714 128.61 21.2324 129.728 20.7943L129.229 18.5042Z" fill="#D0103A"/>
<path d="M58.6616 10.7972L64.6686 21.0927H69.7377L62.8526 10.4985L69.0591 1.37793H64.3294L58.6616 10.379V1.37793H54.6304V21.0927H58.6616V10.7972Z" fill="#D0103A"/>
<path d="M77.2814 9.50312C78.3391 9.50312 78.6385 10.1802 78.6385 11.833V21.0731H82.3704V10.4988C82.3704 9.56286 82.3106 8.96544 82.1309 8.40785C81.6919 7.17319 80.1951 6.31689 78.5786 6.31689C77.7005 6.31689 76.7226 6.49612 75.9643 6.93422C75.3456 7.25285 74.727 7.73078 74.2879 8.28837L74.0484 6.35672L70.8154 6.87448V21.093H74.6671V12.53C74.6671 11.4746 74.9864 10.7378 75.4853 10.2598C76.0441 9.762 76.6628 9.50312 77.2814 9.50312Z" fill="#D0103A"/>
<path d="M85.2842 21.0927H89.1558V6.25684L85.2842 6.85425V21.0927Z" fill="#D0103A"/>
<path d="M114.74 6.19714C113.064 6.19714 111.627 6.81447 110.569 7.96948C110.569 7.79025 110.629 6.91404 110.629 6.49585V1.01953L106.718 1.65678V21.1126H110.629V13.0873C110.629 11.7332 110.809 10.9566 111.248 10.4388C111.827 9.76173 112.805 9.38336 113.683 9.38336C114.8 9.38336 115.179 10.0007 115.179 11.3548V21.0927H118.911V10.9366C118.911 9.52276 118.852 9.08465 118.532 8.2881C118.093 6.9937 116.616 6.19714 114.74 6.19714Z" fill="#D0103A"/>
<path d="M87.2396 0.203125C85.9225 0.203125 84.8647 1.25856 84.8647 2.57288C84.8647 3.88719 85.9225 4.94263 87.2396 4.94263C88.5568 4.94263 89.6145 3.88719 89.6145 2.57288C89.6145 1.27847 88.5568 0.203125 87.2396 0.203125Z" fill="#D0103A"/>
<path d="M54.5903 47.4985H58.5019V38.7563H63.6108V35.5701H58.5019V30.9501H64.8481L65.347 27.8037H54.5903V47.4985Z" fill="#D0103A"/>
<path d="M69.3987 34.8732L69.0195 32.9017L65.9062 33.3996V47.4986H69.7579V38.4975C69.7579 37.7607 69.8777 37.1434 70.3167 36.6655C70.6959 36.2672 71.3146 35.9884 72.013 35.9884C72.4521 35.9884 72.951 36.1079 73.3302 36.2871L74.3081 32.9017C73.6894 32.6628 73.43 32.603 72.8712 32.603C71.4343 32.603 70.0174 33.8974 69.3987 34.8732Z" fill="#D0103A"/>
<path d="M104.363 28.1823V47.4987H108.214V39.2544V27.5649L104.363 28.1823Z" fill="#D0103A"/>
<path d="M116.676 32.9614H112.006L108.214 39.2542L113.224 47.4986H117.734L111.946 39.075L116.676 32.9614Z" fill="#D0103A"/>
<path d="M97.6572 32.7227C96.7791 32.7227 95.7813 32.9019 95.0429 33.34C94.4242 33.6586 93.8056 34.1365 93.3665 34.6941L93.127 32.7625L89.894 33.2802V47.4988H93.7457V38.9358C93.7457 37.8804 94.065 37.1435 94.5639 36.6457C95.1227 36.1478 95.7414 35.9089 96.36 35.9089C97.4177 35.9089 97.7371 36.586 97.7371 38.2587V47.4988H101.469V36.9046C101.469 35.9885 101.409 35.3712 101.229 34.8136C100.77 33.5989 99.2737 32.7227 97.6572 32.7227Z" fill="#D0103A"/>
</svg>
