<svg viewBox="0 0 561 416" fill="none" xmlns="http://www.w3.org/2000/svg">
<path d="M433.933 414C505.4 414 559 358.393 559 290.147C559 221.902 511.781 172.613 439.038 172.613C439.038 120.797 468.39 41.1779 507.952 10.8466L504.124 1.99995C385.437 52.5521 308.866 182.724 308.866 280.037C308.866 360.92 359.914 414 433.933 414ZM127.067 414C198.534 414 252.134 358.393 252.134 290.147C252.134 221.902 204.915 172.613 132.172 172.613C132.172 120.797 161.524 41.1779 201.086 10.8466L197.258 1.99995C78.5717 52.5521 2 182.724 2 280.037C2 360.92 53.0478 414 127.067 414Z" stroke="#50A678" stroke-width="3"/>
</svg>
