<svg width="764" height="364" viewBox="0 0 764 364" fill="none" xmlns="http://www.w3.org/2000/svg">
<g clip-path="url(#clip0_396_0)">
<path opacity="0.21" d="M430.477 244.877V364H678.969V288.719H662.967V262.318H646.027V273.159H623.908V266.091H605.084V238.731H573.547V261.322H519.425V229.379H502.957V244.665H454.007V264.205H443.656V240.164C443.656 240.164 429.768 244.167 430.477 244.877Z" fill="#064051"/>
<path opacity="0.21" d="M78.9512 244.877V364H327.461V288.719H311.453V262.318H294.519V273.159H272.401V266.091H253.577V238.731H222.04V261.322H167.917V229.379H151.45V244.665H102.5V264.205H92.1491V240.164C92.1491 240.164 78.2611 244.167 78.9512 244.877Z" fill="#064051"/>
<path d="M196.06 134.497C230.531 134.497 258.475 106.507 258.475 71.9806C258.475 37.454 230.531 9.4646 196.06 9.4646C161.589 9.4646 133.645 37.454 133.645 71.9806C133.645 106.507 161.589 134.497 196.06 134.497Z" fill="#50A678"/>
<path d="M555.662 363.589H230.351V95.8599L400.979 93.6619L555.662 176.72V363.589Z" fill="#08615A"/>
<path opacity="0.5" d="M366.471 94.6021H230.14V363.595H366.471V94.6021Z" fill="#054C48"/>
<path d="M484.201 262.966H434.611V363.589H484.201V262.966Z" fill="#054C48"/>
<path d="M498.121 358.888H421.152V363.595H498.121V358.888Z" fill="#43A27C"/>
<path d="M490.337 354.174H429.265V358.882H490.337V354.174Z" fill="#43A27C"/>
<path d="M484.475 349.467H434.798V354.174H484.475V349.467Z" fill="#43A27C"/>
<path d="M525.94 195.537H479.694V224.286H525.94V195.537Z" fill="#43A27C" stroke="#054C48" stroke-width="2.41" stroke-miterlimit="10"/>
<path d="M431.571 195.537H385.326V224.286H431.571V195.537Z" fill="#43A27C" stroke="#054C48" stroke-width="2.41" stroke-miterlimit="10"/>
<path d="M366.856 253.918H159.513V363.595H366.856V253.918Z" fill="#054C48"/>
<path d="M343.575 283.732H276.597V363.595H343.575V283.732Z" fill="#08615A"/>
<path d="M355.716 358.888H268.372V363.595H355.716V358.888Z" fill="#43A27C"/>
<g opacity="0.2">
<path opacity="0.2" d="M231.52 100.68L230.14 97.8962L399.699 97.5662L400.401 97.9398L570.482 188.868L569.028 191.614L399.643 101.059L231.52 100.68Z" fill="#054C48"/>
</g>
<path d="M220.063 96.875L219.982 94.0917L399.699 93.3694L400.401 93.7492L570.482 184.678L569.028 187.417L399.643 96.8626L220.063 96.875Z" fill="#054C48"/>
<path d="M208.699 281.789H187.91V317.281H208.699V281.789Z" fill="#43A27C"/>
<path d="M215.574 315.32H183.453V319.759H215.574V315.32Z" fill="#43A27C" stroke="#054C48" stroke-width="2.41" stroke-miterlimit="10"/>
<path d="M250.766 281.789H229.978V317.281H250.766V281.789Z" fill="#43A27C"/>
<path d="M257.648 315.32H225.527V319.759H257.648V315.32Z" fill="#43A27C" stroke="#054C48" stroke-width="2.41" stroke-miterlimit="10"/>
<path d="M373.44 248.358H154.558V254.448H373.44V248.358Z" fill="#43A27C"/>
<path opacity="0.06" d="M366.856 254.522H160.744V260.612H366.856V254.522Z" fill="black"/>
<path d="M241.529 287.156L233.758 304.591" stroke="#8EDAC7" stroke-width="1.14" stroke-miterlimit="10"/>
<path d="M245.42 291.864L237.643 309.299" stroke="#8EDAC7" stroke-width="1.14" stroke-miterlimit="10"/>
<path d="M199.542 287.935L191.765 305.363" stroke="#8EDAC7" stroke-width="1.14" stroke-miterlimit="10"/>
<path d="M203.427 292.642L195.65 310.071" stroke="#8EDAC7" stroke-width="1.14" stroke-miterlimit="10"/>
<path d="M500.52 198.308L492.277 216.789" stroke="#8EDAC7" stroke-width="1.21" stroke-miterlimit="10"/>
<path d="M502.516 203.295L494.266 221.776" stroke="#8EDAC7" stroke-width="1.21" stroke-miterlimit="10"/>
<path d="M410.18 197.486L401.937 215.967" stroke="#8EDAC7" stroke-width="1.21" stroke-miterlimit="10"/>
<path d="M412.169 202.473L403.926 220.954" stroke="#8EDAC7" stroke-width="1.21" stroke-miterlimit="10"/>
<path d="M409.167 282.106H394.645V288.053H409.167V282.106Z" fill="#054C48"/>
<path d="M401.912 289.273H387.39V295.22H401.912V289.273Z" fill="#054C48"/>
<path d="M243.68 207.548H229.158V213.495H243.68V207.548Z" fill="#054C48"/>
<path d="M252.588 215.151H238.066V221.097H252.588V215.151Z" fill="#054C48"/>
<path d="M262.864 121.246H248.342V127.193H262.864V121.246Z" fill="#054C48"/>
<path d="M448.972 147.616H434.45V153.563H448.972V147.616Z" fill="#054C48"/>
<path d="M441.711 157.373H427.188V163.32H441.711V157.373Z" fill="#054C48"/>
<path d="M460.081 157.373H445.559V163.32H460.081V157.373Z" fill="#054C48"/>
<path d="M242.356 222.754H227.833V228.7H242.356V222.754Z" fill="#054C48"/>
<path d="M545.292 212.006H530.77V217.953H545.292V212.006Z" fill="#054C48"/>
<path d="M552.547 218.289H538.025V224.236H552.547V218.289Z" fill="#054C48"/>
<path d="M516.087 359.218C515.546 354.859 510.628 351.565 512.817 347.194C515.005 342.823 518.275 342.835 521.52 340.631C524.765 338.427 528.072 332.431 534.619 336.273C536.956 337.636 538.827 340.307 541.388 341.497C545.386 343.365 548.32 339.971 552.062 339.847C556.097 339.703 553.306 345.575 557.539 346.789C558.926 347.182 560.393 347.101 561.823 347.244C563.252 347.387 564.763 347.829 565.64 348.975C566.914 350.638 566.261 353.222 564.676 354.579C561.07 357.78 516.223 360.301 516.087 359.218Z" fill="#054C48"/>
<path d="M567.94 354.847H509.541V363.595H567.94V354.847Z" fill="#43A27C"/>
<path d="M410.298 359.218C410.845 354.859 415.756 351.565 413.574 347.194C411.392 342.823 408.116 342.835 404.84 340.631C401.564 338.427 398.294 332.431 391.742 336.273C389.404 337.636 387.533 340.307 384.978 341.497C380.974 343.365 378.04 339.971 374.304 339.847C370.269 339.703 373.061 345.575 368.821 346.789C367.441 347.182 365.974 347.101 364.544 347.244C363.114 347.387 361.597 347.829 360.727 348.975C359.446 350.638 360.105 353.222 361.684 354.579C365.296 357.78 410.137 360.301 410.298 359.218Z" fill="#054C48"/>
<path d="M358.42 363.589H416.819V354.841H358.42V363.589Z" fill="#43A27C"/>
<path d="M348.486 143.146H246.943V187.38H348.486V143.146Z" fill="#43A27C" stroke="#054C48" stroke-width="1.95" stroke-miterlimit="10"/>
<path d="M247.596 167.405H347.995" stroke="#054C48" stroke-width="1.91" stroke-miterlimit="10"/>
<path d="M270.386 142.728L270.181 186.944" stroke="#054C48" stroke-width="1.91" stroke-miterlimit="10"/>
<path d="M319.454 143.756V186.944" stroke="#054C48" stroke-width="1.91" stroke-miterlimit="10"/>
<path d="M292.673 146.072L286.121 160.767" stroke="#8EDAC7" stroke-width="0.96" stroke-miterlimit="10"/>
<path d="M295.949 150.038L289.397 164.733" stroke="#8EDAC7" stroke-width="0.96" stroke-miterlimit="10"/>
<path d="M334.778 168.88L329.015 181.807" stroke="#8EDAC7" stroke-width="0.84" stroke-miterlimit="10"/>
<path d="M337.663 172.374L331.9 185.294" stroke="#8EDAC7" stroke-width="0.84" stroke-miterlimit="10"/>
<path d="M21.7894 316.285H18.7246V363.589H21.7894V316.285Z" fill="#054C48"/>
<path d="M4.28934 334.84C3.15107 333.8 2.15785 332.61 1.33644 331.304C-3.22036 323.962 5.43942 319.025 4.29555 312.281C4.00337 310.563 3.51847 308.726 4.20852 307.119C5.5078 304.13 8.26799 303.651 6.78221 299.716C6.16055 298.097 5.14723 296.671 4.50692 295.064C1.65348 287.86 7.51577 283.034 12.4642 279.031C16.1569 276.042 15.672 270.743 18.4633 267.237C22.33 262.374 29.6532 264.659 33.4702 268.483C34.2723 269.22 34.8844 270.141 35.2544 271.166C35.7953 272.904 35.2233 274.79 34.3903 276.409C33.0662 278.987 31.0084 281.596 30.8903 284.628C30.7038 289.398 33.7935 293.383 36.8148 296.746C38.9284 299.093 40.8183 302.175 40.0537 305.245C39.6807 306.764 38.6922 308.072 38.3068 309.604C37.2375 313.782 40.6629 317.512 41.0608 321.546C41.4213 325.183 39.9542 328.645 37.797 331.509C33.4454 337.3 25.6 341.285 18.3141 340.893C13.0982 340.49 8.16427 338.361 4.28934 334.84V334.84Z" fill="#43A27C"/>
<path d="M76.9059 302.15H72.9272V363.589H76.9059V302.15Z" fill="#054C48"/>
<path d="M95.6553 326.279C97.1346 324.925 98.4267 323.38 99.4972 321.683C105.409 312.157 94.1633 305.743 95.6491 296.982C96.0283 294.747 96.6624 292.368 95.761 290.282C94.0763 286.39 90.4955 285.774 92.4164 280.662C93.2059 278.557 94.5425 276.708 95.3693 274.622C99.0993 265.282 91.4653 258.999 85.0373 253.794C80.2442 249.921 80.8783 243.04 77.2478 238.482C72.2248 232.162 62.7444 235.132 57.7587 240.101C56.717 241.062 55.9216 242.26 55.4398 243.594C54.7436 245.842 55.4834 248.302 56.5588 250.4C58.2871 253.744 60.954 257.137 61.1094 261.073C61.3457 267.268 57.3421 272.443 53.4132 276.808C50.6655 279.859 48.2161 283.869 49.2046 287.854C49.6895 289.821 50.9763 291.521 51.4798 293.489C52.8413 298.881 48.415 303.726 47.868 308.975C47.4017 313.688 49.3102 318.184 52.1139 321.908C57.7711 329.429 67.9539 334.604 77.4157 334.093C84.1941 333.593 90.6124 330.843 95.6553 326.279V326.279Z" fill="#43A27C"/>
<path d="M684.563 316.285H681.499V363.589H684.563V316.285Z" fill="#054C48"/>
<path d="M667.045 334.84C665.906 333.798 664.911 332.609 664.086 331.304C659.535 323.962 668.195 319.025 667.045 312.281C666.753 310.563 666.268 308.726 666.964 307.119C668.257 304.13 671.017 303.651 669.538 299.716C668.916 298.097 667.897 296.671 667.262 295.064C664.403 287.86 670.271 283.034 675.22 279.031C678.912 276.042 678.421 270.743 681.213 267.237C685.086 262.374 692.403 264.659 696.22 268.483C697.024 269.218 697.636 270.14 698.004 271.166C698.545 272.904 698.004 274.79 697.146 276.409C695.816 278.987 693.764 281.596 693.646 284.628C693.459 289.398 696.543 293.383 699.57 296.746C701.684 299.093 703.568 302.175 702.809 305.245C702.436 306.764 701.448 308.072 701.056 309.604C699.987 313.782 703.418 317.512 703.816 321.546C704.177 325.183 702.71 328.645 700.553 331.509C696.201 337.3 688.356 341.285 681.07 340.893C675.854 340.491 670.919 338.361 667.045 334.84Z" fill="#43A27C"/>
<path d="M739.674 302.15H735.695V363.589H739.674V302.15Z" fill="#054C48"/>
<path d="M758.43 326.279C759.911 324.927 761.203 323.381 762.272 321.683C768.19 312.157 756.944 305.743 758.43 296.982C758.809 294.747 759.437 292.368 758.535 290.282C756.857 286.39 753.27 285.774 755.197 280.662C755.986 278.557 757.323 276.708 758.15 274.622C761.88 265.282 754.246 258.999 747.818 253.794C743.025 249.921 743.653 243.04 740.028 238.482C734.999 232.162 725.519 235.132 720.539 240.101C719.495 241.061 718.7 242.259 718.22 243.594C717.518 245.842 718.258 248.302 719.339 250.4C721.061 253.744 723.735 257.137 723.884 261.073C724.126 267.268 720.116 272.443 716.194 276.808C713.446 279.859 710.997 283.869 711.985 287.854C712.47 289.821 713.757 291.521 714.254 293.489C715.647 298.919 711.196 303.757 710.673 309.006C710.207 313.719 712.109 318.215 714.913 321.939C720.57 329.461 730.759 334.635 740.221 334.124C746.993 333.611 753.401 330.85 758.43 326.279V326.279Z" fill="#43A27C"/>
<path opacity="0.1" d="M51.977 167.149H131.395C131.395 167.149 130.736 161.894 126.819 160.375C122.903 158.855 115.474 161.471 110.457 160.375C105.44 159.279 103.476 149.559 88.6366 153.382C80.5549 155.468 76.856 162.56 71.404 160.157C65.952 157.753 59.6235 162.342 56.7825 163.22C53.9415 164.098 50.2426 160.73 46.5313 163.22C44.9771 164.273 43.9141 166.956 43.9141 166.956L51.977 167.149Z" fill="#054C48"/>
<path opacity="0.1" d="M717.928 185.25H638.511C638.511 185.25 639.17 180.008 643.092 178.476C647.015 176.944 654.438 179.565 659.455 178.476C664.471 177.386 666.436 167.66 681.275 171.483C689.357 173.563 693.056 180.661 698.507 178.258C703.959 175.854 710.319 180.443 713.129 181.315C715.939 182.187 719.675 178.824 723.38 181.315C724.934 182.367 725.997 185.051 725.997 185.051L717.928 185.25Z" fill="#054C48"/>
<path opacity="0.1" d="M405.723 59.5023H513.071C513.071 59.5023 512.189 49.577 506.855 46.6816C501.521 43.7861 491.518 48.7488 484.736 46.6816C477.954 44.6143 475.324 26.2206 455.269 33.4561C444.359 37.3913 439.342 50.8161 431.969 46.2706C424.596 41.7251 416.042 50.4051 412.207 52.0614C408.371 53.7177 403.36 47.3042 398.35 52.0614C396.248 54.054 394.806 59.0851 394.806 59.0851L405.723 59.5023Z" fill="#054C48"/>
</g>
<defs>
<clipPath id="clip0_396_0">
<rect width="764" height="364" fill="white"/>
</clipPath>
</defs>
</svg>
