<svg width="375" height="375" viewBox="0 0 375 375" fill="none" xmlns="http://www.w3.org/2000/svg">
<path d="M187.547 0C191.552 0 195.557 0.133451 199.896 0.413699C200.51 0.413699 201.057 0.413699 201.578 0.533805C204.568 0.747328 207.385 1.01423 210.149 1.34786C211.484 1.49466 212.819 1.69483 214.154 1.89501C224.873 3.41339 235.441 5.8512 245.741 9.18145L248.611 10.1556C255.292 12.46 261.839 15.1331 268.223 18.1627C269.478 18.7499 270.706 19.3638 271.935 19.9777C279.843 23.9926 287.463 28.5499 294.741 33.6166L294.751 33.5897L295.712 34.2837L295.875 34.4004L296.339 34.6974L296.327 34.7238L297.135 35.3014C303.284 39.7398 309.161 44.5425 314.736 49.6839C315.016 49.9375 315.31 50.2044 315.577 50.4847L315.697 50.5914C317.687 52.433 319.702 54.4615 321.839 56.6101C322.119 56.8636 322.426 57.1973 322.72 57.5175C327.567 62.5542 332.131 67.8559 336.39 73.3983C336.657 73.7185 336.938 74.1055 337.191 74.4792C338.954 76.7746 340.716 79.2167 342.385 81.6722C342.558 81.9124 342.745 82.1927 342.919 82.4729L343.119 82.7665C347.287 88.8947 351.059 95.2822 354.414 101.89C355.468 103.879 356.443 105.894 357.297 107.762C359.313 111.979 361.169 116.316 362.931 121L363.185 121.601C363.519 122.468 363.839 123.349 364.146 124.27L364.266 124.39V124.644L364.68 125.765V126.031C365 126.926 365.321 127.82 365.588 128.701C378.036 166.527 378.139 207.328 365.882 245.217V245.377C365.294 247.192 364.68 249.007 364.066 250.795L363.799 251.436C362.17 255.933 360.328 260.43 358.339 264.781C358.072 265.395 357.764 266.022 357.471 266.622C356.87 267.957 356.243 269.292 355.562 270.626L355.361 271.026C355.134 271.493 354.908 271.974 354.654 272.428C351.385 278.868 347.734 285.106 343.72 291.111C343.52 291.458 343.253 291.845 342.986 292.218C341.41 294.567 339.844 296.791 338.286 298.891C338.033 299.251 337.739 299.652 337.432 300.039C333.028 305.935 328.266 311.555 323.174 316.867C322.826 317.254 322.466 317.601 322.105 317.961C321.503 318.606 321.017 319.142 320.503 319.649L320.544 319.749L320.103 320.19C318.554 321.738 316.979 323.233 315.39 324.727L313.708 326.235C311.225 328.491 308.742 330.652 306.312 332.628C305.751 333.095 305.177 333.588 304.563 333.962C303.909 334.509 303.203 335.038 302.452 335.62L302.467 335.657L301.893 336.097C269.17 361.432 228.923 375.122 187.533 374.999C88.0846 374.996 5.92249 297.41 0.267008 198.162L0.267008 197.641L0.292623 197.621L0.245314 196.732C0.0817713 193.515 0 190.47 0 187.446C0 171.347 2.05935 155.314 6.12784 139.737C6.66186 137.722 7.22258 135.733 7.8367 133.692C9.8977 126.803 12.3538 120.04 15.1928 113.434C15.7268 112.179 16.2742 110.911 16.8749 109.67C19.0911 104.786 21.5876 99.9017 24.2577 95.1642C24.8184 94.1633 25.3791 93.2024 25.9666 92.2282C28.2762 88.2247 30.7727 84.4213 33.3627 80.698L34.2572 79.3635C34.5242 78.9899 34.7912 78.6162 35.0448 78.2292C36.2607 76.598 37.4511 75.0178 38.6771 73.4004L38.6762 73.3983L38.7782 73.267C39.0536 72.9038 39.3309 72.5387 39.6107 72.1705L39.9711 71.7034L39.9984 71.7086L40.5312 71.0344C50.9421 57.9241 63.053 46.2584 76.5441 36.3446L76.5246 36.3388L78.0198 35.2712L78.3937 34.9909L78.407 34.9943L79.4443 34.2558C88.0188 28.2043 97.0906 22.8876 106.563 18.3629V18.0026H107.311L107.618 17.8691L107.725 17.749H107.925C125.64 9.4056 144.565 3.91951 163.997 1.49466L167.641 1.05427C174.254 0.364567 180.898 0.012687 187.547 0ZM2.17612 198.562C6.26848 267.024 47.7932 327.651 110.165 356.228C172.502 384.789 245.509 376.683 300.055 335.151L300.331 335.777C299.061 332.834 297.552 329.999 295.819 327.303C295.525 326.822 295.219 326.348 294.922 325.875L294.484 325.168L292.334 322.031C290.599 319.509 288.796 316.907 286.86 314.305C286.34 313.584 285.792 312.837 285.218 312.116C283.003 309.218 280.561 306.501 277.916 303.989C277.4 303.466 276.856 302.971 276.287 302.508C274.139 300.606 271.735 299.016 269.144 297.783C268.584 297.49 268.05 297.276 267.502 297.049C265.259 296.162 262.878 295.67 260.467 295.595C259.943 295.541 259.415 295.541 258.891 295.595C256.457 295.702 254.053 296.179 251.762 297.009L251.549 297.076C251.055 297.263 250.587 297.436 250.12 297.65C247.571 298.738 245.163 300.131 242.951 301.8C242.35 302.227 241.843 302.614 241.295 303.041C240.319 303.852 239.373 304.697 238.46 305.575C237.031 306.963 235.617 308.498 234.214 310.186C234.17 310.238 234.128 310.289 234.086 310.341L234.007 310.436C233.527 311.019 233.048 311.62 232.57 312.24C232.519 312.307 232.468 312.378 232.417 312.45C232.263 312.648 232.108 312.848 231.952 313.051C230.531 314.941 229.118 316.994 227.705 319.216C227.104 320.163 226.517 321.124 225.916 322.085C221.657 328.998 217.238 336.137 210.082 340.074C207.291 341.605 204.27 342.537 201.147 342.969C199.833 343.165 198.505 343.268 197.172 343.277L197.146 343.33H195.504C192.956 343.235 190.427 342.864 187.961 342.223C187.369 342.107 186.785 341.956 186.212 341.769C183.631 341.032 181.123 340.058 178.722 338.86L177 337.966C174.376 336.523 171.911 334.81 169.644 332.854L169.662 332.815C169.652 332.806 169.641 332.797 169.63 332.788L169.494 332.666L169.47 332.694C168.869 332.174 168.295 331.64 167.721 331.066C164.856 328.267 162.341 325.13 160.232 321.725C159.644 320.817 159.084 319.883 158.536 318.909C156.181 314.628 154.172 310.165 152.529 305.564C152.029 304.212 151.529 302.841 151.061 301.442C150.289 299.198 149.552 296.941 148.827 294.69C148.497 293.677 148.17 292.666 147.843 291.658L147.521 290.633C147.165 289.528 146.808 288.428 146.441 287.334C143.496 278.503 137.967 267.832 130.093 259.825C128.71 258.444 127.251 257.14 125.721 255.92L125.4 255.666C124.973 255.332 124.559 254.999 124.065 254.705C122.98 253.908 121.852 253.168 120.688 252.49C119.233 251.663 118.018 251.022 116.83 250.488C116.469 250.301 116.135 250.155 115.802 250.008L115.121 249.688C112.904 248.727 110.528 247.833 107.871 247.018L107.017 246.725L106.149 246.418C103.786 245.724 101.343 245.017 98.8732 244.376L98.0989 244.189L97.2044 243.962C94.7746 243.335 92.3048 242.748 89.8617 242.201C89.1674 242.014 88.6868 241.894 88.2062 241.787C85.683 241.173 83.2265 240.559 80.7967 239.919L80.5164 239.839C80.0358 239.719 79.5418 239.585 79.0612 239.438C77.2856 238.931 74.9225 238.251 72.6129 237.437L72.2258 237.303C72.0254 237.251 71.8291 237.184 71.6383 237.103L70.0763 236.543C67.5398 235.608 65.0432 234.581 62.5467 233.433L60.8646 232.646C58.1945 231.311 55.7914 229.977 53.3883 228.535C52.8543 228.229 52.2802 227.868 51.7195 227.508C49.1299 225.882 46.6421 224.099 44.27 222.17C43.6959 221.743 43.1218 221.262 42.5478 220.742C41.3915 219.743 40.2622 218.714 39.161 217.656C36.0237 214.726 33.0889 211.563 30.3855 208.184C26.7618 203.749 22.6728 199.341 17.3489 197.241L17.3155 197.241L17.2918 197.217L16.9019 197.053C12.057 195.081 6.53635 195.639 2.17612 198.562ZM25.2857 222.437C27.1364 222.606 28.9052 223.28 30.3989 224.385L32.041 225.453C34.4708 227.081 36.8472 228.856 39.1568 230.551C42.174 232.793 45.298 235.115 48.5021 237.116C56.2453 241.907 64.9898 245.123 73.454 248.286C78.4604 250.141 83.6404 252.063 88.6067 254.292C102.951 260.551 115.556 270.206 125.334 282.423C130.113 288.575 133.01 295.768 135.814 302.734C138.484 309.407 140.994 315.599 144.986 321.031C153.834 333.005 165.965 342.16 179.91 347.387C196.945 353.406 215.649 350.577 227.545 340.194C232.885 335.537 236.89 329.518 240.815 323.579C242.15 321.538 243.485 319.483 244.927 317.494C247.403 313.61 250.647 310.272 254.459 307.685C262.239 303.142 272.072 304.191 278.717 310.274C283.242 314.585 285.392 319.296 284.925 324.26C284.164 333.442 275.139 340.848 269.839 344.451C246.943 359.905 217.879 365.43 191.205 365.43C176.827 365.452 162.494 363.836 148.483 360.612C114.32 352.538 82.6925 332.414 54.4831 300.799C43.5144 288.695 34.3302 275.089 27.2082 260.39L26.4071 258.682C22.402 250.275 16.3142 237.557 18.3969 228.629C19.1044 225.613 21.7211 222.437 25.2056 222.437H25.2857ZM25.1388 224.318C22.629 224.318 20.7065 226.747 20.1725 229.056C18.2367 237.343 24.1776 249.701 28.0492 257.881L28.8636 259.576C35.8978 274.138 44.979 287.62 55.8314 299.612C83.7872 330.933 115.081 350.87 148.857 358.851C181.779 366.644 232.965 367.138 268.757 342.957C273.79 339.554 282.321 332.574 283.016 324.167C283.389 319.79 281.494 315.599 277.395 311.702C271.367 306.211 262.473 305.26 255.42 309.354C251.823 311.826 248.766 315.005 246.435 318.695C245.034 320.67 243.699 322.699 242.35 324.741C238.345 330.719 234.34 336.911 228.759 341.729C216.344 352.552 196.919 355.514 179.256 349.282C164.957 343.925 152.517 334.544 143.437 322.272C139.312 316.64 136.642 309.994 134.092 303.589C131.328 296.742 128.471 289.67 123.865 283.731C114.272 271.743 101.899 262.275 87.8191 256.147C82.9194 253.945 77.7662 252.036 72.7865 250.195C64.2289 247.032 55.4309 243.749 47.5008 238.865C44.1899 236.823 41.0392 234.474 37.9819 232.192C36.1556 230.836 34.278 229.438 32.3696 228.112L30.9329 227.134L29.3309 226.093C28.1324 225.176 26.7059 224.604 25.2056 224.439L25.1388 224.318ZM271.574 322.325C272.762 323.353 273.54 324.774 273.764 326.329C273.844 328.21 272.589 329.772 271.227 331.186C266.234 336.315 260.697 340.884 254.713 344.812C251.872 346.828 248.713 348.353 245.367 349.322C244.604 349.523 243.82 349.631 243.031 349.643C241.095 349.848 239.227 348.861 238.305 347.147C237.719 345.391 238.174 343.455 239.48 342.143C240.383 341.214 241.407 340.41 242.524 339.754L243.432 339.153C244.36 338.517 245.223 337.791 246.009 336.986L246.395 336.578C248.275 334.375 249.893 331.961 251.215 329.385C252.851 326.087 255.041 323.094 257.69 320.537C261.695 317 267.035 317.681 271.574 322.325ZM263.404 319.229V319.282C261.53 319.305 259.731 320.023 258.357 321.298C255.796 323.785 253.678 326.692 252.096 329.892C250.866 332.266 249.394 334.506 247.702 336.575L247.13 337.258C246.197 338.267 245.148 339.163 244.006 339.927L243.071 340.541C242.031 341.154 241.076 341.898 240.227 342.756C239.158 343.792 238.774 345.347 239.239 346.76C240.067 348.668 242.857 348.935 245.114 348.388C248.354 347.455 251.411 345.974 254.152 344.011C260.082 340.128 265.567 335.603 270.506 330.519C271.628 329.358 272.816 327.983 272.762 326.422C272.545 325.107 271.869 323.91 270.853 323.046C268.993 320.813 266.303 319.435 263.404 319.229ZM86.1502 268.584C91.3258 272.855 96.0864 277.605 100.368 282.77C101.557 284.158 102.758 285.586 104.093 286.987C105.869 288.936 107.698 290.857 109.527 292.792L112.611 296.048C117.556 301.054 121.951 306.575 125.721 312.516C129.304 318.405 132.228 324.671 134.439 331.2C134.652 331.867 134.906 332.534 135.186 333.348C136.334 336.538 137.763 340.514 137.189 343.757C137.006 345.208 135.853 346.345 134.399 346.506L134.279 346.546C133.657 346.517 133.05 346.349 132.503 346.053C123.371 341.969 115.147 336.271 107.137 330.759C101.797 327.116 96.4568 323.353 90.7695 320.083L90.3823 319.87V319.616C88.2448 317.834 86.0168 316.164 83.7071 314.612C81.2106 312.85 79.702 311.742 79.1413 311.262C75.676 307.88 72.5463 304.17 69.796 300.185C65.9024 294.426 62.4824 288.361 59.5696 282.049C59.1423 281.155 58.5683 280.141 57.9408 279.033C55.2707 274.389 51.9865 268.598 54.9904 264.354C56.3254 262.512 58.5416 261.338 61.7323 260.871C69.5156 259.696 78.1934 262.445 86.1502 268.584ZM61.8658 262.472C59.1157 262.886 57.1798 263.807 56.1519 265.328C53.7087 268.838 56.7393 274.149 59.169 278.42C59.8232 279.554 60.424 280.622 60.8646 281.542C63.745 287.776 67.12 293.77 70.9575 299.465C73.6601 303.359 76.7266 306.987 80.1159 310.301C80.5698 310.728 82.5723 312.143 84.5081 313.504C89.6347 316.96 91.2501 318.188 91.7174 318.949C97.3379 322.205 102.758 325.942 107.992 329.625C116.002 335.096 124.132 340.755 133.117 344.785C133.496 344.98 133.908 345.103 134.332 345.145C135.013 345.145 135.547 344.358 135.667 343.651C136.174 340.808 134.813 336.978 133.731 334.029C133.451 333.255 133.184 332.521 132.957 331.84C130.791 325.407 127.916 319.235 124.386 313.437C120.902 307.925 116.862 302.784 112.331 298.097L111.476 297.223L108.405 293.98C106.563 292.045 104.721 290.123 102.945 288.162C101.663 286.747 100.391 285.323 99.1269 283.891C94.9049 278.795 90.2115 274.107 85.1089 269.892C80.7033 266.489 71.7585 260.991 61.8658 262.472ZM188.201 191.801L188.201 340.218C188.227 340.223 188.254 340.229 188.281 340.234C190.64 340.84 193.056 341.198 195.49 341.302L195.543 341.304L195.544 201.836C195.201 201.457 194.863 201.073 194.529 200.684C194.168 200.257 193.821 199.843 193.488 199.416C192.195 197.835 190.988 196.187 189.87 194.479C189.496 193.932 189.215 193.504 188.962 193.051C188.704 192.638 188.451 192.221 188.201 191.801ZM197.212 203.61L197.212 341.299L197.84 341.287C200.003 341.212 202.15 340.877 204.235 340.288L204.595 340.184L204.595 210.029C201.932 208.06 199.476 205.922 197.212 203.61ZM179.136 169.961L179.136 336.847L179.47 337.018C181.727 338.145 184.082 339.064 186.506 339.765L186.505 188.775C183.498 183.096 181.124 176.82 179.136 169.961ZM206.263 211.221L206.264 339.622L206.507 339.533C207.395 339.188 208.259 338.785 209.094 338.326C210.455 337.569 211.734 336.674 212.912 335.657C213.154 335.462 213.39 335.26 213.621 335.054L213.62 215.664L213.246 215.471C211.548 214.568 209.888 213.596 208.271 212.557C207.589 212.121 206.92 211.676 206.263 211.221ZM170.085 125.175L170.084 330.652C170.251 330.802 170.42 330.949 170.592 331.093L170.779 331.28C172.846 333.047 175.076 334.615 177.439 335.96L177.44 163.616C175.059 153.964 173.236 143.275 171.379 131.583L171.232 130.649C171.232 130.502 171.232 130.342 171.139 130.195C170.856 128.508 170.504 126.833 170.085 125.175ZM296.726 271.782L296.729 324.948C298.619 327.789 300.28 330.777 301.695 333.883L303.482 332.441C303.691 332.291 303.891 332.139 304.084 331.987L304.082 287.041L303.241 285.279L302.08 282.917C300.805 280.231 299.599 277.7 298.442 275.305C298.409 275.24 298.375 275.175 298.342 275.11L298.101 274.603L298.016 274.424C297.956 274.301 297.896 274.178 297.837 274.055C297.82 274.02 297.801 273.984 297.781 273.949L297.669 273.711C297.352 273.058 297.038 272.415 296.726 271.782ZM215.315 216.535L215.317 333.368C217.758 330.77 219.928 327.929 221.79 324.887C222.09 324.421 222.382 323.955 222.672 323.491L222.671 219.73L222.405 219.634C219.867 218.658 217.534 217.621 215.315 216.535ZM305.777 290.561V330.602L306.202 330.256C308.282 328.536 310.388 326.702 312.493 324.781L313.134 324.21L313.134 306.224C312.9 305.683 312.664 305.145 312.429 304.612C312.379 304.505 312.33 304.394 312.28 304.282C311.172 301.814 309.997 299.278 308.755 296.716L307.206 293.526L305.777 290.561ZM161.035 103.008L161.033 319.333C162.508 321.809 164.15 324.173 166.005 326.387L166.496 326.963C167.106 327.659 167.737 328.338 168.388 328.998L168.391 119.393C167.047 115.33 165.404 111.371 163.476 107.548C163.318 107.229 163.159 106.909 162.997 106.59C162.368 105.382 161.715 104.188 161.035 103.008ZM314.789 310.129L314.789 322.684L314.994 322.485C316.105 321.415 317.286 320.337 318.407 319.216L318.382 319.151L318.14 318.522C317.513 316.88 316.805 315.212 316.178 313.517L316.147 313.436C316.038 313.165 315.93 312.897 315.822 312.631C315.777 312.525 315.731 312.421 315.684 312.316C315.385 311.578 315.087 310.849 314.789 310.129ZM287.674 254.779L287.676 312.117C287.903 312.422 288.126 312.726 288.342 313.024L288.4 313.102C290.464 315.866 292.386 318.653 294.19 321.257L295.057 322.514V268.409L294.911 268.112C294.828 267.947 294.745 267.784 294.663 267.621C294.367 267.053 294.071 266.494 293.776 265.942L293.509 265.395L293.202 264.767C292.001 262.427 290.844 260.248 289.704 258.214C289.014 257.004 288.339 255.864 287.674 254.779ZM224.365 220.348L224.368 320.797C224.573 320.47 224.773 320.148 224.981 319.816L226.049 318.095C227.546 315.701 229.163 313.385 230.895 311.155C231.166 310.792 231.441 310.435 231.722 310.081L231.723 222.722L231.55 222.677C228.907 221.92 226.548 221.164 224.365 220.348ZM92.6118 290.537C94.4932 292.082 96.2232 293.802 97.7785 295.675L99.1135 297.196C99.741 297.89 100.449 298.531 101.049 299.251L102.144 300.412C103.951 302.231 105.549 304.245 106.91 306.418C108.219 308.561 109.285 310.844 110.088 313.224C110.168 313.464 110.248 313.717 110.355 313.984C110.924 315.239 111.176 316.613 111.089 317.988C110.978 318.838 110.288 319.494 109.433 319.563C109.107 319.556 108.787 319.474 108.499 319.322C101.236 316.08 88.1395 308.74 82.1184 296.169C81.9716 295.862 81.7713 295.515 81.5577 295.128C80.5698 293.406 79.2347 291.044 80.5431 289.176C81.2363 288.284 82.2738 287.727 83.4001 287.641C86.7364 287.318 90.061 288.363 92.6118 290.537ZM318.11 313.293L317.967 312.943C318.634 314.572 319.302 316.213 319.889 317.841L320.717 316.974L320.891 316.8C321.033 316.653 321.177 316.507 321.323 316.36C320.853 314.854 319.633 313.692 318.11 313.293ZM84.7218 289.416C84.3504 289.414 83.9796 289.446 83.6137 289.509C83.0096 289.542 82.441 289.804 82.025 290.243C81.3975 291.151 82.3988 292.912 83.133 294.247C83.3734 294.661 83.6003 295.061 83.7605 295.395C89.5145 307.405 102.184 314.505 109.22 317.654C109.205 316.617 108.973 315.594 108.539 314.652C108.445 314.371 108.339 314.104 108.259 313.851C107.5 311.602 106.493 309.444 105.255 307.419C103.961 305.37 102.448 303.468 100.742 301.747L99.6475 300.586C98.9933 299.892 98.3125 299.251 97.685 298.504L96.35 296.969C94.8741 295.183 93.2337 293.538 91.4504 292.058C89.5472 290.482 87.1893 289.556 84.7218 289.416ZM153.411 91.1961L153.41 302.381C155.116 307.197 157.018 311.923 159.364 316.36L159.367 100.156C159.093 99.6985 158.811 99.243 158.523 98.7807C156.929 96.1871 155.213 93.6442 153.411 91.1961ZM295.618 36.5523C294.879 38.1699 294.023 39.731 293.055 41.2231C289.61 46.6508 285.581 51.6852 281.04 56.2364C280.699 56.5661 280.358 56.8957 280.017 57.2105C279.358 59.1734 277.676 60.6632 275.609 61.0578L275.534 61.0697L275.45 61.1356C275.081 61.4143 274.716 61.6812 274.351 61.9481C259.968 72.5186 243.648 74.2573 223.626 67.1799L223.526 67.1794C222.752 66.9125 221.977 66.6056 221.163 66.2853C217.109 64.7071 213.133 62.9376 209.249 60.9832C208.587 60.7799 207.968 60.461 207.421 60.0441C205.839 59.2205 204.274 58.3643 202.726 57.4775L202.072 57.1172C200.737 56.3699 199.402 55.6759 198.067 55.0487C197.165 54.5967 196.255 54.1629 195.337 53.7477C195.518 54.3226 195.611 54.9226 195.61 55.5291C195.61 58.5262 193.333 61.033 190.348 61.3207C187.364 61.6083 184.649 59.5827 184.076 56.6408C183.607 54.2338 184.698 51.8577 186.684 50.6064L186.823 50.5225C173.287 46.2204 160.857 46.5546 151.673 51.4893C152.984 52.9435 153.492 54.9865 152.96 56.9224C152.324 59.2358 150.333 60.922 147.946 61.1688C145.931 61.3771 143.983 60.5242 142.765 58.9702L142.956 58.7186C140.341 62.0956 138.46 65.9806 137.433 70.1252L137.002 69.715C139.29 71.881 141.172 73.7508 142.866 75.5431L142.961 75.4264C144.05 74.1556 145.651 73.4011 147.362 73.3983L147.295 73.3449C150.061 73.363 152.435 75.3151 152.987 78.0239C153.475 80.4196 152.419 82.8278 150.412 84.1116C151.11 84.9696 151.794 85.8348 152.462 86.7034C153.063 87.424 153.637 88.198 154.184 88.9854C156.293 91.7745 158.309 94.7371 160.165 97.7531C160.752 98.6873 161.313 99.6081 161.847 100.556C162.178 101.114 162.504 101.676 162.823 102.242L162.846 102.084C163.333 99.3666 165.703 97.2991 168.562 97.286V97.246C171.211 97.2556 173.519 99.0516 174.179 101.616C174.838 104.18 173.683 106.866 171.367 108.152C169.656 109.101 167.63 109.109 165.952 108.276C167.177 110.862 168.285 113.505 169.27 116.196C169.941 117.911 170.516 119.662 170.992 121.441L171.083 121.74C172.627 122.516 173.771 123.947 174.164 125.672C174.556 127.391 174.149 129.171 173.102 130.537C173.116 130.618 173.129 130.7 173.142 130.782C174.904 141.885 176.452 151.014 178.362 159.461C178.922 161.983 179.47 164.199 180.044 166.254C181.807 173.15 184.249 179.855 187.333 186.271L187.814 187.192C188.201 187.94 188.601 188.687 189.002 189.421C189.65 190.577 190.335 191.713 191.053 192.825C193.638 193.415 195.558 195.72 195.57 198.469C195.571 198.58 195.568 198.691 195.562 198.801L195.548 198.957C195.78 199.236 196.014 199.514 196.251 199.79C196.758 200.414 197.297 201.011 197.867 201.578C199.758 203.59 201.787 205.467 203.939 207.196C210.28 212.254 217.909 216.251 227.01 219.314L227.171 219.362C228.206 217.622 230.093 216.524 232.164 216.525C233.711 216.518 235.198 217.125 236.297 218.214C237.396 219.303 238.018 220.783 238.025 222.33C238.025 222.369 238.025 222.408 238.025 222.447C238.068 222.461 238.113 222.475 238.158 222.49C242.278 223.536 245.334 224.373 247.98 225.166C246.976 223.354 247.01 221.139 248.08 219.354C249.185 217.509 251.216 216.422 253.364 216.525V216.592C256.437 216.562 259.004 218.925 259.226 221.989C259.405 224.458 258.012 226.697 255.871 227.689C276.955 234.971 284.571 243.673 294.991 264.02L295.112 264.269C295.324 264.245 295.538 264.234 295.752 264.234C298.263 264.238 300.49 265.847 301.28 268.23C301.966 270.297 301.437 272.543 299.972 274.084L300.077 274.309L304.082 282.57C306.032 286.654 308.163 291.102 310.477 295.915C312.88 300.813 315.163 305.951 317.46 311.609C317.507 311.722 317.555 311.836 317.604 311.952C319.662 312.182 321.436 313.5 322.257 315.385L321.919 315.746C326.879 310.508 331.52 304.977 335.817 299.183C333.551 298.154 332.148 295.761 332.445 293.213C332.783 290.308 335.227 288.105 338.153 288.068C339.776 288.034 341.319 288.689 342.417 289.839L342.185 290.19C346.181 284.224 349.81 278.02 353.052 271.614C353.238 271.27 353.411 270.933 353.574 270.615C353.553 270.43 353.545 270.241 353.546 270.052C353.544 268.042 354.575 266.212 356.209 265.158C356.377 264.816 356.537 264.474 356.683 264.127C358.568 259.97 360.341 255.725 361.884 251.483C360.07 252.361 357.885 252.252 356.143 251.098C353.945 249.642 353.004 246.89 353.851 244.394C354.697 241.899 357.119 240.286 359.749 240.467C361.808 240.608 363.59 241.821 364.505 243.584C376.182 206.683 376.056 167.056 364.141 130.225C362.799 132.215 360.325 133.224 357.904 132.628C355.035 131.921 353.148 129.181 353.51 126.25C353.873 123.318 356.371 121.121 359.327 121.134C359.925 121.132 360.517 121.226 361.081 121.41L361.422 122.322C359.62 117.464 357.711 112.98 355.615 108.629C355.308 107.941 354.986 107.245 354.65 106.541C354.299 106.046 354.03 105.498 353.851 104.917C353.507 104.223 353.146 103.526 352.771 102.824C349.461 96.303 345.74 89.9978 341.633 83.9465C340.026 85.1618 337.876 85.4706 335.964 84.706C333.765 83.8269 332.319 81.7039 332.305 79.3368C332.289 77.3781 333.249 75.563 334.826 74.4675L334.949 74.626C330.771 69.1909 326.292 63.994 321.534 59.0597C320.241 60.6564 318.173 61.4722 316.095 61.1362C313.674 60.7451 311.76 58.8766 311.312 56.4671C310.923 54.3766 311.71 52.2696 313.308 50.9419L313.508 51.1252C307.851 45.9037 301.876 41.0368 295.618 36.5523ZM278.623 242.877L278.623 301.918C278.812 302.095 278.999 302.279 279.184 302.468C281.639 304.788 283.919 307.285 286.007 309.938L286.006 252.109C285.748 251.713 285.49 251.326 285.232 250.942C283.288 248.051 281.075 245.35 278.623 242.877ZM233.418 223.26L233.418 308.02C235.438 305.629 237.673 303.427 240.094 301.44C240.325 301.252 240.55 301.072 240.775 300.896L240.775 225.186L240.521 225.119C238.705 224.625 236.823 224.132 234.861 223.624L233.418 223.26ZM269.639 235.941L269.639 295.781C269.737 295.829 269.835 295.878 269.932 295.928C272.459 297.126 274.819 298.644 276.955 300.445L276.956 241.285C276.756 241.104 276.553 240.924 276.34 240.746C274.26 238.94 272.017 237.331 269.639 235.941ZM316.952 288.068C320.169 288.075 322.773 290.684 322.773 293.9C322.766 297.112 320.156 299.71 316.943 299.705C313.73 299.7 311.129 297.094 311.132 293.882C311.134 290.67 313.739 288.068 316.952 288.068ZM242.446 225.627L242.444 299.633C244.589 298.09 246.899 296.789 249.332 295.755L249.799 295.553L249.801 227.756C249.721 227.735 249.64 227.714 249.559 227.695C247.286 226.972 244.975 226.299 242.446 225.627ZM316.997 289.323C314.477 289.313 312.425 291.346 312.413 293.864C312.401 296.383 314.432 298.436 316.952 298.451C318.165 298.458 319.332 297.982 320.193 297.128C321.055 296.274 321.541 295.113 321.545 293.9C321.552 291.381 319.517 289.332 316.997 289.323ZM341.719 290.922C340.63 289.634 338.887 289.026 337.185 289.427C335.112 289.915 333.653 291.771 333.667 293.9C333.66 295.825 334.867 297.496 336.601 298.142L336.831 297.823C338.393 295.755 339.942 293.566 341.464 291.298L341.666 291.001L341.719 290.922ZM144.359 80.038L144.359 277.083C145.852 280.179 147.166 283.428 148.27 286.787C148.83 288.495 149.391 290.23 149.952 291.965C150.532 293.774 151.115 295.591 151.714 297.405L151.715 88.8873C151.466 88.5588 151.21 88.2356 150.94 87.9178C148.867 85.2194 146.664 82.5862 144.359 80.038ZM260.548 231.5L260.547 293.553C263.079 293.634 265.58 294.14 267.943 295.05L267.944 234.966C267.895 234.94 267.846 234.914 267.796 234.888L267.436 234.688C265.198 233.503 262.899 232.439 260.548 231.5ZM251.498 228.294L251.495 294.92L251.864 294.795C254.08 294.072 256.386 293.654 258.718 293.553L258.851 293.54V230.825L258.491 230.684C256.431 229.899 254.136 229.114 251.498 228.294ZM338.153 264.234C341.364 264.248 343.96 266.855 343.96 270.066C343.953 273.279 341.341 275.878 338.126 275.871C334.911 275.863 332.311 273.252 332.319 270.039C332.326 266.825 334.938 264.226 338.153 264.234ZM316.952 264.234C320.169 264.241 322.773 266.85 322.773 270.066C322.766 273.277 320.156 275.876 316.943 275.871C313.73 275.866 311.129 273.259 311.132 270.048C311.134 266.836 313.739 264.234 316.952 264.234ZM316.997 265.488C314.477 265.478 312.425 267.511 312.413 270.03C312.401 272.549 314.432 274.601 316.952 274.616V274.603C318.163 274.61 319.327 274.136 320.189 273.285C321.05 272.434 321.538 271.276 321.545 270.066C321.552 267.547 319.517 265.498 316.997 265.488ZM338.197 265.488C335.677 265.478 333.626 267.511 333.614 270.03C333.601 272.549 335.633 274.601 338.153 274.616V274.603C339.364 274.61 340.528 274.136 341.389 273.285C342.25 272.434 342.738 271.276 342.745 270.066C342.753 267.547 340.717 265.498 338.197 265.488ZM136.921 72.3149L136.858 72.6267C136.818 72.8386 136.782 73.0513 136.748 73.2648C136.431 75.063 135.947 76.8157 135.307 78.5115L135.307 262.769C138.023 266.084 140.509 269.801 142.69 273.821L142.689 78.1812C142.457 77.9288 142.222 77.6816 141.982 77.4418C140.46 75.8152 138.834 74.1755 136.921 72.3149ZM295.752 265.488C295.739 265.488 295.727 265.488 295.715 265.488L295.565 265.195C296.767 267.546 298.031 270.109 299.358 272.849C299.995 272.072 300.348 271.09 300.344 270.066C300.337 267.535 298.283 265.488 295.752 265.488ZM126.256 91.4169L126.256 253.905C128.835 255.879 131.31 258.201 133.638 260.814L133.638 82.1747C131.804 85.5847 129.307 88.7012 126.256 91.4169ZM117.231 97.4624L117.23 248.527L117.617 248.713C118.792 249.247 120.06 249.901 121.622 250.768C122.641 251.357 123.63 251.995 124.588 252.679L124.588 92.8178C122.373 94.573 119.909 96.1326 117.231 97.4624ZM338.153 240.373C341.364 240.387 343.96 242.994 343.96 246.204C343.96 248.566 342.536 250.694 340.352 251.595C338.169 252.496 335.658 251.992 333.991 250.319C332.325 248.645 331.832 246.132 332.744 243.954C333.655 241.776 335.791 240.362 338.153 240.373ZM316.952 240.373C320.169 240.38 322.773 242.989 322.773 246.204C322.773 248.564 321.35 250.692 319.168 251.594C316.987 252.495 314.476 251.994 312.809 250.323C311.141 248.653 310.646 246.142 311.553 243.963C312.46 241.785 314.591 240.367 316.952 240.373ZM295.752 240.373C298.969 240.38 301.573 242.989 301.573 246.204C301.573 248.564 300.15 250.692 297.968 251.594C295.786 252.495 293.276 251.994 291.608 250.323C289.941 248.653 289.445 246.142 290.352 243.963C291.259 241.785 293.391 240.367 295.752 240.373ZM338.153 241.614C335.616 241.614 333.56 243.669 333.56 246.204C333.56 248.74 335.616 250.795 338.153 250.795C340.689 250.795 342.745 248.74 342.745 246.204C342.745 243.669 340.689 241.614 338.153 241.614ZM361.094 241.962C359.376 241.252 357.4 241.647 356.088 242.963C354.775 244.279 354.386 246.255 355.101 247.97C355.816 249.685 357.494 250.801 359.353 250.795C360.646 250.791 361.813 250.254 362.645 249.392L362.571 249.607C363.019 248.298 363.467 246.969 363.898 245.637C363.695 244.011 362.635 242.598 361.094 241.962ZM295.752 241.614C293.215 241.614 291.159 243.669 291.159 246.204C291.159 248.74 293.215 250.795 295.752 250.795C298.288 250.795 300.344 248.74 300.344 246.204C300.344 243.669 298.288 241.614 295.752 241.614ZM316.952 241.614C314.416 241.614 312.36 243.669 312.36 246.204C312.36 248.74 314.416 250.795 316.952 250.795C319.489 250.795 321.545 248.74 321.545 246.204C321.545 243.669 319.489 241.614 316.952 241.614ZM108.485 100.756L108.178 100.833L108.178 245.003L108.459 245.097C111.005 245.924 113.345 246.8 115.537 247.747L115.535 98.2607C113.313 99.2511 110.957 100.089 108.485 100.756ZM99.1275 102.277L99.1266 242.368L99.3138 242.414C101.72 243.035 104.115 243.706 106.484 244.427L106.484 101.237C104.06 101.767 101.601 102.114 99.1275 102.277ZM90.0753 102.116L90.075 240.182L90.0886 240.186C92.6909 240.758 95.0649 241.33 97.4578 241.952L97.4578 102.359C97.1513 102.369 96.8447 102.376 96.5379 102.38L97.4581 102.344C94.9949 102.464 92.5262 102.388 90.0753 102.116ZM81.0495 100.32L81.0492 237.901L81.2373 237.944C83.5967 238.569 85.9942 239.169 88.4051 239.769L88.406 101.915C88.3573 101.907 88.3085 101.899 88.2596 101.89C85.82 101.549 83.4098 101.024 81.0495 100.32ZM72.0523 96.7205L72.0516 235.103L72.3059 235.195L72.8132 235.382L73.2537 235.528C75.4051 236.279 77.6172 236.921 79.3576 237.418L79.3534 99.8024C79.2459 99.7653 79.1393 99.7271 79.0345 99.6882C77.3901 99.1329 75.7778 98.489 74.2046 97.7596C73.4797 97.4303 72.7618 97.0837 72.0523 96.7205ZM62.9469 90.7711L62.9471 231.401L63.3477 231.591C65.7085 232.656 68.0569 233.634 70.3574 234.491L70.3565 95.8122C67.7533 94.3547 65.273 92.6694 62.9469 90.7711ZM53.8964 81.5088L53.8966 226.525C54.0529 226.62 54.2085 226.712 54.3629 226.801C56.61 228.176 58.869 229.432 61.2755 230.603L61.2779 89.3487C59.2576 87.5514 57.3679 85.5851 55.6312 83.4605C55.2366 82.9672 54.8264 82.4889 54.4015 82.026C54.235 81.8519 54.0667 81.6794 53.8964 81.5088ZM274.565 216.525C277.776 216.54 280.372 219.146 280.372 222.357C280.372 224.718 278.948 226.846 276.764 227.747C274.581 228.648 272.07 228.144 270.403 226.471C268.737 224.797 268.244 222.285 269.156 220.106C270.067 217.928 272.203 216.514 274.565 216.525ZM359.353 216.525C360.897 216.528 362.376 217.145 363.465 218.238C364.554 219.332 365.164 220.813 365.161 222.357C365.161 224.718 363.736 226.846 361.553 227.747C359.37 228.648 356.858 228.144 355.192 226.471C353.525 224.797 353.033 222.285 353.944 220.106C354.856 217.928 356.991 216.514 359.353 216.525ZM338.153 216.525C341.364 216.54 343.96 219.146 343.96 222.357C343.96 224.718 342.536 226.846 340.352 227.747C338.169 228.648 335.658 228.144 333.991 226.471C332.325 224.797 331.832 222.285 332.744 220.106C333.655 217.928 335.791 216.514 338.153 216.525ZM295.752 216.525C298.969 216.532 301.573 219.141 301.573 222.357C301.573 224.717 300.15 226.844 297.968 227.746C295.786 228.648 293.276 228.146 291.608 226.476C289.941 224.805 289.445 222.294 290.352 220.116C291.259 217.937 293.391 216.519 295.752 216.525ZM316.952 216.525C320.169 216.532 322.773 219.141 322.773 222.357C322.773 224.717 321.35 226.844 319.168 227.746C316.987 228.648 314.476 228.146 312.809 226.476C311.141 224.805 310.646 222.294 311.553 220.116C312.46 217.937 314.591 216.519 316.952 216.525ZM361.094 218.114C359.376 217.404 357.4 217.8 356.088 219.115C354.775 220.431 354.386 222.408 355.101 224.123C355.816 225.838 357.494 226.953 359.353 226.947C361.884 226.94 363.932 224.887 363.932 222.357C363.932 220.499 362.812 218.824 361.094 218.114ZM339.91 218.115C338.194 217.405 336.219 217.798 334.905 219.111C333.592 220.423 333.199 222.398 333.91 224.113C334.621 225.829 336.295 226.947 338.153 226.947C340.689 226.947 342.745 224.892 342.745 222.357C342.745 220.5 341.626 218.826 339.91 218.115ZM276.306 218.114C274.588 217.404 272.612 217.8 271.299 219.115C269.987 220.431 269.597 222.408 270.312 224.123C271.027 225.838 272.706 226.953 274.565 226.947C277.096 226.94 279.144 224.887 279.144 222.357C279.144 220.499 278.023 218.824 276.306 218.114ZM297.509 218.115C295.793 217.405 293.818 217.798 292.504 219.111C291.191 220.423 290.798 222.398 291.509 224.113C292.22 225.829 293.894 226.947 295.752 226.947C298.288 226.947 300.344 224.892 300.344 222.357C300.344 220.5 299.225 218.826 297.509 218.115ZM318.71 218.115C316.994 217.405 315.018 217.798 313.705 219.111C312.391 220.423 311.998 222.398 312.709 224.113C313.42 225.829 315.095 226.947 316.952 226.947C319.489 226.947 321.545 224.892 321.545 222.357C321.545 220.5 320.426 218.826 318.71 218.115ZM255.105 218.114C253.388 217.404 251.411 217.8 250.099 219.115C248.786 220.431 248.397 222.408 249.112 224.123C249.409 224.836 249.874 225.446 250.449 225.915L249.613 225.666C251.011 226.07 252.356 226.501 253.655 226.937C256.05 226.781 257.943 224.789 257.943 222.357C257.943 220.499 256.823 218.824 255.105 218.114ZM44.8711 75.2676L44.8696 220.1C44.9458 220.163 45.0222 220.225 45.0987 220.287C45.2086 220.371 45.3195 220.451 45.4315 220.528C47.6026 222.301 49.8705 223.952 52.2247 225.473L52.2274 79.9026C50.0333 77.9822 47.5506 76.4179 44.8711 75.2676ZM233.058 217.869C231.237 217.502 229.408 218.269 228.381 219.746L228.199 219.688C230.255 220.368 232.524 221.022 235.341 221.743L236.169 221.956L236.735 222.102C236.616 220.03 235.112 218.282 233.058 217.869ZM40.6796 73.8506L40.7188 73.7986C39.357 75.6669 37.9775 77.5264 36.5801 79.3769L35.818 80.4553L35.8187 211.557C35.9261 211.675 36.0339 211.792 36.1424 211.91C36.2898 212.07 36.4381 212.228 36.5871 212.386L36.5 212.294C38.6136 214.532 40.8409 216.66 43.1732 218.668L43.1756 74.6045C42.3585 74.3153 41.5257 74.0635 40.6796 73.8506ZM34.1225 82.9045L34.9113 81.7656C32.3347 85.4489 29.8782 89.2923 27.582 93.1891C27.302 93.647 27.0312 94.1019 26.7651 94.5595L26.7678 201.309C28.6135 203.079 30.2987 205.029 31.8941 206.983C32.4569 207.687 33.03 208.382 33.613 209.067L34.0636 209.59C34.083 209.612 34.1025 209.634 34.122 209.656L34.1225 82.9045ZM359.353 192.677C360.897 192.681 362.376 193.297 363.465 194.391C364.554 195.484 365.164 196.966 365.161 198.509C365.161 200.87 363.736 202.998 361.553 203.899C359.37 204.8 356.858 204.297 355.192 202.623C353.525 200.95 353.033 198.437 353.944 196.259C354.856 194.08 356.991 192.666 359.353 192.677ZM210.963 192.677C212.507 192.681 213.986 193.297 215.075 194.391C216.164 195.484 216.774 196.966 216.771 198.509C216.771 200.87 215.346 202.998 213.163 203.899C210.98 204.8 208.468 204.297 206.802 202.623C205.135 200.95 204.643 198.437 205.554 196.259C206.466 194.08 208.601 192.666 210.963 192.677ZM338.153 192.677C341.364 192.692 343.96 195.298 343.96 198.509C343.96 200.87 342.536 202.998 340.352 203.899C338.169 204.8 335.658 204.297 333.991 202.623C332.325 200.95 331.832 198.437 332.744 196.259C333.655 194.08 335.791 192.666 338.153 192.677ZM253.364 192.677C256.576 192.692 259.172 195.298 259.172 198.509C259.172 200.87 257.747 202.998 255.564 203.899C253.381 204.8 250.869 204.297 249.203 202.623C247.536 200.95 247.044 198.437 247.955 196.259C248.867 194.08 251.002 192.666 253.364 192.677ZM295.752 192.677C298.969 192.684 301.573 195.293 301.573 198.509C301.573 200.869 300.15 202.996 297.968 203.898C295.786 204.8 293.276 204.299 291.608 202.628C289.941 200.957 289.445 198.447 290.352 196.268C291.259 194.089 293.391 192.672 295.752 192.677ZM316.952 192.677C320.169 192.684 322.773 195.293 322.773 198.509C322.773 200.869 321.35 202.996 319.168 203.898C316.987 204.8 314.476 204.299 312.809 202.628C311.141 200.957 310.646 198.447 311.553 196.268C312.46 194.089 314.591 192.672 316.952 192.677ZM274.565 192.677C277.776 192.692 280.372 195.298 280.372 198.509C280.372 200.87 278.948 202.998 276.764 203.899C274.581 204.8 272.07 204.297 270.403 202.623C268.737 200.95 268.244 198.437 269.156 196.259C270.067 194.08 272.203 192.666 274.565 192.677ZM232.164 192.677C233.708 192.681 235.187 193.297 236.276 194.391C237.365 195.484 237.975 196.966 237.971 198.509C237.971 200.87 236.547 202.998 234.363 203.899C232.18 204.8 229.669 204.297 228.002 202.623C226.336 200.95 225.843 198.437 226.755 196.259C227.666 194.08 229.802 192.666 232.164 192.677ZM255.105 194.266C253.388 193.557 251.411 193.952 250.099 195.268C248.786 196.583 248.397 198.56 249.112 200.275C249.827 201.99 251.506 203.105 253.364 203.1C255.895 203.092 257.943 201.039 257.943 198.509C257.943 196.651 256.823 194.976 255.105 194.266ZM276.306 194.266C274.588 193.557 272.612 193.952 271.299 195.268C269.987 196.583 269.597 198.56 270.312 200.275C271.027 201.99 272.706 203.105 274.565 203.1C277.096 203.092 279.144 201.039 279.144 198.509C279.144 196.651 278.023 194.976 276.306 194.266ZM233.905 194.266C232.187 193.557 230.211 193.952 228.898 195.268C227.586 196.583 227.196 198.56 227.911 200.275C228.626 201.99 230.305 203.105 232.164 203.1C234.692 203.085 236.736 201.036 236.743 198.509C236.743 196.651 235.623 194.976 233.905 194.266ZM295.752 193.918C293.215 193.918 291.159 195.974 291.159 198.509C291.159 201.044 293.215 203.1 295.752 203.1C298.288 203.1 300.344 201.044 300.344 198.509C300.344 195.974 298.288 193.918 295.752 193.918ZM212.704 194.266C210.987 193.557 209.01 193.952 207.698 195.268C206.385 196.583 205.996 198.56 206.711 200.275C207.426 201.99 209.105 203.105 210.963 203.1C213.494 203.092 215.542 201.039 215.542 198.509C215.542 196.651 214.422 194.976 212.704 194.266ZM361.094 194.266C359.376 193.557 357.4 193.952 356.088 195.268C354.775 196.583 354.386 198.56 355.101 200.275C355.816 201.99 357.494 203.105 359.353 203.1C361.884 203.092 363.932 201.039 363.932 198.509C363.932 196.651 362.812 194.976 361.094 194.266ZM316.952 193.918C314.416 193.918 312.36 195.974 312.36 198.509C312.36 201.044 314.416 203.1 316.952 203.1C319.489 203.1 321.545 201.044 321.545 198.509C321.545 195.974 319.489 193.918 316.952 193.918ZM338.153 193.918C335.616 193.918 333.56 195.974 333.56 198.509C333.56 201.044 335.616 203.1 338.153 203.1C340.689 203.1 342.745 201.044 342.745 198.509C342.745 195.974 340.689 193.918 338.153 193.918ZM25.0709 97.5602L25.8998 96.085C23.2297 100.782 20.7866 105.613 18.5704 110.471C18.2792 111.094 17.9948 111.717 17.7156 112.343L17.7171 195.325C17.7922 195.356 17.8672 195.387 17.942 195.419C18.0032 195.441 18.0626 195.466 18.1203 195.495L18.0498 195.466C20.6607 196.49 22.972 197.999 25.0723 199.777L25.0709 97.5602ZM192.312 194.7L192.37 194.785C192.933 195.591 193.515 196.384 194.116 197.163L194.082 197.047C193.765 196.091 193.14 195.265 192.312 194.7ZM1.84235 187.486C1.84235 190.381 1.9224 193.329 2.06914 196.423C3.62181 195.507 5.28905 194.847 7.0094 194.447L7.00769 143.877C3.57291 158.154 1.83806 172.792 1.84235 187.486ZM9.59895 134.279C9.27994 135.305 8.97893 136.345 8.69033 137.385L8.69084 194.141C11.1568 193.815 13.689 194.012 16.1148 194.751L16.1137 116.065C13.6219 122.016 11.4472 128.096 9.59895 134.279ZM316.952 168.829C318.5 168.833 319.982 169.451 321.074 170.547C322.165 171.643 322.777 173.128 322.773 174.674C322.766 177.895 320.148 180.5 316.926 180.493C313.703 180.486 311.097 177.869 311.105 174.648C311.112 171.427 313.73 168.822 316.952 168.829ZM189.763 168.829C192.98 168.844 195.578 171.459 195.57 174.674C195.565 177.034 194.137 179.159 191.953 180.055C189.77 180.952 187.26 180.445 185.597 178.771C183.933 177.096 183.443 174.584 184.355 172.408C185.267 170.231 187.402 168.819 189.763 168.829ZM359.353 168.829C362.57 168.844 365.168 171.459 365.161 174.674C365.155 177.034 363.727 179.159 361.544 180.055C359.36 180.952 356.851 180.445 355.187 178.771C353.523 177.096 353.033 174.584 353.945 172.408C354.858 170.231 356.992 168.819 359.353 168.829ZM232.164 168.829C235.381 168.844 237.979 171.459 237.971 174.674C237.966 177.034 236.538 179.159 234.354 180.055C232.17 180.952 229.661 180.445 227.998 178.771C226.334 177.096 225.844 174.584 226.756 172.408C227.668 170.231 229.803 168.819 232.164 168.829ZM274.565 168.829C277.782 168.844 280.38 171.459 280.372 174.674C280.367 177.034 278.939 179.159 276.755 180.055C274.571 180.952 272.062 180.445 270.398 178.771C268.735 177.096 268.245 174.584 269.157 172.408C270.069 170.231 272.204 168.819 274.565 168.829ZM210.963 168.829C214.18 168.844 216.778 171.459 216.771 174.674C216.765 177.034 215.338 179.159 213.154 180.055C210.97 180.952 208.461 180.445 206.797 178.771C205.133 177.096 204.643 174.584 205.556 172.408C206.468 170.231 208.602 168.819 210.963 168.829ZM338.153 168.829C341.37 168.844 343.968 171.459 343.96 174.674C343.955 177.034 342.527 179.159 340.343 180.055C338.159 180.952 335.65 180.445 333.987 178.771C332.323 177.096 331.833 174.584 332.745 172.408C333.657 170.231 335.792 168.819 338.153 168.829ZM295.752 168.829C297.299 168.833 298.782 169.451 299.873 170.547C300.965 171.643 301.576 173.128 301.573 174.674C301.565 177.895 298.947 180.5 295.725 180.493C292.503 180.486 289.897 177.869 289.904 174.648C289.912 171.427 292.53 168.822 295.752 168.829ZM253.364 168.829C256.581 168.844 259.179 171.459 259.172 174.674C259.166 177.034 257.738 179.159 255.555 180.055C253.371 180.952 250.862 180.445 249.198 178.771C247.534 177.096 247.044 174.584 247.956 172.408C248.869 170.231 251.003 168.819 253.364 168.829ZM318.719 170.424C317.003 169.709 315.026 170.098 313.71 171.41C312.393 172.722 311.998 174.698 312.708 176.415C313.418 178.132 315.094 179.252 316.952 179.252C319.483 179.252 321.537 177.205 321.545 174.674C321.55 172.817 320.435 171.138 318.719 170.424ZM339.919 170.424C338.204 169.709 336.226 170.098 334.91 171.41C333.594 172.722 333.198 174.698 333.909 176.415C334.619 178.132 336.294 179.252 338.153 179.252C340.684 179.252 342.738 177.205 342.745 174.674C342.751 172.817 341.635 171.138 339.919 170.424ZM276.315 170.422C274.598 169.708 272.619 170.1 271.304 171.415C269.989 172.73 269.597 174.707 270.311 176.424C271.025 178.141 272.705 179.257 274.565 179.252C277.091 179.245 279.137 177.199 279.144 174.674C279.149 172.815 278.032 171.136 276.315 170.422ZM233.914 170.422C232.197 169.708 230.218 170.1 228.903 171.415C227.588 172.73 227.196 174.707 227.91 176.424C228.624 178.141 230.304 179.257 232.164 179.252C234.69 179.245 236.736 177.199 236.743 174.674C236.748 172.815 235.631 171.136 233.914 170.422ZM191.513 170.422C189.796 169.708 187.817 170.1 186.502 171.415C185.187 172.73 184.795 174.707 185.509 176.424C186.223 178.141 187.903 179.257 189.763 179.252C192.289 179.245 194.335 177.199 194.342 174.674C194.347 172.815 193.23 171.136 191.513 170.422ZM255.115 170.422C253.397 169.708 251.419 170.1 250.103 171.415C248.788 172.73 248.396 174.707 249.111 176.424C249.825 178.141 251.504 179.257 253.364 179.252C255.89 179.245 257.936 177.199 257.943 174.674C257.949 172.815 256.832 171.136 255.115 170.422ZM297.519 170.424C295.803 169.709 293.825 170.098 292.509 171.41C291.193 172.722 290.798 174.698 291.508 176.415C292.218 178.132 293.893 179.252 295.752 179.252C298.283 179.252 300.337 177.205 300.344 174.674C300.35 172.817 299.234 171.138 297.519 170.424ZM212.714 170.422C210.996 169.708 209.018 170.1 207.703 171.415C206.387 172.73 205.995 174.707 206.71 176.424C207.424 178.141 209.103 179.257 210.963 179.252C213.489 179.245 215.535 177.199 215.542 174.674C215.548 172.815 214.431 171.136 212.714 170.422ZM361.104 170.422C359.386 169.708 357.408 170.1 356.092 171.415C354.777 172.73 354.385 174.707 355.099 176.424C355.814 178.141 357.493 179.257 359.353 179.252C361.879 179.245 363.925 177.199 363.932 174.674C363.938 172.815 362.821 171.136 361.104 170.422ZM338.153 144.982C341.37 144.996 343.968 147.611 343.96 150.827C343.955 153.187 342.527 155.311 340.343 156.208C338.159 157.104 335.65 156.597 333.987 154.923C332.323 153.248 331.833 150.737 332.745 148.56C333.657 146.383 335.792 144.971 338.153 144.982ZM253.364 144.982C256.581 144.996 259.179 147.611 259.172 150.827C259.166 153.187 257.738 155.311 255.555 156.208C253.371 157.104 250.862 156.597 249.198 154.923C247.534 153.248 247.044 150.737 247.956 148.56C248.869 146.383 251.003 144.971 253.364 144.982ZM316.952 144.982C320.164 144.989 322.766 147.59 322.773 150.8C322.778 153.161 321.359 155.293 319.178 156.199C316.996 157.105 314.484 156.607 312.814 154.937C311.143 153.267 310.645 150.756 311.551 148.575C312.458 146.395 314.59 144.976 316.952 144.982ZM210.963 144.982C214.17 144.996 216.763 147.595 216.771 150.8C216.776 153.162 215.355 155.295 213.172 156.2C210.989 157.105 208.476 156.605 206.807 154.932C205.137 153.26 204.642 150.746 205.553 148.566C206.464 146.386 208.6 144.971 210.963 144.982ZM189.763 144.982C192.98 144.996 195.578 147.611 195.57 150.827C195.565 153.187 194.137 155.311 191.953 156.208C189.77 157.104 187.26 156.597 185.597 154.923C183.933 153.248 183.443 150.737 184.355 148.56C185.267 146.383 187.402 144.971 189.763 144.982ZM295.752 144.982C297.299 144.985 298.782 145.603 299.873 146.699C300.965 147.795 301.576 149.28 301.573 150.827C301.565 154.048 298.947 156.653 295.725 156.645C292.503 156.638 289.897 154.021 289.904 150.8C289.912 147.579 292.53 144.974 295.752 144.982ZM232.164 144.982C235.381 144.996 237.979 147.611 237.971 150.827C237.966 153.187 236.538 155.311 234.354 156.208C232.17 157.104 229.661 156.597 227.998 154.923C226.334 153.248 225.844 150.737 226.756 148.56C227.668 146.383 229.803 144.971 232.164 144.982ZM359.353 144.982C362.57 144.996 365.168 147.611 365.161 150.827C365.155 153.187 363.727 155.311 361.544 156.208C359.36 157.104 356.851 156.597 355.187 154.923C353.523 153.248 353.033 150.737 353.945 148.56C354.858 146.383 356.992 144.971 359.353 144.982ZM274.565 144.982C277.75 145.025 280.312 147.615 280.319 150.8C280.324 153.167 278.897 155.303 276.708 156.205C274.518 157.107 272 156.596 270.336 154.913C268.671 153.229 268.189 150.707 269.117 148.529C270.044 146.351 272.197 144.949 274.565 144.982ZM339.919 146.576C338.204 145.861 336.226 146.251 334.91 147.563C333.594 148.874 333.198 150.85 333.909 152.567C334.619 154.284 336.294 155.404 338.153 155.404C340.684 155.404 342.738 153.357 342.745 150.827C342.751 148.969 341.635 147.291 339.919 146.576ZM212.714 146.575C210.996 145.861 209.018 146.253 207.703 147.567C206.387 148.882 205.995 150.86 206.71 152.576C207.424 154.293 209.103 155.41 210.963 155.404C213.489 155.397 215.535 153.352 215.542 150.827C215.548 148.968 214.431 147.289 212.714 146.575ZM276.315 146.575C274.598 145.861 272.619 146.253 271.304 147.567C269.989 148.882 269.597 150.86 270.311 152.576C271.025 154.293 272.705 155.41 274.565 155.404C277.091 155.397 279.137 153.352 279.144 150.827C279.149 148.968 278.032 147.289 276.315 146.575ZM318.719 146.576C317.003 145.861 315.026 146.251 313.71 147.563C312.393 148.874 311.998 150.85 312.708 152.567C313.418 154.284 315.094 155.404 316.952 155.404C319.483 155.404 321.537 153.357 321.545 150.827C321.55 148.969 320.435 147.291 318.719 146.576ZM361.104 146.575C359.386 145.861 357.408 146.253 356.092 147.567C354.777 148.882 354.385 150.86 355.099 152.576C355.814 154.293 357.493 155.41 359.353 155.404C361.879 155.397 363.925 153.352 363.932 150.827C363.938 148.968 362.821 147.289 361.104 146.575ZM189.736 146.223C187.2 146.23 185.15 148.291 185.157 150.827C185.164 153.362 187.226 155.411 189.763 155.404C190.981 155.401 192.148 154.914 193.006 154.05C193.865 153.187 194.346 152.018 194.342 150.8C194.335 148.265 192.273 146.215 189.736 146.223ZM255.115 146.575C253.397 145.861 251.419 146.253 250.103 147.567C248.788 148.882 248.396 150.86 249.111 152.576C249.825 154.293 251.504 155.41 253.364 155.404C255.89 155.397 257.936 153.352 257.943 150.827C257.949 148.968 256.832 147.289 255.115 146.575ZM295.743 146.223C293.208 146.228 291.157 148.284 291.159 150.818C291.162 153.351 293.217 155.404 295.752 155.404C296.972 155.404 298.142 154.919 299.004 154.055C299.866 153.191 300.348 152.02 300.344 150.8C300.337 148.266 298.278 146.218 295.743 146.223ZM233.914 146.575C232.197 145.861 230.218 146.253 228.903 147.567C227.588 148.882 227.196 150.86 227.91 152.576C228.624 154.293 230.304 155.41 232.164 155.404C234.69 155.397 236.736 153.352 236.743 150.827C236.748 148.968 235.631 147.289 233.914 146.575ZM338.153 121.134C341.37 121.149 343.968 123.763 343.96 126.979C343.955 129.339 342.527 131.463 340.343 132.36C338.159 133.257 335.65 132.75 333.987 131.075C332.323 129.401 331.833 126.889 332.745 124.712C333.657 122.536 335.792 121.123 338.153 121.134ZM316.952 121.134C318.5 121.137 319.982 121.755 321.074 122.851C322.165 123.948 322.777 125.432 322.773 126.979C322.766 130.2 320.148 132.805 316.926 132.797C313.703 132.79 311.097 130.173 311.105 126.952C311.112 123.731 313.73 121.126 316.952 121.134ZM253.364 121.134C256.581 121.149 259.179 123.763 259.172 126.979C259.166 129.339 257.738 131.463 255.555 132.36C253.371 133.257 250.862 132.75 249.198 131.075C247.534 129.401 247.044 126.889 247.956 124.712C248.869 122.536 251.003 121.123 253.364 121.134ZM274.565 121.134C277.761 121.178 280.326 123.784 280.319 126.979C280.313 129.344 278.879 131.471 276.689 132.365C274.499 133.258 271.985 132.741 270.326 131.055C268.667 129.37 268.19 126.85 269.119 124.675C270.048 122.5 272.199 121.101 274.565 121.134ZM295.752 121.134C297.299 121.137 298.782 121.755 299.873 122.851C300.965 123.948 301.576 125.432 301.573 126.979C301.565 130.2 298.947 132.805 295.725 132.797C292.503 132.79 289.897 130.173 289.904 126.952C289.912 123.731 292.53 121.126 295.752 121.134ZM210.963 121.134C214.18 121.149 216.778 123.763 216.771 126.979C216.765 129.339 215.338 131.463 213.154 132.36C210.97 133.257 208.461 132.75 206.797 131.075C205.133 129.401 204.643 126.889 205.556 124.712C206.468 122.536 208.602 121.123 210.963 121.134ZM189.763 121.134C192.98 121.149 195.578 123.763 195.57 126.979C195.565 129.339 194.137 131.463 191.953 132.36C189.77 133.257 187.26 132.75 185.597 131.075C183.933 129.401 183.443 126.889 184.355 124.712C185.267 122.536 187.402 121.123 189.763 121.134ZM232.164 121.134C235.381 121.149 237.979 123.763 237.971 126.979C237.966 129.339 236.538 131.463 234.354 132.36C232.17 133.257 229.661 132.75 227.998 131.075C226.334 129.401 225.844 126.889 226.756 124.712C227.668 122.536 229.803 121.123 232.164 121.134ZM255.115 122.727C253.397 122.013 251.419 122.405 250.103 123.72C248.788 125.034 248.396 127.012 249.111 128.729C249.825 130.445 251.504 131.562 253.364 131.556C255.89 131.549 257.936 129.504 257.943 126.979C257.949 125.12 256.832 123.441 255.115 122.727ZM276.315 122.727C274.598 122.013 272.619 122.405 271.304 123.72C269.989 125.034 269.597 127.012 270.311 128.729C271.025 130.445 272.705 131.562 274.565 131.556C277.091 131.549 279.137 129.504 279.144 126.979C279.149 125.12 278.032 123.441 276.315 122.727ZM318.719 122.728C317.003 122.013 315.026 122.403 313.71 123.715C312.393 125.027 311.998 127.002 312.708 128.719C313.418 130.436 315.094 131.556 316.952 131.556C319.483 131.556 321.537 129.509 321.545 126.979C321.55 125.121 320.435 123.443 318.719 122.728ZM339.919 122.728C338.204 122.013 336.226 122.403 334.91 123.715C333.594 125.027 333.198 127.002 333.909 128.719C334.619 130.436 336.294 131.556 338.153 131.556C340.684 131.556 342.738 129.509 342.745 126.979C342.751 125.121 341.635 123.443 339.919 122.728ZM191.513 122.727C189.796 122.013 187.817 122.405 186.502 123.72C185.187 125.034 184.795 127.012 185.509 128.729C186.223 130.445 187.903 131.562 189.763 131.556C192.289 131.549 194.335 129.504 194.342 126.979C194.347 125.12 193.23 123.441 191.513 122.727ZM233.914 122.727C232.197 122.013 230.218 122.405 228.903 123.72C227.588 125.034 227.196 127.012 227.91 128.729C228.624 130.445 230.304 131.562 232.164 131.556C234.69 131.549 236.736 129.504 236.743 126.979C236.748 125.12 235.631 123.441 233.914 122.727ZM212.714 122.727C210.996 122.013 209.018 122.405 207.703 123.72C206.387 125.034 205.995 127.012 206.71 128.729C207.424 130.445 209.103 131.562 210.963 131.556C213.489 131.549 215.535 129.504 215.542 126.979C215.548 125.12 214.431 123.441 212.714 122.727ZM297.519 122.728C295.803 122.013 293.825 122.403 292.509 123.715C291.193 125.027 290.798 127.002 291.508 128.719C292.218 130.436 293.893 131.556 295.752 131.556C298.283 131.556 300.337 129.509 300.344 126.979C300.35 125.121 299.234 123.443 297.519 122.728ZM359.3 122.388C356.772 122.388 354.723 124.435 354.721 126.961C354.718 129.487 356.764 131.538 359.291 131.543C361.275 131.547 362.966 130.289 363.606 128.527C363.395 127.862 363.166 127.23 362.944 126.632V126.432C362.784 126.018 362.664 125.671 362.544 125.351L362.464 125.124C362.229 124.434 361.984 123.766 361.737 123.1C361.022 122.645 360.18 122.39 359.3 122.388ZM171.61 123.577L171.656 123.746C172.091 125.366 172.464 127.003 172.775 128.651L172.812 128.557C173.002 128.057 173.102 127.523 173.102 126.979C173.111 125.663 172.553 124.433 171.61 123.577ZM338.153 97.286C341.37 97.3008 343.968 99.9156 343.96 103.131C343.955 105.491 342.527 107.615 340.343 108.512C338.159 109.409 335.65 108.902 333.987 107.227C332.323 105.553 331.833 103.041 332.745 100.865C333.657 98.6878 335.792 97.2753 338.153 97.286ZM253.364 97.286C256.581 97.3008 259.179 99.9156 259.172 103.131C259.166 105.491 257.738 107.615 255.555 108.512C253.371 109.409 250.862 108.902 249.198 107.227C247.534 105.553 247.044 103.041 247.956 100.865C248.869 98.6878 251.003 97.2753 253.364 97.286ZM274.565 97.286C277.761 97.3299 280.326 99.9362 280.319 103.131C280.313 105.496 278.879 107.623 276.689 108.517C274.499 109.41 271.985 108.893 270.326 107.208C268.667 105.522 268.19 103.002 269.119 100.827C270.048 98.6523 272.199 97.2536 274.565 97.286ZM316.952 97.286C318.5 97.2896 319.982 97.9074 321.074 99.0036C322.165 100.1 322.777 101.585 322.773 103.131C322.766 106.352 320.148 108.957 316.926 108.95C313.703 108.942 311.097 106.325 311.105 103.105C311.112 99.8837 313.73 97.2787 316.952 97.286ZM210.963 97.286C214.18 97.3008 216.778 99.9156 216.771 103.131C216.765 105.491 215.338 107.615 213.154 108.512C210.97 109.409 208.461 108.902 206.797 107.227C205.133 105.553 204.643 103.041 205.556 100.865C206.468 98.6878 208.602 97.2753 210.963 97.286ZM232.164 97.286C235.381 97.3008 237.979 99.9156 237.971 103.131C237.966 105.491 236.538 107.615 234.354 108.512C232.17 109.409 229.661 108.902 227.998 107.227C226.334 105.553 225.844 103.041 226.756 100.865C227.668 98.6878 229.803 97.2753 232.164 97.286ZM189.763 97.286C192.98 97.3008 195.578 99.9156 195.57 103.131C195.565 105.491 194.137 107.615 191.953 108.512C189.77 109.409 187.26 108.902 185.597 107.227C183.933 105.553 183.443 103.041 184.355 100.865C185.267 98.6878 187.402 97.2753 189.763 97.286ZM295.752 97.286C297.299 97.2896 298.782 97.9074 299.873 99.0036C300.965 100.1 301.576 101.585 301.573 103.131C301.565 106.352 298.947 108.957 295.725 108.95C292.503 108.942 289.897 106.325 289.904 103.105C289.912 99.8837 292.53 97.2787 295.752 97.286ZM276.315 98.8792C274.598 98.1652 272.619 98.5571 271.304 99.8717C269.989 101.186 269.597 103.164 270.311 104.881C271.025 106.597 272.705 107.714 274.565 107.709C277.091 107.701 279.137 105.656 279.144 103.131C279.149 101.272 278.032 99.5931 276.315 98.8792ZM212.714 98.8792C210.996 98.1652 209.018 98.5571 207.703 99.8717C206.387 101.186 205.995 103.164 206.71 104.881C207.424 106.597 209.103 107.714 210.963 107.709C213.489 107.701 215.535 105.656 215.542 103.131C215.548 101.272 214.431 99.5931 212.714 98.8792ZM191.513 98.8792C189.796 98.1652 187.817 98.5571 186.502 99.8717C185.187 101.186 184.795 103.164 185.509 104.881C186.223 106.597 187.903 107.714 189.763 107.709C192.289 107.701 194.335 105.656 194.342 103.131C194.347 101.272 193.23 99.5931 191.513 98.8792ZM233.914 98.8792C232.197 98.1652 230.218 98.5571 228.903 99.8717C227.588 101.186 227.196 103.164 227.91 104.881C228.624 106.597 230.304 107.714 232.164 107.709C234.69 107.701 236.736 105.656 236.743 103.131C236.748 101.272 235.631 99.5931 233.914 98.8792ZM255.115 98.8792C253.397 98.1652 251.419 98.5571 250.103 99.8717C248.788 101.186 248.396 103.164 249.111 104.881C249.825 106.597 251.504 107.714 253.364 107.709C255.89 107.701 257.936 105.656 257.943 103.131C257.949 101.272 256.832 99.5931 255.115 98.8792ZM318.719 98.8804C317.003 98.1657 315.026 98.5551 313.71 99.867C312.393 101.179 311.998 103.154 312.708 104.872C313.418 106.589 315.094 107.709 316.952 107.709C319.483 107.709 321.537 105.661 321.545 103.131C321.55 101.273 320.435 99.5952 318.719 98.8804ZM297.519 98.8804C295.803 98.1657 293.825 98.5551 292.509 99.867C291.193 101.179 290.798 103.154 291.508 104.872C292.218 106.589 293.893 107.709 295.752 107.709C298.283 107.709 300.337 105.661 300.344 103.131C300.35 101.273 299.234 99.5952 297.519 98.8804ZM170.329 98.8804C168.613 98.1657 166.636 98.5551 165.32 99.867C164.003 101.179 163.608 103.154 164.318 104.872C165.028 106.589 166.704 107.709 168.562 107.709C171.094 107.709 173.148 105.661 173.155 103.131C173.16 101.273 172.045 99.5952 170.329 98.8804ZM339.919 98.8804C338.204 98.1657 336.226 98.5551 334.91 99.867C333.594 101.179 333.198 103.154 333.909 104.872C334.619 106.589 336.294 107.709 338.153 107.709C340.684 107.709 342.738 105.661 342.745 103.131C342.751 101.273 341.635 99.5952 339.919 98.8804ZM78.7274 37.0728C64.9479 47.0545 52.5955 58.8689 42.0119 72.1891C42.5088 72.3229 42.9986 72.4779 43.4823 72.6509C44.0809 72.8426 44.6691 73.0653 45.2446 73.3182C47.8711 74.401 50.3191 75.8721 52.5069 77.6816C53.7247 78.6602 54.8681 79.7362 55.9246 80.9015C56.3254 81.328 56.7039 81.7525 57.073 82.1927C58.5636 83.9979 60.1785 85.6969 61.9059 87.2772L63.0273 88.2914L63.3082 88.5387C65.2916 90.2376 67.3318 91.7283 69.4082 93.0274C69.4943 93.0831 69.5813 93.137 69.6684 93.1906L69.4082 93.0274C69.6028 93.1492 69.7978 93.2692 69.993 93.3876L69.6684 93.1906C70.0218 93.4078 70.378 93.6207 70.7369 93.8291L69.993 93.3876C70.7384 93.8397 71.4883 94.2675 72.2417 94.6716C72.295 94.6992 72.3472 94.7251 72.3993 94.7505L73.0789 95.1104C85.1908 101.309 98.1078 101.524 107.992 98.8741C109.224 98.5437 110.426 98.169 111.596 97.7527C112.796 97.3091 113.977 96.8105 115.134 96.2585C115.721 95.9916 116.255 95.738 116.789 95.4578C119.357 94.1617 121.771 92.5815 123.985 90.7469C124.559 90.2798 125.107 89.7994 125.614 89.3323C128.632 86.5709 131.069 83.2365 132.783 79.5237C133.462 78.0742 134.003 76.5639 134.399 75.013C134.599 74.279 134.732 73.5717 134.879 72.8511C135.033 72.0642 135.17 71.3947 135.31 70.7587L135.306 70.7559L135.309 70.7447L134.434 69.9303C134.004 69.5334 133.572 69.139 133.139 68.7473C132.861 68.5051 132.582 68.2627 132.303 68.0207L131.422 67.2595L131.114 67.0059C130.664 66.5655 130.191 66.1477 129.706 65.7411L129.219 65.3378L128.925 65.1109C126.668 63.1941 124.2 61.2441 121.403 59.1809L120.554 58.5585L120.247 58.385C119.353 57.7177 118.485 57.0505 117.577 56.4366C116.819 55.9105 116.056 55.3915 115.289 54.8796C115.118 54.7648 114.946 54.6509 114.773 54.5373L115.289 54.8796C114.987 54.6783 114.684 54.478 114.381 54.2788L114.773 54.5373C105.051 48.1322 94.6082 42.8455 83.6433 38.7944C83.5503 38.7623 83.4553 38.7315 83.36 38.7009L82.5056 38.3792C81.2528 37.9276 79.9933 37.4921 78.7274 37.0728ZM210.963 73.3982C214.18 73.413 216.778 76.0278 216.771 79.2434C216.765 81.6034 215.338 83.7274 213.154 84.6243C210.97 85.5212 208.461 85.014 206.797 83.3395C205.133 81.6651 204.643 79.1534 205.556 76.9767C206.468 74.8 208.602 73.3875 210.963 73.3982ZM274.565 73.3983C277.776 73.4422 280.348 76.0729 280.319 79.2835C280.297 81.6445 278.853 83.7593 276.661 84.6403C274.47 85.5212 271.963 84.9943 270.312 83.3057C268.661 81.6171 268.192 79.1 269.123 76.9302C270.055 74.7604 272.203 73.3659 274.565 73.3983ZM168.562 73.3982C171.779 73.413 174.377 76.0278 174.37 79.2434C174.364 81.6034 172.937 83.7274 170.753 84.6243C168.569 85.5212 166.06 85.014 164.396 83.3395C162.733 81.6651 162.242 79.1534 163.155 76.9767C164.067 74.8 166.201 73.3875 168.562 73.3982ZM316.952 73.3982C318.5 73.4018 319.982 74.0196 321.074 75.1158C322.165 76.212 322.777 77.6967 322.773 79.2434C322.766 82.4642 320.148 85.0692 316.926 85.0619C313.703 85.0545 311.097 82.4375 311.105 79.2167C311.112 75.9959 313.73 73.3909 316.952 73.3982ZM253.364 73.3982C256.581 73.413 259.179 76.0278 259.172 79.2434C259.166 81.6034 257.738 83.7274 255.555 84.6243C253.371 85.5212 250.862 85.014 249.198 83.3395C247.534 81.6651 247.044 79.1534 247.956 76.9767C248.869 74.8 251.003 73.3875 253.364 73.3982ZM189.763 73.3982C192.98 73.413 195.578 76.0278 195.57 79.2434C195.565 81.6034 194.137 83.7274 191.953 84.6243C189.77 85.5212 187.26 85.014 185.597 83.3395C183.933 81.6651 183.443 79.1534 184.355 76.9767C185.267 74.8 187.402 73.3875 189.763 73.3982ZM232.164 73.3982C235.381 73.413 237.979 76.0278 237.971 79.2434C237.966 81.6034 236.538 83.7274 234.354 84.6243C232.17 85.5212 229.661 85.014 227.998 83.3395C226.334 81.6651 225.844 79.1534 226.756 76.9767C227.668 74.8 229.803 73.3875 232.164 73.3982ZM295.752 73.3982C297.299 73.4018 298.782 74.0196 299.873 75.1158C300.965 76.212 301.576 77.6967 301.573 79.2434C301.565 82.4642 298.947 85.0692 295.725 85.0619C292.503 85.0545 289.897 82.4375 289.904 79.2167C289.912 75.9959 292.53 73.3909 295.752 73.3982ZM274.565 74.666C272.036 74.666 269.986 76.7154 269.986 79.2434C269.986 81.7714 272.036 83.8208 274.565 83.8208V83.8608C275.785 83.8573 276.954 83.3684 277.813 82.5021C278.672 81.6358 279.151 80.4633 279.144 79.2434C279.144 76.7154 277.094 74.666 274.565 74.666ZM335.571 75.4658C334.063 76.4832 333.271 78.3266 333.638 80.1678C334.067 82.3188 335.958 83.866 338.153 83.8608C339.167 83.8623 340.143 83.5214 340.928 82.9085C340.911 82.8823 340.894 82.8578 340.876 82.8333C339.207 80.3778 337.472 77.9623 335.683 75.6269L335.571 75.4658ZM189.763 74.666C187.234 74.666 185.184 76.7154 185.184 79.2434C185.184 81.7714 187.234 83.8208 189.763 83.8208V83.8608C190.983 83.8573 192.152 83.3684 193.011 82.5021C193.87 81.6358 194.349 80.4633 194.342 79.2434C194.342 76.7154 192.292 74.666 189.763 74.666ZM297.549 75.0274C295.84 74.3055 293.865 74.6847 292.546 75.9879C291.227 77.291 290.825 79.2607 291.527 80.9765C292.229 82.6923 293.897 83.8153 295.752 83.8208V83.8608C298.283 83.8608 300.337 81.8136 300.344 79.2835C300.361 77.4297 299.257 75.7493 297.549 75.0274ZM210.963 74.666C208.434 74.666 206.384 76.7154 206.384 79.2434C206.384 81.7714 208.434 83.8208 210.963 83.8208V83.8608C212.184 83.8573 213.352 83.3684 214.212 82.5021C215.071 81.6358 215.55 80.4633 215.543 79.2434C215.543 76.7154 213.492 74.666 210.963 74.666ZM232.164 74.666C229.635 74.666 227.585 76.7154 227.585 79.2434C227.585 81.7714 229.635 83.8208 232.164 83.8208V83.8608C233.384 83.8573 234.553 83.3684 235.412 82.5021C236.271 81.6358 236.75 80.4633 236.743 79.2434C236.743 76.7154 234.693 74.666 232.164 74.666ZM253.364 74.666C250.835 74.666 248.785 76.7154 248.785 79.2434C248.785 81.7714 250.835 83.8208 253.364 83.8208V83.8608C254.585 83.8573 255.753 83.3684 256.612 82.5021C257.472 81.6358 257.951 80.4633 257.944 79.2434C257.944 76.7154 255.893 74.666 253.364 74.666ZM168.58 74.6661C166.053 74.6636 164.001 76.7083 163.997 79.2345C163.992 81.7608 166.035 83.8134 168.562 83.8208V83.8608C169.785 83.8608 170.957 83.3735 171.819 82.5068C172.681 81.6401 173.162 80.4656 173.155 79.2434C173.155 76.7171 171.107 74.6685 168.58 74.6661ZM316.97 74.6661C314.443 74.6636 312.391 76.7083 312.386 79.2345C312.382 81.7608 314.425 83.8134 316.952 83.8208V83.8608C318.175 83.8608 319.347 83.3735 320.209 82.5068C321.071 81.6401 321.552 80.4656 321.545 79.2434C321.545 76.7171 319.497 74.6685 316.97 74.6661ZM147.362 74.6127C145.917 74.612 144.581 75.2962 143.734 76.4193L143.721 76.4385L143.813 76.5337C144.242 76.9823 144.665 77.4552 145.066 77.9356C146.62 79.6173 148.14 81.3567 149.607 83.1278C151.183 82.1991 152.085 80.3862 151.805 78.5125C151.474 76.303 149.596 74.6547 147.362 74.6127ZM187.434 1.92248L187.587 1.9217C184.838 1.92413 182.09 1.98476 179.344 2.10349C179.657 2.49317 179.843 2.98638 179.843 3.52312C179.843 4.77607 178.827 5.79179 177.574 5.79179C176.32 5.79179 175.304 4.77607 175.304 3.52312C175.304 3.07184 175.436 2.65134 175.663 2.29798C173.207 2.45042 170.751 2.65005 168.299 2.89628C168.358 3.09531 168.389 3.30564 168.389 3.52312C168.389 4.77607 167.373 5.79179 166.119 5.79179C164.866 5.79179 163.85 4.77607 163.85 3.52312C163.85 3.492 163.85 3.46103 163.852 3.43022L164.277 3.37632C153.567 4.69669 143.012 6.95973 132.734 10.1304C133.49 10.4978 134.011 11.2735 134.011 12.1708C134.011 13.4237 132.995 14.4394 131.742 14.4394C130.488 14.4394 129.472 13.4237 129.472 12.1708C129.472 11.7742 129.574 11.4013 129.753 11.077C123.019 13.2817 116.409 15.8785 109.957 18.8578C110.634 19.2482 111.089 19.9802 111.089 20.8184C111.089 22.0714 110.073 23.0871 108.819 23.0871C107.566 23.0871 106.55 22.0714 106.55 20.8184C106.55 20.6892 106.56 20.5626 106.581 20.4393L107.911 19.8042C98.3711 24.3109 89.2407 29.6378 80.6232 35.7249C81.7489 36.0942 82.8573 36.4895 83.9483 36.9109C84.365 36.1862 85.1702 35.7251 86.0575 35.7826C87.2722 35.8614 88.2084 36.884 88.1795 38.1004C88.1779 38.2251 88.1663 38.349 88.145 38.4709C88.1463 38.4715 88.1495 38.4727 88.1528 38.474C94.5108 41.0348 100.687 44.0132 106.64 47.3877C106.58 47.19 106.55 46.9793 106.55 46.7614C106.55 45.5084 107.566 44.4927 108.819 44.4927C110.073 44.4927 111.089 45.5084 111.089 46.7614C111.089 47.829 110.351 48.7244 109.357 48.9659C110.144 49.4314 110.927 49.9056 111.705 50.3869C113.894 51.7357 116.05 53.1388 118.17 54.5953L118.196 54.5259C118.541 53.7117 119.347 53.1403 120.287 53.1403C121.541 53.1403 122.557 54.1561 122.557 55.409C122.557 56.101 122.247 56.7205 121.758 57.1367C122.384 57.5924 123.007 58.0539 123.626 58.5202C125.666 60.0476 127.533 61.5236 129.272 62.9833C129.388 63.0772 129.502 63.1721 129.616 63.2672L129.651 63.1736C129.995 62.3593 130.802 61.788 131.742 61.788C132.995 61.788 134.011 62.8037 134.011 64.0567C134.011 64.9034 133.547 65.6418 132.86 66.0316L132.383 65.618C133.558 66.621 134.693 67.6369 135.816 68.6531L135.827 68.6073L135.84 68.6189L135.944 68.2567C137.098 64.3646 138.972 60.7166 141.474 57.5042C141.561 57.3912 141.653 57.2753 141.748 57.1575C141.247 56.7407 140.927 56.1122 140.927 55.409C140.927 54.1561 141.943 53.1403 143.197 53.1403C143.85 53.1403 144.44 53.4167 144.854 53.859C146.151 52.6707 147.564 51.6074 149.071 50.6848C149.458 50.4446 149.858 50.2178 150.259 49.9909C151.223 49.4555 152.219 48.9687 153.247 48.5303C152.728 48.1173 152.395 47.4781 152.395 46.7614C152.395 45.5084 153.411 44.4927 154.665 44.4927C155.918 44.4927 156.934 45.5084 156.934 46.7614C156.934 46.9188 156.918 47.0726 156.888 47.221C159.167 46.5355 161.571 46.0636 164.078 45.8026C164.432 45.0942 165.149 44.596 165.992 44.5537C166.819 44.5123 167.57 44.9199 167.999 45.5682C170.413 45.5253 172.906 45.6638 175.462 45.9831C175.765 45.078 176.62 44.426 177.627 44.426C178.888 44.426 179.91 45.4477 179.91 46.708C182.62 47.2517 185.396 47.9904 188.214 48.9233L188.354 48.9238C187.437 48.6325 186.772 47.7745 186.772 46.7614C186.772 45.5084 187.788 44.4927 189.042 44.4927C190.295 44.4927 191.311 45.5084 191.311 46.7614C191.311 48.0143 190.295 49.03 189.042 49.03C188.823 49.03 188.612 48.9992 188.412 48.9416L188.361 48.9233C189.176 49.1895 190.02 49.4823 190.903 49.8061C191.561 49.934 192.188 50.1729 192.758 50.5085C193.487 50.7957 194.246 51.1026 195.036 51.4322L195.61 51.7124C196.851 52.2519 198.092 52.8347 199.339 53.4527C199.69 53.2394 200.099 53.1232 200.523 53.127C201.712 53.1409 202.68 54.0611 202.772 55.2258C203.076 55.3863 203.381 55.5504 203.687 55.7159C204.502 56.183 205.329 56.6368 206.13 57.0505L206.651 57.3574C208.431 58.336 210.211 59.2613 211.991 60.1332L212.218 60.2399C215.28 61.7344 218.257 63.0466 221.155 64.1765L221.15 64.0567C221.15 62.8037 222.166 61.788 223.419 61.788C224.673 61.788 225.689 62.8037 225.689 64.0567C225.689 64.6572 225.455 65.2033 225.074 65.6091C241.252 71.1258 254.893 70.6636 266.975 64.2185C266.97 64.1647 266.968 64.1107 266.968 64.0567C266.961 63.018 267.661 62.1072 268.666 61.8456C269.305 61.6795 269.964 61.8022 270.487 62.1471C271.364 61.5812 272.234 60.9806 273.096 60.3467C273.67 59.933 274.191 59.5327 274.725 59.1056C275.516 58.4851 276.284 57.827 277.064 57.137L277.849 56.4366L278.169 56.1296L278.477 55.8516C278.381 55.3826 278.434 54.8855 278.645 54.4342C279.021 53.6305 279.832 53.1197 280.719 53.127C280.875 53.1272 281.029 53.1434 281.18 53.1749C284.952 49.183 288.337 44.8391 291.29 40.2031C290.475 39.8589 289.904 39.0529 289.904 38.1137C289.904 36.8608 290.92 35.845 292.174 35.845C292.693 35.845 293.172 36.0194 293.554 36.3127C293.704 36.0112 293.849 35.7061 293.988 35.3986L294.016 35.418C290.229 32.7815 286.349 30.2825 282.385 27.9255C282.76 28.3304 282.989 28.8715 282.989 29.4661C282.989 30.719 281.973 31.7347 280.719 31.7347C279.466 31.7347 278.45 30.719 278.45 29.4661C278.45 28.2131 279.466 27.1974 280.719 27.1974C280.905 27.1974 281.086 27.2197 281.259 27.2618C277.974 25.3376 274.631 23.5112 271.235 21.7845C270.844 22.4855 270.096 22.9527 269.245 22.9527C268.051 22.9527 267.059 22.0343 266.968 20.8451C266.969 20.4824 267.056 20.1299 267.215 19.8136L267.422 19.9109C261.296 16.9956 255.017 14.4142 248.612 12.178C248.607 13.4284 247.592 14.4394 246.342 14.4394C245.088 14.4394 244.072 13.4237 244.072 12.1708C244.072 11.66 244.241 11.1886 244.526 10.8095L245.154 11.0097C235.07 7.7428 224.726 5.34402 214.234 3.83953C214.185 4.57095 213.786 5.24157 213.149 5.63071C212.418 6.07799 211.498 6.07799 210.766 5.63071C210.035 5.18342 209.616 4.36427 209.682 3.50977C209.679 3.41356 209.683 3.31768 209.694 3.22276L209.975 3.25621C207.555 2.9626 205.114 2.72066 202.534 2.52131C202.682 2.82364 202.766 3.16361 202.766 3.52312C202.766 4.77607 201.75 5.79179 200.497 5.79179C199.243 5.79179 198.227 4.77607 198.227 3.52312C198.227 3.05273 198.37 2.61578 198.615 2.25345L199.936 2.3354C196.686 2.12744 193.65 2.00031 190.674 1.94856C191.07 2.35677 191.311 2.9117 191.311 3.52312C191.311 4.77607 190.295 5.79179 189.042 5.79179C187.788 5.79179 186.772 4.77607 186.772 3.52312C186.772 2.89845 187.025 2.33274 187.434 1.92248ZM257.797 61.788C259.05 61.788 260.066 62.8037 260.066 64.0567C260.066 65.3096 259.05 66.3253 257.797 66.3253C256.543 66.3253 255.527 65.3096 255.527 64.0567C255.527 62.8037 256.543 61.788 257.797 61.788ZM246.342 61.788C247.595 61.788 248.611 62.8037 248.611 64.0567C248.611 65.3096 247.595 66.3253 246.342 66.3253C245.088 66.3253 244.072 65.3096 244.072 64.0567C244.072 62.8037 245.088 61.788 246.342 61.788ZM234.874 61.788C236.127 61.788 237.143 62.8037 237.143 64.0567C237.143 65.3096 236.127 66.3253 234.874 66.3253C233.62 66.3253 232.604 65.3096 232.604 64.0567C232.604 62.8037 233.62 61.788 234.874 61.788ZM168.562 49.6039C170.106 49.6074 171.585 50.2238 172.674 51.3175C173.763 52.4112 174.373 53.8925 174.37 55.4357C174.362 58.6491 171.75 61.2482 168.536 61.2408C165.321 61.2334 162.721 58.6224 162.728 55.409C162.736 52.1955 165.348 49.5965 168.562 49.6039ZM295.752 49.6039C297.298 49.6039 298.78 50.2187 299.872 51.3128C300.964 52.4068 301.576 53.8902 301.573 55.4357C301.565 58.6474 298.956 61.2457 295.743 61.2408C292.53 61.2359 289.929 58.6296 289.931 55.4179C289.933 52.2062 292.539 49.6039 295.752 49.6039ZM168.58 50.8583C166.053 50.8559 164.001 52.9006 163.997 55.4268C163.992 57.9531 166.035 60.0057 168.562 60.0131V60.0531C169.785 60.0531 170.957 59.5658 171.819 58.6991C172.681 57.8324 173.162 56.6578 173.155 55.4357C173.155 52.9094 171.107 50.8608 168.58 50.8583ZM295.77 50.8583C293.242 50.8559 291.191 52.9006 291.186 55.4268C291.181 57.9531 293.225 60.0057 295.752 60.0131V60.0531C296.974 60.0531 298.147 59.5658 299.009 58.6991C299.871 57.8324 300.351 56.6578 300.344 55.4357C300.344 52.9094 298.297 50.8608 295.77 50.8583ZM188.546 51.0611L188.36 51.1173C186.517 51.7096 185.184 53.437 185.184 55.4757C185.184 58.0037 187.234 60.0531 189.763 60.0531C192.289 60.0458 194.335 58.0007 194.342 55.4757C194.342 54.5612 194.074 53.7093 193.612 52.9945C191.946 52.2887 190.257 51.6443 188.546 51.0611ZM314.195 51.7793C313.055 52.6291 312.36 53.9775 312.36 55.4357C312.361 57.6072 313.885 59.4806 316.011 59.9257C317.806 60.3015 319.616 59.5724 320.662 58.1396C320.619 58.0952 320.575 58.0531 320.53 58.0113C318.766 56.2014 317.023 54.4936 315.38 52.9327L314.683 52.2729L314.376 51.966L314.195 51.7793ZM150.545 52.1274L150.515 52.1464C150.388 52.2225 150.263 52.2996 150.139 52.3797C148.411 53.4097 146.812 54.6379 145.374 56.0377C145.174 56.7461 144.634 57.3117 143.943 57.5522C143.894 57.6061 143.845 57.6618 143.797 57.7177C143.716 57.8061 143.637 57.8937 143.562 57.9804C144.559 59.4479 146.349 60.2385 148.162 59.9115C150.351 59.5166 151.94 57.606 151.928 55.3823C151.944 54.1342 151.429 52.9588 150.545 52.1274ZM223.419 53.1403C224.673 53.1403 225.689 54.1561 225.689 55.409C225.689 56.662 224.673 57.6777 223.419 57.6777C222.166 57.6777 221.15 56.662 221.15 55.409C221.15 54.1561 222.166 53.1403 223.419 53.1403ZM211.951 53.1403C213.205 53.1403 214.221 54.1561 214.221 55.409C214.221 56.662 213.205 57.6777 211.951 57.6777C210.698 57.6777 209.682 56.662 209.682 55.409C209.682 54.1561 210.698 53.1403 211.951 53.1403ZM269.251 53.1403C270.505 53.1403 271.521 54.1561 271.521 55.409C271.521 56.662 270.505 57.6777 269.251 57.6777C267.998 57.6777 266.982 56.662 266.982 55.409C266.982 54.1561 267.998 53.1403 269.251 53.1403ZM131.742 53.1403C132.995 53.1403 134.011 54.1561 134.011 55.409C134.011 56.662 132.995 57.6777 131.742 57.6777C130.488 57.6777 129.472 56.662 129.472 55.409C129.472 54.1561 130.488 53.1403 131.742 53.1403ZM234.874 53.1403C236.127 53.1403 237.143 54.1561 237.143 55.409C237.143 56.662 236.127 57.6777 234.874 57.6777C233.62 57.6777 232.604 56.662 232.604 55.409C232.604 54.1561 233.62 53.1403 234.874 53.1403ZM257.797 53.1403C259.05 53.1403 260.066 54.1561 260.066 55.409C260.066 56.662 259.05 57.6777 257.797 57.6777C256.543 57.6777 255.527 56.662 255.527 55.409C255.527 54.1561 256.543 53.1403 257.797 53.1403ZM246.342 53.1403C247.595 53.1403 248.611 54.1561 248.611 55.409C248.611 56.662 247.595 57.6777 246.342 57.6777C245.088 57.6777 244.072 56.662 244.072 55.409C244.072 54.1561 245.088 53.1403 246.342 53.1403ZM257.797 44.4927C259.05 44.4927 260.066 45.5084 260.066 46.7614C260.066 48.0143 259.05 49.03 257.797 49.03C256.543 49.03 255.527 48.0143 255.527 46.7614C255.527 45.5084 256.543 44.4927 257.797 44.4927ZM280.719 44.4927C281.973 44.4927 282.989 45.5084 282.989 46.7614C282.989 48.0143 281.973 49.03 280.719 49.03C279.466 49.03 278.45 48.0143 278.45 46.7614C278.45 45.5084 279.466 44.4927 280.719 44.4927ZM120.287 44.4927C121.541 44.4927 122.557 45.5084 122.557 46.7614C122.557 48.0143 121.541 49.03 120.287 49.03C119.034 49.03 118.018 48.0143 118.018 46.7614C118.018 45.5084 119.034 44.4927 120.287 44.4927ZM234.874 44.4927C236.127 44.4927 237.143 45.5084 237.143 46.7614C237.143 48.0143 236.127 49.03 234.874 49.03C233.62 49.03 232.604 48.0143 232.604 46.7614C232.604 45.5084 233.62 44.4927 234.874 44.4927ZM223.419 44.4927C224.673 44.4927 225.689 45.5084 225.689 46.7614C225.689 48.0143 224.673 49.03 223.419 49.03C222.166 49.03 221.15 48.0143 221.15 46.7614C221.15 45.5084 222.166 44.4927 223.419 44.4927ZM131.742 44.4927C132.995 44.4927 134.011 45.5084 134.011 46.7614C134.011 48.0143 132.995 49.03 131.742 49.03C130.488 49.03 129.472 48.0143 129.472 46.7614C129.472 45.5084 130.488 44.4927 131.742 44.4927ZM211.951 44.4927C213.205 44.4927 214.221 45.5084 214.221 46.7614C214.221 48.0143 213.205 49.03 211.951 49.03C210.698 49.03 209.682 48.0143 209.682 46.7614C209.682 45.5084 210.698 44.4927 211.951 44.4927ZM143.197 44.4927C144.45 44.4927 145.466 45.5084 145.466 46.7614C145.466 48.0143 144.45 49.03 143.197 49.03C141.943 49.03 140.927 48.0143 140.927 46.7614C140.927 45.5084 141.943 44.4927 143.197 44.4927ZM269.251 44.4927C270.505 44.4927 271.521 45.5084 271.521 46.7614C271.521 48.0143 270.505 49.03 269.251 49.03C267.998 49.03 266.982 48.0143 266.982 46.7614C266.982 45.5084 267.998 44.4927 269.251 44.4927ZM246.342 44.4927C247.595 44.4927 248.611 45.5084 248.611 46.7614C248.611 48.0143 247.595 49.03 246.342 49.03C245.088 49.03 244.072 48.0143 244.072 46.7614C244.072 45.5084 245.088 44.4927 246.342 44.4927ZM200.497 44.4927C201.75 44.4927 202.766 45.5084 202.766 46.7614C202.766 48.0143 201.75 49.03 200.497 49.03C199.243 49.03 198.227 48.0143 198.227 46.7614C198.227 45.5084 199.243 44.4927 200.497 44.4927ZM143.197 35.845C144.45 35.845 145.466 36.8608 145.466 38.1137C145.466 39.3667 144.45 40.3824 143.197 40.3824C141.943 40.3824 140.927 39.3667 140.927 38.1137C140.927 36.8608 141.943 35.845 143.197 35.845ZM97.3646 35.845C98.618 35.845 99.6342 36.8608 99.6342 38.1137C99.6342 39.3667 98.618 40.3824 97.3646 40.3824C96.1111 40.3824 95.095 39.3667 95.095 38.1137C95.095 36.8608 96.1111 35.845 97.3646 35.845ZM269.251 35.845C270.505 35.845 271.521 36.8608 271.521 38.1137C271.521 39.3667 270.505 40.3824 269.251 40.3824C267.998 40.3824 266.982 39.3667 266.982 38.1137C266.982 36.8608 267.998 35.845 269.251 35.845ZM154.665 35.845C155.918 35.845 156.934 36.8608 156.934 38.1137C156.934 39.3667 155.918 40.3824 154.665 40.3824C153.411 40.3824 152.395 39.3667 152.395 38.1137C152.395 36.8608 153.411 35.845 154.665 35.845ZM280.719 35.845C281.973 35.845 282.989 36.8608 282.989 38.1137C282.989 39.3667 281.973 40.3824 280.719 40.3824C279.466 40.3824 278.45 39.3667 278.45 38.1137C278.45 36.8608 279.466 35.845 280.719 35.845ZM211.951 35.845C213.205 35.845 214.221 36.8608 214.221 38.1137C214.221 39.3667 213.205 40.3824 211.951 40.3824C210.698 40.3824 209.682 39.3667 209.682 38.1137C209.682 36.8608 210.698 35.845 211.951 35.845ZM177.574 35.845C178.827 35.845 179.843 36.8608 179.843 38.1137C179.843 39.3667 178.827 40.3824 177.574 40.3824C176.32 40.3824 175.304 39.3667 175.304 38.1137C175.304 36.8608 176.32 35.845 177.574 35.845ZM246.342 35.845C247.595 35.845 248.611 36.8608 248.611 38.1137C248.611 39.3667 247.595 40.3824 246.342 40.3824C245.088 40.3824 244.072 39.3667 244.072 38.1137C244.072 36.8608 245.088 35.845 246.342 35.845ZM131.742 35.845C132.995 35.845 134.011 36.8608 134.011 38.1137C134.011 39.3667 132.995 40.3824 131.742 40.3824C130.488 40.3824 129.472 39.3667 129.472 38.1137C129.472 36.8608 130.488 35.845 131.742 35.845ZM223.419 35.845C224.673 35.845 225.689 36.8608 225.689 38.1137C225.689 39.3667 224.673 40.3824 223.419 40.3824C222.166 40.3824 221.15 39.3667 221.15 38.1137C221.15 36.8608 222.166 35.845 223.419 35.845ZM166.119 35.845C167.373 35.845 168.389 36.8608 168.389 38.1137C168.389 39.3667 167.373 40.3824 166.119 40.3824C164.866 40.3824 163.85 39.3667 163.85 38.1137C163.85 36.8608 164.866 35.845 166.119 35.845ZM108.819 35.845C110.073 35.845 111.089 36.8608 111.089 38.1137C111.089 39.3667 110.073 40.3824 108.819 40.3824C107.566 40.3824 106.55 39.3667 106.55 38.1137C106.55 36.8608 107.566 35.845 108.819 35.845ZM200.497 35.845C201.75 35.845 202.766 36.8608 202.766 38.1137C202.766 39.3667 201.75 40.3824 200.497 40.3824C199.243 40.3824 198.227 39.3667 198.227 38.1137C198.227 36.8608 199.243 35.845 200.497 35.845ZM234.874 35.845C236.127 35.845 237.143 36.8608 237.143 38.1137C237.143 39.3667 236.127 40.3824 234.874 40.3824C233.62 40.3824 232.604 39.3667 232.604 38.1137C232.604 36.8608 233.62 35.845 234.874 35.845ZM257.797 35.845C259.05 35.845 260.066 36.8608 260.066 38.1137C260.066 39.3667 259.05 40.3824 257.797 40.3824C256.543 40.3824 255.527 39.3667 255.527 38.1137C255.527 36.8608 256.543 35.845 257.797 35.845ZM120.287 35.845C121.541 35.845 122.557 36.8608 122.557 38.1137C122.557 39.3667 121.541 40.3824 120.287 40.3824C119.034 40.3824 118.018 39.3667 118.018 38.1137C118.018 36.8608 119.034 35.845 120.287 35.845ZM189.042 35.845C190.295 35.845 191.311 36.8608 191.311 38.1137C191.311 39.3667 190.295 40.3824 189.042 40.3824C187.788 40.3824 186.772 39.3667 186.772 38.1137C186.772 36.8608 187.788 35.845 189.042 35.845ZM120.287 27.1974C121.541 27.1974 122.557 28.2131 122.557 29.4661C122.557 30.719 121.541 31.7347 120.287 31.7347C119.034 31.7347 118.018 30.719 118.018 29.4661C118.018 28.2131 119.034 27.1974 120.287 27.1974ZM223.419 27.1974C224.673 27.1974 225.689 28.2131 225.689 29.4661C225.689 30.719 224.673 31.7347 223.419 31.7347C222.166 31.7347 221.15 30.719 221.15 29.4661C221.15 28.2131 222.166 27.1974 223.419 27.1974ZM177.574 27.1974C178.827 27.1974 179.843 28.2131 179.843 29.4661C179.843 30.719 178.827 31.7347 177.574 31.7347C176.32 31.7347 175.304 30.719 175.304 29.4661C175.304 28.2131 176.32 27.1974 177.574 27.1974ZM166.119 27.1974C167.373 27.1974 168.389 28.2131 168.389 29.4661C168.389 30.719 167.373 31.7347 166.119 31.7347C164.866 31.7347 163.85 30.719 163.85 29.4661C163.85 28.2131 164.866 27.1974 166.119 27.1974ZM257.797 27.1974C259.05 27.1974 260.066 28.2131 260.066 29.4661C260.066 30.719 259.05 31.7347 257.797 31.7347C256.543 31.7347 255.527 30.719 255.527 29.4661C255.527 28.2131 256.543 27.1974 257.797 27.1974ZM108.819 27.1974C110.073 27.1974 111.089 28.2131 111.089 29.4661C111.089 30.719 110.073 31.7347 108.819 31.7347C107.566 31.7347 106.55 30.719 106.55 29.4661C106.55 28.2131 107.566 27.1974 108.819 27.1974ZM200.497 27.1974C201.75 27.1974 202.766 28.2131 202.766 29.4661C202.766 30.719 201.75 31.7347 200.497 31.7347C199.243 31.7347 198.227 30.719 198.227 29.4661C198.227 28.2131 199.243 27.1974 200.497 27.1974ZM154.665 27.1974C155.918 27.1974 156.934 28.2131 156.934 29.4661C156.934 30.719 155.918 31.7347 154.665 31.7347C153.411 31.7347 152.395 30.719 152.395 29.4661C152.395 28.2131 153.411 27.1974 154.665 27.1974ZM269.251 27.1974C270.505 27.1974 271.521 28.2131 271.521 29.4661C271.521 30.719 270.505 31.7347 269.251 31.7347C267.998 31.7347 266.982 30.719 266.982 29.4661C266.982 28.2131 267.998 27.1974 269.251 27.1974ZM143.197 27.1974C144.45 27.1974 145.466 28.2131 145.466 29.4661C145.466 30.719 144.45 31.7347 143.197 31.7347C141.943 31.7347 140.927 30.719 140.927 29.4661C140.927 28.2131 141.943 27.1974 143.197 27.1974ZM131.742 27.1974C132.995 27.1974 134.011 28.2131 134.011 29.4661C134.011 30.719 132.995 31.7347 131.742 31.7347C130.488 31.7347 129.472 30.719 129.472 29.4661C129.472 28.2131 130.488 27.1974 131.742 27.1974ZM189.042 27.1974C190.295 27.1974 191.311 28.2131 191.311 29.4661C191.311 30.719 190.295 31.7347 189.042 31.7347C187.788 31.7347 186.772 30.719 186.772 29.4661C186.772 28.2131 187.788 27.1974 189.042 27.1974ZM97.3646 27.1974C98.618 27.1974 99.6342 28.2131 99.6342 29.4661C99.6342 30.719 98.618 31.7347 97.3646 31.7347C96.1111 31.7347 95.095 30.719 95.095 29.4661C95.095 28.2131 96.1111 27.1974 97.3646 27.1974ZM211.951 27.1974C213.205 27.1974 214.221 28.2131 214.221 29.4661C214.221 30.719 213.205 31.7347 211.951 31.7347C210.698 31.7347 209.682 30.719 209.682 29.4661C209.682 28.2131 210.698 27.1974 211.951 27.1974ZM246.342 27.1974C247.595 27.1974 248.611 28.2131 248.611 29.4661C248.611 30.719 247.595 31.7347 246.342 31.7347C245.088 31.7347 244.072 30.719 244.072 29.4661C244.072 28.2131 245.088 27.1974 246.342 27.1974ZM234.874 27.1974C236.127 27.1974 237.143 28.2131 237.143 29.4661C237.143 30.719 236.127 31.7347 234.874 31.7347C233.62 31.7347 232.604 30.719 232.604 29.4661C232.604 28.2131 233.62 27.1974 234.874 27.1974ZM234.874 18.5497C236.127 18.5497 237.143 19.5655 237.143 20.8184C237.143 22.0714 236.127 23.0871 234.874 23.0871C233.62 23.0871 232.604 22.0714 232.604 20.8184C232.604 19.5655 233.62 18.5497 234.874 18.5497ZM257.797 18.5497C259.05 18.5497 260.066 19.5655 260.066 20.8184C260.066 22.0714 259.05 23.0871 257.797 23.0871C256.543 23.0871 255.527 22.0714 255.527 20.8184C255.527 19.5655 256.543 18.5497 257.797 18.5497ZM211.951 18.5497C213.205 18.5497 214.221 19.5655 214.221 20.8184C214.221 22.0714 213.205 23.0871 211.951 23.0871C210.698 23.0871 209.682 22.0714 209.682 20.8184C209.682 19.5655 210.698 18.5497 211.951 18.5497ZM166.119 18.5497C167.373 18.5497 168.389 19.5655 168.389 20.8184C168.389 22.0714 167.373 23.0871 166.119 23.0871C164.866 23.0871 163.85 22.0714 163.85 20.8184C163.85 19.5655 164.866 18.5497 166.119 18.5497ZM189.042 18.5497C190.295 18.5497 191.311 19.5655 191.311 20.8184C191.311 22.0714 190.295 23.0871 189.042 23.0871C187.788 23.0871 186.772 22.0714 186.772 20.8184C186.772 19.5655 187.788 18.5497 189.042 18.5497ZM143.197 18.5497C144.45 18.5497 145.466 19.5655 145.466 20.8184C145.466 22.0714 144.45 23.0871 143.197 23.0871C141.943 23.0871 140.927 22.0714 140.927 20.8184C140.927 19.5655 141.943 18.5497 143.197 18.5497ZM246.342 18.5497C247.595 18.5497 248.611 19.5655 248.611 20.8184C248.611 22.0714 247.595 23.0871 246.342 23.0871C245.088 23.0871 244.072 22.0714 244.072 20.8184C244.072 19.5655 245.088 18.5497 246.342 18.5497ZM120.287 18.5497C121.541 18.5497 122.557 19.5655 122.557 20.8184C122.557 22.0714 121.541 23.0871 120.287 23.0871C119.034 23.0871 118.018 22.0714 118.018 20.8184C118.018 19.5655 119.034 18.5497 120.287 18.5497ZM177.574 18.5497C178.827 18.5497 179.843 19.5655 179.843 20.8184C179.843 22.0714 178.827 23.0871 177.574 23.0871C176.32 23.0871 175.304 22.0714 175.304 20.8184C175.304 19.5655 176.32 18.5497 177.574 18.5497ZM154.665 18.5497C155.918 18.5497 156.934 19.5655 156.934 20.8184C156.934 22.0714 155.918 23.0871 154.665 23.0871C153.411 23.0871 152.395 22.0714 152.395 20.8184C152.395 19.5655 153.411 18.5497 154.665 18.5497ZM200.497 18.5497C201.75 18.5497 202.766 19.5655 202.766 20.8184C202.766 22.0714 201.75 23.0871 200.497 23.0871C199.243 23.0871 198.227 22.0714 198.227 20.8184C198.227 19.5655 199.243 18.5497 200.497 18.5497ZM223.419 18.5497C224.673 18.5497 225.689 19.5655 225.689 20.8184C225.689 22.0714 224.673 23.0871 223.419 23.0871C222.166 23.0871 221.15 22.0714 221.15 20.8184C221.15 19.5655 222.166 18.5497 223.419 18.5497ZM131.742 18.5497C132.995 18.5497 134.011 19.5655 134.011 20.8184C134.011 22.0714 132.995 23.0871 131.742 23.0871C130.488 23.0871 129.472 22.0714 129.472 20.8184C129.472 19.5655 130.488 18.5497 131.742 18.5497ZM143.197 9.90209C144.45 9.90209 145.466 10.9178 145.466 12.1708C145.466 13.4237 144.45 14.4394 143.197 14.4394C141.943 14.4394 140.927 13.4237 140.927 12.1708C140.927 10.9178 141.943 9.90209 143.197 9.90209ZM223.419 9.90209C224.673 9.90209 225.689 10.9178 225.689 12.1708C225.689 13.4237 224.673 14.4394 223.419 14.4394C222.166 14.4394 221.15 13.4237 221.15 12.1708C221.15 10.9178 222.166 9.90209 223.419 9.90209ZM189.042 9.90209C190.295 9.90209 191.311 10.9178 191.311 12.1708C191.311 13.4237 190.295 14.4394 189.042 14.4394C187.788 14.4394 186.772 13.4237 186.772 12.1708C186.772 10.9178 187.788 9.90209 189.042 9.90209ZM166.119 9.90209C167.373 9.90209 168.389 10.9178 168.389 12.1708C168.389 13.4237 167.373 14.4394 166.119 14.4394C164.866 14.4394 163.85 13.4237 163.85 12.1708C163.85 10.9178 164.866 9.90209 166.119 9.90209ZM200.497 9.90209C201.75 9.90209 202.766 10.9178 202.766 12.1708C202.766 13.4237 201.75 14.4394 200.497 14.4394C199.243 14.4394 198.227 13.4237 198.227 12.1708C198.227 10.9178 199.243 9.90209 200.497 9.90209ZM211.951 9.90209C213.205 9.90209 214.221 10.9178 214.221 12.1708C214.221 13.4237 213.205 14.4394 211.951 14.4394C210.698 14.4394 209.682 13.4237 209.682 12.1708C209.682 10.9178 210.698 9.90209 211.951 9.90209ZM234.874 9.90209C236.127 9.90209 237.143 10.9178 237.143 12.1708C237.143 13.4237 236.127 14.4394 234.874 14.4394C233.62 14.4394 232.604 13.4237 232.604 12.1708C232.604 10.9178 233.62 9.90209 234.874 9.90209ZM154.665 9.90209C155.918 9.90209 156.934 10.9178 156.934 12.1708C156.934 13.4237 155.918 14.4394 154.665 14.4394C153.411 14.4394 152.395 13.4237 152.395 12.1708C152.395 10.9178 153.411 9.90209 154.665 9.90209ZM177.574 9.90209C178.827 9.90209 179.843 10.9178 179.843 12.1708C179.843 13.4237 178.827 14.4394 177.574 14.4394C176.32 14.4394 175.304 13.4237 175.304 12.1708C175.304 10.9178 176.32 9.90209 177.574 9.90209Z" fill="#50A678"/>
</svg>
